<?xml version="1.0" encoding="utf-8"?>
<svg version="1.1" xmlns:xlink="http://www.w3.org/1999/xlink" width="1648px" height="1564px" xmlns="http://www.w3.org/2000/svg">
  <defs>
    <filter x="266px" y="63px" width="1648px" height="1564px" filterUnits="userSpaceOnUse" id="filter166">
      <feOffset dx="0" dy="2" in="SourceAlpha" result="shadowOffsetInner" />
      <feGaussianBlur stdDeviation="7" in="shadowOffsetInner" result="shadowGaussian" />
      <feComposite in2="shadowGaussian" operator="atop" in="SourceAlpha" result="shadowComposite" />
      <feColorMatrix type="matrix" values="0 0 0 0 0  0 0 0 0 0  0 0 0 0 0  0 0 0 0.0274509803921569 0  " in="shadowComposite" />
    </filter>
    <g id="widget167">
      <path d="M 8.24418067932129 0  C 8.24418067932129 0  1611.755859375 0  1611.755859375 0  C 1616.30967950821 0  1620 5.79072055778898  1620 12.9346564938128  C 1620 12.9346564938128  1620 1523.06532583973  1620 1523.06532583973  C 1620 1530.20926177575  1616.30967950821 1536  1611.755859375 1536  C 1611.755859375 1536  8.24418067932129 1536  8.24418067932129 1536  C 3.69036054611206 1536  0 1530.20926177575  0 1523.06532583973  C 0 1523.06532583973  0 12.9346564938128  0 12.9346564938128  C 0 5.79072055778898  3.69036054611206 0  8.24418067932129 0  Z " fill-rule="nonzero" fill="#ffffff" stroke="none" transform="matrix(1 0 0 1 280 75 )" />
    </g>
  </defs>
  <g transform="matrix(1 0 0 1 -266 -63 )">
    <use xlink:href="#widget167" filter="url(#filter166)" />
    <use xlink:href="#widget167" />
  </g>
</svg>