<?xml version="1.0" encoding="utf-8"?>
<svg version="1.1" xmlns:xlink="http://www.w3.org/1999/xlink" width="480px" height="32px" viewBox="663 224  480 32" xmlns="http://www.w3.org/2000/svg">
  <path d="M 663.5 228  A 3.5 3.5 0 0 1 667 224.5 L 1139 224.5  A 3.5 3.5 0 0 1 1142.5 228 L 1142.5 252  A 3.5 3.5 0 0 1 1139 255.5 L 667 255.5  A 3.5 3.5 0 0 1 663.5 252 L 663.5 228  Z " fill-rule="nonzero" fill="#ffffff" stroke="none" fill-opacity="0" />
  <path d="M 663.5 228  A 3.5 3.5 0 0 1 667 224.5 L 1139 224.5  A 3.5 3.5 0 0 1 1142.5 228 L 1142.5 252  A 3.5 3.5 0 0 1 1139 255.5 L 667 255.5  A 3.5 3.5 0 0 1 663.5 252 L 663.5 228  Z " stroke-width="1" stroke="#2590ff" fill="none" />
</svg>