<?xml version="1.0" encoding="utf-8"?>
<svg version="1.1" xmlns:xlink="http://www.w3.org/1999/xlink" width="12px" height="12px" viewBox="763 345.5  12 12" xmlns="http://www.w3.org/2000/svg">
  <path d="M 769 345.5  C 772.36 345.5  775 348.14  775 351.5  C 775 354.86  772.36 357.5  769 357.5  C 765.64 357.5  763 354.86  763 351.5  C 763 348.14  765.64 345.5  769 345.5  Z " fill-rule="nonzero" fill="#ffffff" stroke="none" />
  <path d="M 769 346  C 772.08 346  774.5 348.42  774.5 351.5  C 774.5 354.58  772.08 357  769 357  C 765.92 357  763.5 354.58  763.5 351.5  C 763.5 348.42  765.92 346  769 346  Z " stroke-width="1" stroke="#2590ff" fill="none" />
  <path d="M 769 354.5  C 767.32 354.5  766 353.18  766 351.5  C 766 349.82  767.32 348.5  769 348.5  C 770.68 348.5  772 349.82  772 351.5  C 772 353.18  770.68 354.5  769 354.5  " fill-rule="nonzero" fill="#2590ff" stroke="none" />
</svg>