<?xml version="1.0" encoding="utf-8"?>
<svg version="1.1" xmlns:xlink="http://www.w3.org/1999/xlink" width="16px" height="16px" xmlns="http://www.w3.org/2000/svg">
  <g transform="matrix(1 0 0 1 -2028 -292 )">
    <path d="M 9.44947624206543 9.80620670318604  C 9.44947624206543 9.80620670318604  11.8316011428833 9.80620670318604  11.8316011428833 9.80620670318604  C 12.1933325529099 9.80620670318604  12.4756574630737 9.53093856573105  12.4756574630737 9.17825031280518  C 12.4756574630737 8.8255620598793  12.1933325529099 8.55029296875  11.8316011428833 8.55029296875  C 11.8316011428833 8.55029296875  9.44947624206543 8.55029296875  9.44947624206543 8.55029296875  C 9.08774483203888 8.55029296875  8.80541896820068 8.8255620598793  8.80541896820068 9.17825031280518  C 8.80983059527352 9.53093856573105  9.09215646982193 9.80620670318604  9.44947624206543 9.80620670318604  Z M 9.44947624206543 12.309624671936  C 9.44947624206543 12.309624671936  11.8316011428833 12.309624671936  11.8316011428833 12.309624671936  C 12.1933325529099 12.309624671936  12.4756574630737 12.034356534481  12.4756574630737 11.6816682815552  C 12.4756574630737 11.3289800286293  12.1933325529099 11.0537109375  11.8316011428833 11.0537109375  C 11.8316011428833 11.0537109375  9.44947624206543 11.0537109375  9.44947624206543 11.0537109375  C 9.08774483203888 11.0537109375  8.80541896820068 11.3289800286293  8.80541896820068 11.6816682815552  C 8.80983059527352 12.034356534481  9.09215646982193 12.309624671936  9.44947624206543 12.309624671936  Z M 13.4413738250732 1.25592005252838  C 13.4413738250732 1.25592005252838  11.7518224716187 1.25592005252838  11.7518224716187 1.25592005252838  C 11.7518224716187 1.25592005252838  11.7518224716187 0.627952039241791  11.7518224716187 0.627952039241791  C 11.7518224716187 0.275264024734497  11.4695017337799 0  11.1077737808228 0  C 10.7460298240185 0  10.4637098312378 0.275264024734497  10.4637098312378 0.627952039241791  C 10.4637098312378 0.627952039241791  10.4637098312378 1.25592005252838  10.4637098312378 1.25592005252838  L 5.32891130447388 1.25592005252838  C 5.32891130447388 1.25592005252838  5.32891130447388 0.627952039241791  5.32891130447388 0.627952039241791  C 5.32891130447388 0.275264024734497  5.04657530784607 0  4.68484735488892 0  C 4.32311940193176 0  4.04079961776733 0.275264024734497  4.04079961776733 0.627952039241791  C 4.04079961776733 0.627952039241791  4.04079961776733 1.25592005252838  4.04079961776733 1.25592005252838  C 4.04079961776733 1.25592005252838  2.56740760803223 1.25592005252838  2.56740760803223 1.25592005252838  C 1.15577590465546 1.25592005252838  0 2.38280010223389  0 3.75913619995117  C 0 3.75913619995117  0 13.496768951416  0 13.496768951416  C 0 14.8731210231781  1.15577590465546 16  2.56740760803223 16  C 2.56740760803223 16  13.432541847229 16  13.432541847229 16  C 14.8441735506058 16  15.9999494552612 14.8731210231781  15.9999494552612 13.496768951416  C 15.9999494552612 13.496768951416  15.9999494552612 3.75913619995117  15.9999494552612 3.75913619995117  C 16.0087654544041 2.38280010223389  14.8529895544052 1.25592005252838  13.4413738250732 1.25592005252838  Z M 14.7251453399658 13.4971036911011  C 14.7251453399658 14.1852775216103  14.1472626924515 14.7487154006958  13.4414463043213 14.7487154006958  C 13.4414463043213 14.7487154006958  2.57188892364502 14.7487154006958  2.57188892364502 14.7487154006958  C 1.86607253551483 14.7487154006958  1.28818929195404 14.1852775216103  1.28818929195404 13.4971036911011  C 1.28818929195404 13.4971036911011  1.28818929195404 6.2626953125  1.28818929195404 6.2626953125  L 14.7251453399658 6.2626953125  C 14.7251453399658 6.2626953125  14.7251453399658 13.4971036911011  14.7251453399658 13.4971036911011  Z M 14.7339677810669 5  L 1.28818929195404 5  C 1.28818929195404 5  1.28818929195404 3.75893712043762  1.28818929195404 3.75893712043762  C 1.28818929195404 3.07076531648636  1.86607539653778 2.50732421875  2.5718846321106 2.50732421875  C 2.5718846321106 2.50732421875  4.04527282714844 2.50732421875  4.04527282714844 2.50732421875  C 4.04527282714844 2.50732421875  4.04527282714844 3.13528084754944  4.04527282714844 3.13528084754944  C 4.04527282714844 3.48797035217285  4.32760739326477 3.76323771476746  4.68933916091919 3.76323771476746  C 5.05107092857361 3.76323771476746  5.33339214324951 3.48797035217285  5.33339214324951 3.13528084754944  C 5.33339214324951 3.13528084754944  5.33339214324951 2.50732421875  5.33339214324951 2.50732421875  L 10.4726104736328 2.50732421875  C 10.4726104736328 2.50732421875  10.4726104736328 3.13528084754944  10.4726104736328 3.13528084754944  C 10.4726104736328 3.48797035217285  10.7549321651459 3.76323771476746  11.1166639328003 3.76323771476746  C 11.4783957004547 3.76323771476746  11.7607154846191 3.48797035217285  11.7607154846191 3.13528084754944  C 11.7607154846191 3.13528084754944  11.7607154846191 2.50732421875  11.7607154846191 2.50732421875  C 11.7607154846191 2.50732421875  13.4502725601196 2.50732421875  13.4502725601196 2.50732421875  C 14.1560817956924 2.50732421875  14.7339677810669 3.07076531648636  14.7339677810669 3.75893712043762  C 14.7339677810669 3.75893712043762  14.7339677810669 5  14.7339677810669 5  Z M 3.84235429763794 12.309624671936  C 3.84235429763794 12.309624671936  6.22447872161865 12.309624671936  6.22447872161865 12.309624671936  C 6.5862101316452 12.309624671936  6.8685359954834 12.034356534481  6.8685359954834 11.6816682815552  C 6.8685359954834 11.3289800286293  6.5862101316452 11.0537109375  6.22447872161865 11.0537109375  C 6.22447872161865 11.0537109375  3.84235429763794 11.0537109375  3.84235429763794 11.0537109375  C 3.48062288761139 11.0537109375  3.19829702377319 11.3289800286293  3.19829702377319 11.6816682815552  C 3.19829702377319 12.034356534481  3.48062288761139 12.309624671936  3.84235429763794 12.309624671936  Z M 3.84235429763794 9.80620670318604  C 3.84235429763794 9.80620670318604  6.22447872161865 9.80620670318604  6.22447872161865 9.80620670318604  C 6.5862101316452 9.80620670318604  6.8685359954834 9.53093856573105  6.8685359954834 9.17825031280518  C 6.8685359954834 8.8255620598793  6.5862101316452 8.55029296875  6.22447872161865 8.55029296875  C 6.22447872161865 8.55029296875  3.84235429763794 8.55029296875  3.84235429763794 8.55029296875  C 3.48062288761139 8.55029296875  3.19829702377319 8.8255620598793  3.19829702377319 9.17825031280518  C 3.19829702377319 9.53093856573105  3.48062288761139 9.80620670318604  3.84235429763794 9.80620670318604  Z " fill-rule="nonzero" fill="#6b84a5" stroke="none" transform="matrix(1 0 0 1 2028 292 )" />
  </g>
</svg>