<?xml version="1.0" encoding="utf-8"?>
<svg version="1.1" xmlns:xlink="http://www.w3.org/1999/xlink" width="16px" height="16px" xmlns="http://www.w3.org/2000/svg">
  <g transform="matrix(1 0 0 1 -1784 -99 )">
    <path d="M 13.7139844894409 0  C 13.7139844894409 0  2.28600001335144 0  2.28600001335144 0  C 1.02348804473877 0  0 1.02348804473877  0 2.28600001335144  C 0 2.28600001335144  0 13.7140007019043  0 13.7140007019043  C 0 14.976512670517  1.02348804473877 16  2.28600001335144 16  C 2.28600001335144 16  13.7140007019043 16  13.7140007019043 16  C 14.976512670517 16  16 14.976512670517  16 13.7140007019043  C 16 13.7140007019043  16 2.28600001335144  16 2.28600001335144  C 15.999984 1.02348804473877  14.9765125513077 0  13.7139844894409 0  Z M 11.3934879302979 1.18055546283722  L 11.3934879302979 5.67732810974121  L 4.61284112930298 5.67732810974121  L 4.61284112930298 1.18055546283722  L 11.3934879302979 1.18055546283722  Z M 14.8580713272095 13.7170181274414  C 14.8585788239143 14.3466568589211  14.3485585451126 14.8574722778285  13.7189197540283 14.8579797744751  C 13.7189197540283 14.8579797744751  2.28865432739258 14.8579797744751  2.28865432739258 14.8579797744751  C 1.98303160071373 14.8579797744751  1.69445811212063 14.7405562102795  1.4783331155777 14.5244312286377  C 1.26220811903477 14.3082925230265  1.14194512367249 14.0226134061813  1.14194512367249 13.7170181274414  C 1.14194512367249 13.7170181274414  1.14194512367249 2.28701400756836  1.14194512367249 2.28701400756836  C 1.14308356214315 1.65442627668381  1.65606653690338 1.14212896634126  2.28865432739258 1.14185464382172  C 2.28865432739258 1.14185464382172  3.43226408958435 1.14185464382172  3.43226408958435 1.14185464382172  C 3.43226408958435 1.14185464382172  3.43226408958435 5.71605920791626  3.43226408958435 5.71605920791626  C 3.43133139295969 6.34580767154694  3.94109100103378 6.85706233675592  4.5708532333374 6.85799503326416  C 4.5708532333374 6.85799503326416  11.4311656951904 6.85799503326416  11.4311656951904 6.85799503326416  C 12.0624504089355 6.85799503326416  12.5742540359497 6.34728896617889  12.5742540359497 5.71605920791626  C 12.5742540359497 5.71605920791626  12.5742540359497 1.14185464382172  12.5742540359497 1.14185464382172  C 12.5742540359497 1.14185464382172  13.7156133651733 1.14185464382172  13.7156133651733 1.14185464382172  C 14.3472546935081 1.14252673398005  14.858743417426 1.65511214733124  14.8580713272095 2.2867534160614  C 14.8580713272095 2.2867534160614  14.8580713272095 13.7170181274414  14.8580713272095 13.7170181274414  Z " fill-rule="nonzero" fill="#2590ff" stroke="none" transform="matrix(1 0 0 1 1784 99 )" />
  </g>
</svg>