<?xml version="1.0" encoding="utf-8"?>
<svg version="1.1" xmlns:xlink="http://www.w3.org/1999/xlink" width="1648px" height="1204px" xmlns="http://www.w3.org/2000/svg">
  <defs>
    <filter x="266px" y="63px" width="1648px" height="1204px" filterUnits="userSpaceOnUse" id="filter158">
      <feOffset dx="0" dy="2" in="SourceAlpha" result="shadowOffsetInner" />
      <feGaussianBlur stdDeviation="7" in="shadowOffsetInner" result="shadowGaussian" />
      <feComposite in2="shadowGaussian" operator="atop" in="SourceAlpha" result="shadowComposite" />
      <feColorMatrix type="matrix" values="0 0 0 0 0  0 0 0 0 0  0 0 0 0 0  0 0 0 0.0274509803921569 0  " in="shadowComposite" />
    </filter>
    <g id="widget159">
      <path d="M 8.24418067932129 0  C 8.24418067932129 0  1611.755859375 0  1611.755859375 0  C 1616.30967950821 0  1620 4.43352042705719  1620 9.90309637807546  C 1620 9.90309637807546  1620 1166.09689009604  1620 1166.09689009604  C 1620 1171.56646604706  1616.30967950821 1176  1611.755859375 1176  C 1611.755859375 1176  8.24418067932129 1176  8.24418067932129 1176  C 3.69036054611206 1176  0 1171.56646604706  0 1166.09689009604  C 0 1166.09689009604  0 9.90309637807546  0 9.90309637807546  C 0 4.43352042705719  3.69036054611206 0  8.24418067932129 0  Z " fill-rule="nonzero" fill="#ffffff" stroke="none" transform="matrix(1 0 0 1 280 75 )" />
    </g>
  </defs>
  <g transform="matrix(1 0 0 1 -266 -63 )">
    <use xlink:href="#widget159" filter="url(#filter158)" />
    <use xlink:href="#widget159" />
  </g>
</svg>