<?xml version="1.0" encoding="utf-8"?>
<svg version="1.1" xmlns:xlink="http://www.w3.org/1999/xlink" width="86px" height="34px" xmlns="http://www.w3.org/2000/svg">
  <defs>
    <mask fill="white" id="clip160">
      <path d="M 82.8726974487305 0  C 84.5998354868455 0  86 1.52224797010422  86 3.4  C 86 3.4  86 30.6  86 30.6  C 86 32.4777860760689  84.5998354868455 34  82.8726974487305 34  C 82.8726974487305 34  3.12730404246937 34  3.12730404246937 34  C 1.4001660043543 34  0 32.4777520298958  0 30.6  C 0 30.6  0 3.4  0 3.4  C 0 1.52224797010422  1.4001660043543 0  3.12730404246937 0  C 3.12730404246937 0  82.8726974487305 0  82.8726974487305 0  Z " fill-rule="evenodd" />
    </mask>
  </defs>
  <g transform="matrix(1 0 0 1 -1768 -90 )">
    <path d="M 82.8726974487305 0  C 84.5998354868455 0  86 1.52224797010422  86 3.4  C 86 3.4  86 30.6  86 30.6  C 86 32.4777860760689  84.5998354868455 34  82.8726974487305 34  C 82.8726974487305 34  3.12730404246937 34  3.12730404246937 34  C 1.4001660043543 34  0 32.4777520298958  0 30.6  C 0 30.6  0 3.4  0 3.4  C 0 1.52224797010422  1.4001660043543 0  3.12730404246937 0  C 3.12730404246937 0  82.8726974487305 0  82.8726974487305 0  Z " fill-rule="nonzero" fill="#ffffff" stroke="none" fill-opacity="0" transform="matrix(1 0 0 1 1768 90 )" />
    <path d="M 82.8726974487305 0  C 84.5998354868455 0  86 1.52224797010422  86 3.4  C 86 3.4  86 30.6  86 30.6  C 86 32.4777860760689  84.5998354868455 34  82.8726974487305 34  C 82.8726974487305 34  3.12730404246937 34  3.12730404246937 34  C 1.4001660043543 34  0 32.4777520298958  0 30.6  C 0 30.6  0 3.4  0 3.4  C 0 1.52224797010422  1.4001660043543 0  3.12730404246937 0  C 3.12730404246937 0  82.8726974487305 0  82.8726974487305 0  Z " stroke-width="2" stroke="#d9eafc" fill="none" transform="matrix(1 0 0 1 1768 90 )" mask="url(#clip160)" />
  </g>
</svg>