<?xml version="1.0" encoding="utf-8"?>
<svg version="1.1" xmlns:xlink="http://www.w3.org/1999/xlink" width="9px" height="5px" xmlns="http://www.w3.org/2000/svg">
  <g transform="matrix(1 0 0 1 -230 -102 )">
    <path d="M 1.09621801972389 0.183445002351488  C 0.844218023121357 -0.0611500016280583  0.441009007394314 -0.0611500016280583  0.189000003039837 0.183445002351488  C -0.0629999935626984 0.428045008863722  -0.0629999935626984 0.819400016750608  0.189000003039837 1.06399502073015  C 0.189000003039837 1.06399502073015  3.95532882213593 4.71960510526385  3.95532882213593 4.71960510526385  C 3.97823382262141 4.75518010556698  4.00572896003723 4.78631016931364  4.03780496120453 4.81744016919817  C 4.16609096154571 4.94196517126901  4.33104313910007 5.00422486469948  4.5005761384964 4.99977486474173  C 4.66551914066076 4.99977486474173  4.83505196124315 4.94196517126901  4.9633469581604 4.81744016919817  C 4.99541395716369 4.78631016931364  5.02290909737349 4.75518010556698  5.045823097229 4.71960510526385  C 5.045823097229 4.71960510526385  8.81214308738709 1.06399502073015  8.81214308738709 1.06399502073015  C 8.93585708364844 0.943920016288757  9 0.783819992627416  9 0.623719990253448  C 9 0.463619987879481  8.93585708364844 0.303520006792886  8.81214308738709 0.183445002351488  C 8.56013408303261 -0.0611500016280583  8.15693387389183 -0.0611500016280583  7.90492486953735 0.183445002351488  C 7.90492486953735 0.183445002351488  4.5005761384964 3.48772491727556  4.5005761384964 3.48772491727556  L 1.09621801972389 0.183445002351488  Z " fill-rule="nonzero" fill="#6b84a5" stroke="none" transform="matrix(1 0 0 1 230 102 )" />
  </g>
</svg>