<?xml version="1.0" encoding="utf-8"?>
<svg version="1.1" xmlns:xlink="http://www.w3.org/1999/xlink" width="16px" height="16px" xmlns="http://www.w3.org/2000/svg">
  <g transform="matrix(1 0 0 1 -1503 -638 )">
    <path d="M 15.1541536 15.1697381334739  C 15.4171345066667 14.9073351468516  15.4233896533333 14.4832536535901  15.1682622933333 14.2132087469691  L 11.7975956266667 10.8382754142071  C 14.0296679466667 8.09564789467135  13.7225623466667 4.08530362868354  11.0989133866667 1.71451921308485  C 8.47526442666667 -0.656265191847163  4.45440964266667 -0.556756925197341  1.95124519466667 1.94090606104653  C -0.551919242666667 4.4385690472904  -0.660274026666667 8.45919509460981  1.70473204266667 11.0880539741648  C 4.069738112 13.7169128537198  8.07939701333333 14.032841280333  10.82692896 11.8068087473765  L 14.1975956266667 15.1817420801385  C 14.4670785066667 15.4374630400952  14.8911726933333 15.4321410134295  15.1541536 15.1697381334739  Z M 4.55650052266667 11.4593654407686  C 2.64818282666667 10.6272555742428  1.41565646933333 8.7419856012286  1.41892242133333 6.66014209224768  C 1.41526888533333 4.31326962331161  2.97480939733333 2.25109182099402  5.23398052266667 1.61550575176828  C 7.49315168 0.979919682542537  9.89914965333333 1.92644891971565  11.1196925866667 3.93096846070966  C 12.3402356266667 5.93548800170368  12.0766650666667 8.5075056012683  10.47492896 10.2228087476446  C 10.4195476266667 10.253773974306  10.3691947733333 10.2929772809661  10.3255956266667 10.3390754142916  C 10.2811661866667 10.385985067617  10.2418353066667 10.4374727476083  10.2082622933333 10.4926754142656  C 8.68498912 11.9117322673587  6.46481821866667 12.2914753072944  4.55650052266667 11.4593654407686  Z " fill-rule="nonzero" fill="#2590ff" stroke="none" transform="matrix(1 0 0 1 1503 638 )" />
  </g>
</svg>