<?xml version="1.0" encoding="utf-8"?>
<svg version="1.1" xmlns:xlink="http://www.w3.org/1999/xlink" width="14px" height="14px" viewBox="416 475  14 14" xmlns="http://www.w3.org/2000/svg">
  <path d="M 416.5 477  A 1.5 1.5 0 0 1 418 475.5 L 428 475.5  A 1.5 1.5 0 0 1 429.5 477 L 429.5 487  A 1.5 1.5 0 0 1 428 488.5 L 418 488.5  A 1.5 1.5 0 0 1 416.5 487 L 416.5 477  Z " fill-rule="nonzero" fill="#f0f0f0" stroke="none" />
  <path d="M 416.5 477  A 1.5 1.5 0 0 1 418 475.5 L 428 475.5  A 1.5 1.5 0 0 1 429.5 477 L 429.5 487  A 1.5 1.5 0 0 1 428 488.5 L 418 488.5  A 1.5 1.5 0 0 1 416.5 487 L 416.5 477  Z " stroke-width="1" stroke="#d5e1f7" fill="none" />
</svg>