<?xml version="1.0" encoding="utf-8"?>
<svg version="1.1" xmlns:xlink="http://www.w3.org/1999/xlink" width="14px" height="14px" viewBox="416 675  14 14" xmlns="http://www.w3.org/2000/svg">
  <path d="M 416.5 677  A 1.5 1.5 0 0 1 418 675.5 L 428 675.5  A 1.5 1.5 0 0 1 429.5 677 L 429.5 687  A 1.5 1.5 0 0 1 428 688.5 L 418 688.5  A 1.5 1.5 0 0 1 416.5 687 L 416.5 677  Z " fill-rule="nonzero" fill="#ffffff" stroke="none" />
  <path d="M 416.5 677  A 1.5 1.5 0 0 1 418 675.5 L 428 675.5  A 1.5 1.5 0 0 1 429.5 677 L 429.5 687  A 1.5 1.5 0 0 1 428 688.5 L 418 688.5  A 1.5 1.5 0 0 1 416.5 687 L 416.5 677  Z " stroke-width="1" stroke="#d5e1f7" fill="none" />
</svg>