<?xml version="1.0" encoding="utf-8"?>
<svg version="1.1" xmlns:xlink="http://www.w3.org/1999/xlink" width="14px" height="14px" viewBox="416 725  14 14" xmlns="http://www.w3.org/2000/svg">
  <path d="M 416.5 727  A 1.5 1.5 0 0 1 418 725.5 L 428 725.5  A 1.5 1.5 0 0 1 429.5 727 L 429.5 737  A 1.5 1.5 0 0 1 428 738.5 L 418 738.5  A 1.5 1.5 0 0 1 416.5 737 L 416.5 727  Z " fill-rule="nonzero" fill="#f0f0f0" stroke="none" />
  <path d="M 416.5 727  A 1.5 1.5 0 0 1 418 725.5 L 428 725.5  A 1.5 1.5 0 0 1 429.5 727 L 429.5 737  A 1.5 1.5 0 0 1 428 738.5 L 418 738.5  A 1.5 1.5 0 0 1 416.5 737 L 416.5 727  Z " stroke-width="1" stroke="#d5e1f7" fill="none" />
  <path d="M 419.5 732.5  L 422.5 735.5  " stroke-width="3" stroke="#d5e1f7" fill="none" />
  <path d="M 422.5 735.5  L 427.5 728.5  " stroke-width="3" stroke="#d5e1f7" fill="none" />
</svg>