<?xml version="1.0" encoding="utf-8"?>
<svg version="1.1" xmlns:xlink="http://www.w3.org/1999/xlink" width="14px" height="16px" xmlns="http://www.w3.org/2000/svg">
  <g transform="matrix(1 0 0 1 -474 -474 )">
    <path d="M 0.583333333333333 16  C 0.583333333333333 16  13.4166666666667 16  13.4166666666667 16  C 13.7393229166667 16  14 15.7446428571429  14 15.4285714285714  C 14 15.4285714285714  14 4.41607142857144  14 4.41607142857144  C 14 4.26428571428573  13.9380208333333 4.11785714285716  13.8286458333333 4.0107142857143  C 13.8286458333333 4.0107142857143  9.90572916666667 0.167857142857152  9.90572916666667 0.167857142857152  C 9.79635416666667 0.0607142857142954  9.64869791666668 0  9.49375000000001 0  C 9.49375000000001 0  0.583333333333333 0  0.583333333333333 0  C 0.260677083333336 0  0 0.255357142857146  0 0.571428571428571  C 0 0.571428571428571  0 15.4285714285714  0 15.4285714285714  C 0 15.7446428571429  0.260677083333336 16  0.583333333333333 16  Z M 7.98437500000001 5.14285714285715  C 7.98437500000001 5.55714285714286  8.32708333333334 5.89285714285715  8.75000000000001 5.89285714285715  C 8.75000000000001 5.89285714285715  12.6875 5.89285714285715  12.6875 5.89285714285715  L 12.6875 14.7142857142857  L 1.31250000000001 14.7142857142857  L 1.31250000000001 1.28571428571425  L 7.98437500000001 1.2857142857143  C 7.98437500000001 1.2857142857143  7.98437500000001 5.14285714285715  7.98437500000001 5.14285714285715  Z M 9.22395833333334 1.31785714285716  L 12.6546875 4.67857142857144  L 9.22395833333334 4.67857142857144  L 9.22395833333334 1.31785714285716  Z M 7.50494791666662 7.44821428571432  C 7.48124999999995 7.35178571428574  7.39374999999998 7.28571428571431  7.29348958333332 7.28571428571431  C 7.29348958333332 7.28571428571431  6.70651041666664 7.28571428571431  6.70651041666664 7.28571428571431  C 6.60624999999997 7.28571428571431  6.51874999999997 7.35178571428574  6.4950520833333 7.44821428571432  C 6.4950520833333 7.44821428571432  5.58906249999998 11  5.58906249999998 11  C 5.58906249999998 11  4.74869791666664 7.45178571428573  4.74869791666664 7.45178571428573  C 4.72499999999999 7.35535714285715  4.63749999999997 7.28571428571431  4.53541666666663 7.28571428571431  C 4.53541666666663 7.28571428571431  3.89010416666664 7.28571428571431  3.89010416666664 7.28571428571431  C 3.87005208333332 7.28571428571431  3.85182291666663 7.28750000000002  3.83359374999997 7.29285714285716  C 3.71692708333331 7.3232142857143  3.64765624999997 7.44107142857145  3.67864583333332 7.55535714285717  C 3.67864583333332 7.55535714285717  5.03124999999998 12.4839285714286  5.03124999999998 12.4839285714286  C 5.05677083333332 12.5767857142857  5.14427083333332 12.6428571428571  5.24270833333332 12.6428571428571  C 5.24270833333332 12.6428571428571  5.82604166666665 12.6428571428571  5.82604166666665 12.6428571428571  C 5.92447916666666 12.6428571428571  6.01197916666663 12.5785714285714  6.03749999999996 12.4839285714286  C 6.03749999999996 12.4839285714286  6.99999999999998 8.96607142857146  6.99999999999998 8.96607142857146  C 6.99999999999998 8.96607142857146  7.96249999999996 12.4839285714286  7.96249999999996 12.4839285714286  C 7.9880208333333 12.5767857142857  8.07552083333331 12.6428571428571  8.1739583333333 12.6428571428571  C 8.1739583333333 12.6428571428571  8.75364583333329 12.6428571428571  8.75364583333329 12.6428571428571  C 8.85208333333328 12.6428571428571  8.9395833333333 12.5785714285714  8.96510416666663 12.4839285714286  C 8.96510416666663 12.4839285714286  10.3213541666666 7.55535714285717  10.3213541666666 7.55535714285717  C 10.3268229166666 7.53750000000003  10.3286458333333 7.51785714285717  10.3286458333333 7.50000000000002  C 10.3286458333333 7.38214285714288  10.2302083333333 7.28571428571431  10.1098958333333 7.28571428571431  C 10.1098958333333 7.28571428571431  9.46093749999997 7.28571428571431  9.46093749999997 7.28571428571431  C 9.35885416666663 7.28571428571431  9.27135416666663 7.35535714285715  9.24765624999996 7.45178571428573  C 9.24765624999996 7.45178571428573  8.41276041666664 11.0071428571429  8.41276041666664 11.0071428571429  C 8.41276041666664 11.0071428571429  7.50494791666662 7.44821428571432  7.50494791666662 7.44821428571432  Z " fill-rule="nonzero" fill="#0f90e3" stroke="none" transform="matrix(1 0 0 1 474 474 )" />
  </g>
</svg>