<?xml version="1.0" encoding="utf-8"?>
<svg version="1.1" xmlns:xlink="http://www.w3.org/1999/xlink" width="12px" height="14px" xmlns="http://www.w3.org/2000/svg">
  <g transform="matrix(1 0 0 1 -431 -824 )">
    <path d="M 1.26163636363639 13.4825185185185  C 1.26163636363639 13.4825185185185  10.7389090909091 13.4825185185185  10.7389090909091 13.4825185185185  C 11.0570909090909 13.4825185185185  11.3269090909091 13.3798518518519  11.5483636363636 13.1745185185185  C 11.7698181818182 12.9691851851852  11.8805454545455 12.7206419753086  11.8805454545455 12.4288888888889  C 11.8805454545455 12.4288888888889  11.8805454545455 3.40355555555557  11.8805454545455 3.40355555555557  L 8.69345454545456 0  C 8.69345454545456 0  1.26163636363639 0  1.26163636363639 0  C 0.943454545454565 0  0.673636363636371 0.102666666666656  0.452181818181822 0.307999999999997  C 0.230727272727274 0.513333333333309  0.120000000000015 0.76187654320985  0.120000000000015 1.05362962962962  C 0.120000000000015 1.05362962962962  0.120000000000015 12.4288888888889  0.120000000000015 12.4288888888889  C 0.120000000000015 12.7206419753086  0.230727272727274 12.9691851851852  0.452181818181822 13.1745185185185  C 0.673636363636371 13.3798518518519  0.943454545454565 13.4825185185185  1.26163636363639 13.4825185185185  Z M 10.8070909090909 12.4288888888889  C 10.7958181818182 12.4396049382716  10.7730909090909 12.444962962963  10.7389090909091 12.444962962963  C 10.7389090909091 12.444962962963  1.26163636363637 12.444962962963  1.26163636363637 12.444962962963  C 1.22745454545455 12.444962962963  1.20472727272728 12.4396049382716  1.19345454545455 12.4288888888889  C 1.19345454545455 12.4288888888889  1.19345454545455 1.05362962962962  1.19345454545455 1.05362962962962  C 1.20472727272728 1.0423950617284  1.22745454545455 1.03703703703704  1.26163636363637 1.03703703703704  C 1.26163636363637 1.03703703703704  7.31290909090908 1.03703703703704  7.31290909090908 1.03703703703704  C 7.31290909090908 1.03703703703704  7.31290909090908 3.41911111111111  7.31290909090908 3.41911111111111  C 7.31290909090908 3.67837037037037  7.40945454545455 3.8971851851852  7.60254545454545 4.07555555555556  C 7.79563636363635 4.25392592592593  8.02290909090909 4.3431111111111  8.28436363636363 4.3431111111111  C 8.28436363636363 4.3431111111111  10.8070909090909 4.3431111111111  10.8070909090909 4.3431111111111  C 10.8070909090909 4.3431111111111  10.8070909090909 12.4288888888889  10.8070909090909 12.4288888888889  Z M 6.39163636363643 6.70911111111109  C 6.39163636363643 6.8383950617284  6.32636363636368 6.98686419753084  6.19581818181823 7.15451851851849  C 6.06527272727277 7.32217283950614  5.92327272727277 7.47876543209874  5.76981818181823 7.62429629629627  C 5.61636363636368 7.7698271604938  5.48563636363642 7.96150617283947  5.37763636363642 8.1993333333333  C 5.26963636363641 8.43716049382712  5.2383636363637 8.68570370370366  5.28381818181825 8.94496296296292  C 5.28381818181825 8.94496296296292  6.49418181818188 8.94496296296292  6.49418181818188 8.94496296296292  C 6.47163636363642 8.7185432098765  6.52000000000004 8.50525925925924  6.63927272727277 8.30511111111108  C 6.75854545454551 8.10496296296295  6.90054545454551 7.93748148148145  7.06527272727278 7.80266666666664  C 7.23000000000004 7.66785185185183  7.38054545454552 7.495012345679  7.51690909090916 7.28414814814812  C 7.65327272727279 7.07328395061727  7.72145454545461 6.85446913580244  7.72145454545461 6.62770370370367  C 7.72145454545461 6.13061728395058  7.56236363636371 5.76056790123454  7.24418181818188 5.51755555555551  C 6.92600000000006 5.2745432098765  6.51127272727279 5.153037037037  6.00000000000006 5.153037037037  C 5.32981818181824 5.153037037037  4.75600000000005 5.41229629629626  4.27854545454551 5.93081481481478  C 4.27854545454551 5.93081481481478  5.04545454545461 6.595037037037  5.04545454545461 6.595037037037  C 5.30690909090915 6.33577777777774  5.56836363636369 6.20614814814812  5.82981818181824 6.20614814814812  C 6.0003636363637 6.20614814814812  6.13672727272733 6.24935802469134  6.23890909090915 6.33577777777774  C 6.34109090909096 6.42219753086417  6.39218181818188 6.54646913580245  6.39163636363643 6.70911111111109  Z M 8.3863636363637 3.32162962962963  L 8.3863636363637 1.23148148148148  L 10.3636363636364 3.32162962962963  L 8.3863636363637 3.32162962962963  Z M 5.88054545454544 10.791925925926  C 5.72163636363635 10.7915802469136  5.58818181818182 10.7374814814815  5.48018181818182 10.6296296296297  C 5.37218181818181 10.5217777777778  5.3181818181818 10.3867901234568  5.3181818181818 10.2246666666667  C 5.3181818181818 10.0625432098766  5.37218181818181 9.92755555555556  5.48018181818182 9.81970370370373  C 5.58818181818182 9.71185185185186  5.72454545454546 9.65775308641976  5.88927272727273 9.65740740740741  C 6.05399999999999 9.65706172839508  6.19036363636363 9.71116049382718  6.29836363636363 9.81970370370373  C 6.40636363636364 9.92824691358025  6.46036363636362 10.0632345679012  6.46036363636362 10.2246666666667  C 6.46036363636362 10.3860987654321  6.40345454545453 10.5210864197531  6.28963636363635 10.6296296296297  C 6.17581818181817 10.7381728395062  6.03945454545454 10.7922716049383  5.88054545454544 10.791925925926  Z " fill-rule="nonzero" fill="#888888" stroke="none" transform="matrix(1 0 0 1 431 824 )" />
  </g>
</svg>