<?xml version="1.0" encoding="utf-8"?>
<svg version="1.1" xmlns:xlink="http://www.w3.org/1999/xlink" width="11px" height="11px" xmlns="http://www.w3.org/2000/svg">
  <defs>
    <mask fill="white" id="clip155">
      <path d="M 4.66286558680554 10.0352188083333  L 4.66286558680554 10.0642020483333  C 4.5571470512543 10.2382293958691  4.38859341819875 10.3497812574842  4.20303541319444 10.368526025  C 4.03203481184684 10.3653616675496  3.86997111802879 10.281307431479  3.75597830208335 10.1366601266667  L 0.243386668402763 5.96307423833333  C -0.00769552827932785 5.62364892272018  -0.00769552827932785 5.12867852894648  0.243386668402763 4.78925321333332  C 0.357452295061307 4.63506761254896  0.525790848816513 4.54602429731229  0.703216851562502 4.54602429731229  C 0.880642854308491 4.54602429731229  1.04898140806372 4.63506761254896  1.16304703472221 4.78925321333332  L 4.12639705729163 8.41215762833333  L 9.78486282812497 0.340326588333333  C 9.89364420122075 0.136536253609211  10.0883749310326 0.0120468546158676  10.2983696218454 0.0120468546158676  C 10.4371533060144 0.0120468546158676  10.571650262672 0.0666009173857454  10.6789770694444 0.166427169999999  C 10.9570991756562 0.480607812967072  10.9948788930397 0.976591741815277  10.7683884878472 1.340248195  L 4.66286558680554 10.0352188083333  Z " fill-rule="evenodd" />
    </mask>
  </defs>
  <g transform="matrix(1 0 0 1 -218 -14 )">
    <path d="M 4.66286558680554 10.0352188083333  L 4.66286558680554 10.0642020483333  C 4.5571470512543 10.2382293958691  4.38859341819875 10.3497812574842  4.20303541319444 10.368526025  C 4.03203481184684 10.3653616675496  3.86997111802879 10.281307431479  3.75597830208335 10.1366601266667  L 0.243386668402763 5.96307423833333  C -0.00769552827932785 5.62364892272018  -0.00769552827932785 5.12867852894648  0.243386668402763 4.78925321333332  C 0.357452295061307 4.63506761254896  0.525790848816513 4.54602429731229  0.703216851562502 4.54602429731229  C 0.880642854308491 4.54602429731229  1.04898140806372 4.63506761254896  1.16304703472221 4.78925321333332  L 4.12639705729163 8.41215762833333  L 9.78486282812497 0.340326588333333  C 9.89364420122075 0.136536253609211  10.0883749310326 0.0120468546158676  10.2983696218454 0.0120468546158676  C 10.4371533060144 0.0120468546158676  10.571650262672 0.0666009173857454  10.6789770694444 0.166427169999999  C 10.9570991756562 0.480607812967072  10.9948788930397 0.976591741815277  10.7683884878472 1.340248195  L 4.66286558680554 10.0352188083333  Z " fill-rule="nonzero" fill="#ecf5ff" stroke="none" transform="matrix(1 0 0 1 218 14 )" />
    <path d="M 4.66286558680554 10.0352188083333  L 4.66286558680554 10.0642020483333  C 4.5571470512543 10.2382293958691  4.38859341819875 10.3497812574842  4.20303541319444 10.368526025  C 4.03203481184684 10.3653616675496  3.86997111802879 10.281307431479  3.75597830208335 10.1366601266667  L 0.243386668402763 5.96307423833333  C -0.00769552827932785 5.62364892272018  -0.00769552827932785 5.12867852894648  0.243386668402763 4.78925321333332  C 0.357452295061307 4.63506761254896  0.525790848816513 4.54602429731229  0.703216851562502 4.54602429731229  C 0.880642854308491 4.54602429731229  1.04898140806372 4.63506761254896  1.16304703472221 4.78925321333332  L 4.12639705729163 8.41215762833333  L 9.78486282812497 0.340326588333333  C 9.89364420122075 0.136536253609211  10.0883749310326 0.0120468546158676  10.2983696218454 0.0120468546158676  C 10.4371533060144 0.0120468546158676  10.571650262672 0.0666009173857454  10.6789770694444 0.166427169999999  C 10.9570991756562 0.480607812967072  10.9948788930397 0.976591741815277  10.7683884878472 1.340248195  L 4.66286558680554 10.0352188083333  Z " stroke-width="2" stroke="#797979" fill="none" transform="matrix(1 0 0 1 218 14 )" mask="url(#clip155)" />
  </g>
</svg>