<?xml version="1.0" encoding="utf-8"?>
<svg version="1.1" xmlns:xlink="http://www.w3.org/1999/xlink" width="9px" height="9px" xmlns="http://www.w3.org/2000/svg">
  <g transform="matrix(1 0 0 1 -62 -10 )">
    <path d="M 8.9933435840708 4.53491980088496  C 8.99334258849558 2.07156603982301  6.99631526548673 0.0748035398230087  4.53322732300884 0.0748035398230087  C 2.06988451327433 0.0748035398230087  0.0731110619469035 2.07156603982301  0.0731110619469035 4.53491980088496  C 0.0731110619469035 6.99799778761062  2.06987356194691 8.99503606194691  4.53322732300884 8.99503606194691  C 6.99630530973451 8.99503606194691  8.9933435840708 6.99799778761062  8.9933435840708 4.53491980088496  Z M 5.02867831858407 4.53491980088496  L 6.65511969026548 6.16125763274336  C 6.68280862831858 6.18893661504425  6.69992555309734 6.22717665929203  6.69992555309734 6.26940298672567  C 6.69991559734514 6.3116392699115  6.68279867256638 6.34986935840708  6.65510973451327 6.37752743362832  L 6.37570353982301 6.65685199115044  C 6.34802455752212 6.68452002212389  6.30979446902654 6.70163694690265  6.26757909292036 6.70162699115044  C 6.22534280973451 6.70162699115044  6.18712267699115 6.68450011061947  6.15945464601769 6.6568310840708  L 4.53322732300884 5.03036084070796  L 2.90676603982301 6.65683207964602  C 2.87908705752213 6.68450011061947  2.84085696902655 6.70162798672566  2.79863064159292 6.70161703539823  C 2.75639435840708 6.70161703539823  2.7181642699115 6.68449015486726  2.69049524336283 6.65681117256637  L 2.4112732300885 6.37752743362832  C 2.38360519911504 6.34984845132743  2.3664982300885 6.31162931415929  2.3664982300885 6.26940298672566  C 2.3664982300885 6.22717665929203  2.38361515486726 6.18895652654867  2.41129413716814 6.16128849557522  L 4.03765287610619 4.53492975663717  L 2.41129413716814 2.90843761061947  C 2.3836261061947 2.88076957964602  2.36650918141594 2.84253949115044  2.36650918141594 2.80031316371682  C 2.36650918141594 2.75808683628319  2.3836261061947 2.71985674778761  2.41130508849558 2.69218871681416  L 2.69049723451327 2.41299657079646  C 2.71817621681416 2.38532853982301  2.7563953539823 2.36821161504425  2.79862168141592 2.36821161504425  C 2.84084800884956 2.36821161504425  2.87907809734513 2.38532853982301  2.90674612831859 2.41299657079646  L 4.53321736725664 4.0393453539823  L 6.15946460176991 2.41297665929203  C 6.18713263274336 2.38530862831858  6.22535276548672 2.36819170353982  6.26756913716814 2.36818075221239  C 6.30979546460176 2.36818075221239  6.34802555309734 2.3852767699115  6.3756935840708 2.41294579646018  L 6.65507887168141 2.69218871681416  C 6.68276780973451 2.71985674778761  6.69989469026548 2.75808683628319  6.69989469026548 2.80032411504425  C 6.69989469026548 2.84256039823009  6.68277776548672 2.8808014380531  6.65509878318584 2.90846946902655  L 5.02867831858407 4.53491980088496  Z " fill-rule="nonzero" fill="#a1a1a1" stroke="none" transform="matrix(1 0 0 1 62 10 )" />
  </g>
</svg>