<?xml version="1.0" encoding="utf-8"?>
<svg version="1.1" xmlns:xlink="http://www.w3.org/1999/xlink" width="16px" height="16px" xmlns="http://www.w3.org/2000/svg">
  <g transform="matrix(1 0 0 1 -1 -1 )">
    <path d="M 1.33069596418393 0  C 1.33069596418393 0  14.6686567306326 0  14.6686567306326 0  C 14.9245229735403 3.67270129455534E-05  15.1749607735916 0.0741074421756497  15.3900042301822 0.213349563275653  C 15.6050476867729 0.352591684375657  15.7755887334295 0.551108118387822  15.8812234671145 0.785145776965714  C 15.9868582007995 1.01918343554361  16.0231120331621 1.27883031872676  15.9856469043876 1.53301954240426  C 15.948181775613 1.78720876608176  15.8385848175347 2.02517485552381  15.669968960145 2.2184445876644  C 15.669968960145 2.2184445876644  10.9776482885222 7.59807300253986  10.9776482885222 7.59807300253986  C 10.7648344871757 7.841896289744  10.6474813405277 8.15506581670952  10.6474286761911 8.47929893280584  C 10.6474286761911 8.47929893280584  10.6474286761911 12.7209543996752  10.6474286761911 12.7209543996752  C 10.6472479313912 12.9317267210134  10.5974587656439 13.139471171634  10.5021212022606 13.3272422164265  C 10.4067836388774 13.5150132612189  10.268598436658 13.6774932215389  10.0988376919554 13.801427314604  C 10.0988376919554 13.801427314604  7.43843561035657 15.7444051891394  7.43843561035657 15.7444051891394  C 7.23977121301468 15.8894405850686  7.00503338113783 15.9764674325709  6.76018358832152 15.9958604720191  C 6.51533379550521 16.0152535114672  6.26991388047394 15.9662570205633  6.05106663290987 15.8542901453952  C 5.83221938534579 15.7423232702271  5.64847300738972 15.5717486500863  5.52015003257955 15.3614325368366  C 5.39182705776937 15.1511164235868  5.32392779917794 14.9092546219389  5.32396195851882 14.6625957907466  C 5.32396195851882 14.6625957907466  5.32396195851882 8.50738166406538  5.32396195851882 8.50738166406538  C 5.32409915076281 8.1856796609821  5.2087498303562 7.87470965677849  4.99906809006082 7.63150294292575  C 4.99906809006082 7.63150294292575  0.325388831525255 2.21309578444996  0.325388831525255 2.21309578444996  C 0.158226017922322 2.01942810814102  0.0500048350963061 1.78159544387304  0.0136099503628195 1.5279149534869  C -0.0227849343706671 1.27423446310077  0.0141800787782154 1.01539400916186  0.120103871608811 0.782212017224441  C 0.226027664439406 0.54903002528702  0.396447519946539 0.351330491685316  0.611072640879751 0.21265262795785  C 0.825697761812963 0.0739747642303846  1.07548569714276 0.000161137341017858  1.33069596418393 0  Z M 9.97766876482647 6.7155086759042  C 9.97766876482647 6.7155086759042  14.665993858696 1.33721801976319  14.665993858696 1.33721801976319  L 1.33069596418393 1.33721801976319  C 1.33069596418393 1.33721801976319  6.00437557986433 6.7569626181558  6.00437557986433 6.7569626181558  C 6.42410247517248 7.24229648954701  6.65572106190211 7.86321727787458  6.65682618871692 8.50604390533093  C 6.65682618871692 8.50604390533093  6.65682618871692 14.6612580320122  6.65682618871692 14.6612580320122  L 9.31722827031579 12.7196179162112  C 9.31722827031579 12.7196179162112  9.31722827031579 8.47796244934187  9.31722827031579 8.47796244934187  C 9.31733359898913 7.82949621714923  9.55204116213344 7.20315525031248  9.97766876482647 6.7155086759042  Z " fill-rule="nonzero" fill="#2590ff" stroke="none" transform="matrix(1 0 0 1 1 1 )" />
  </g>
</svg>