<?xml version="1.0" encoding="utf-8"?>
<svg version="1.1" xmlns:xlink="http://www.w3.org/1999/xlink" width="18px" height="17px" xmlns="http://www.w3.org/2000/svg">
  <g transform="matrix(1 0 0 1 -30 -25 )">
    <path d="M 17.778309201455 16.7932937896215  C 18.0829927992848 16.5179060668486  18.0691621989662 16.0587944633439  17.7642690420088 15.7832083244244  C 17.7642690420088 15.7832083244244  13.7457564975973 12.0178570680755  13.7457564975973 12.0178570680755  C 13.6659588624098 11.941009879483  13.5653155234966 11.8864979254304  13.4549036007873 11.8603222117741  C 14.5774552197577 10.5877453105656  15.2423520101571 8.97390929093763  15.2423519925583 7.21603096723956  C 15.2423519925583 3.22767076796873  11.8336263662687 0  7.62128126256527 0  C 3.40893615886186 0  0 3.2274724471686  0 7.21603096723956  C 0 11.2043911665104  3.40872670043542 14.4318646140457  7.62128126256527 14.4318646307087  C 9.47788141394821 14.4318646307087  11.1685191951641 13.8021231819546  12.4987334031051 12.7656495451903  C 12.5402240082345 12.8575115809027  12.5957542105619 12.9493736960706  12.6789449883401 13.0279425332727  C 12.6789449883401 13.0279425332727  16.6974575327516 16.7932937896215  16.6974575327516 16.7932937896215  C 16.8425078622995 16.9258925862465  17.0362585683266 17  17.2378828300304 17  C 17.4395070917342 17  17.633258871907 16.9258925862465  17.778309201455 16.7932937896215  Z M 13.8568178001709 7.21603096723956  C 13.8568178001709 10.4827879680835  11.0714981863049 13.1198047278961  7.62128126256527 13.1198047278961  C 4.17085488039924 13.1198047278961  1.38574459069138 10.4827879680835  1.38574459069138 7.21603096723956  C 1.38574459069138 3.94927396639566  4.17106433882568 1.31205977568392  7.62128126256527 1.31205977568392  C 11.0714981863049 1.31205977568392  13.8568178001709 3.94927396639566  13.8568178001709 7.21603096723956  Z " fill-rule="nonzero" fill="#6b84a5" stroke="none" transform="matrix(1 0 0 1 30 25 )" />
  </g>
</svg>