<?xml version="1.0" encoding="utf-8"?>
<svg version="1.1" xmlns:xlink="http://www.w3.org/1999/xlink" width="19px" height="19px" xmlns="http://www.w3.org/2000/svg">
  <g transform="matrix(1 0 0 1 -1854 -284 )">
    <path d="M 18.8826493456051 4.22248131512016  C 18.8826493456051 4.22248131512016  14.2654057374758 0.146809214789064  14.2654057374758 0.146809214789064  C 14.1038033006829 0.00111718167340597  13.8734273005793 -0.0399798130430207  13.6714171273209 0.0408272035710086  C 13.4694126467921 0.121634220185038  13.3309343803778 0.310304284056174  13.3143778485322 0.527284314278475  C 13.3143778485322 0.527284314278475  13.3143778485322 18.0712228575066  13.3143778485322 18.0712228575066  C 13.3763852469356 18.6007719669735  13.8250261087831 19  14.3581327928559 19  C 14.8912338447602 19  15.3398803387763 18.6007719669735  15.4018877371796 18.0712228575066  C 15.4018877371796 18.0712228575066  15.4018877371796 5.0737759001667  15.4018877371796 5.0737759001667  C 15.4018877371796 5.0737759001667  18.4309150227067 5.0737759001667  18.4309150227067 5.0737759001667  C 18.6402994458316 5.09226290331442  18.8404152270584 4.98360182643069  18.9389584352457 4.79791479841668  C 19.0374959582736 4.61220875428669  19.0153233442992 4.3855583477804  18.8826493456051 4.22248131512016  Z M 0.951029948016008 3.26184793910437  C 0.951029948016008 3.26184793910437  10.0095773003574 3.26184793910437  10.0095773003574 3.26184793910437  C 10.5348205686059 3.26184793910437  10.9606071272515 2.83600297587234  10.9606071272515 2.31069839672532  C 10.9606071272515 1.78539381757829  10.5348205686059 1.35954897546802  10.0095773003574 1.35954897546802  C 10.0095773003574 1.35954897546802  0.951029948016008 1.35954897546802  0.951029948016008 1.35954897546802  C 0.425786679767552 1.35954897546802  0 1.78539381757829  0 2.31069839672532  C 0 2.83600297587234  0.425786679767552 3.26184793910437  0.951029948016008 3.26184793910437  Z M 0.951029948016008 10.3952826160749  C 0.951029948016008 10.3952826160749  10.0095773003574 10.3952826160749  10.0095773003574 10.3952826160749  C 10.5348205686059 10.3952826160749  10.9606071272515 9.96943741059939  10.9606071272515 9.44413283145237  C 10.9606071272515 8.91882825230534  10.5348205686059 8.49298401580386  10.0095773003574 8.49298401580386  C 10.0095773003574 8.49298401580386  0.951029948016008 8.49298401580386  0.951029948016008 8.49298401580386  C 0.425786679767552 8.49298401580386  0 8.91882825230534  0 9.44413283145237  C 0 9.96943741059939  0.425786679767552 10.3952826160749  0.951029948016008 10.3952826160749  Z M 10.0095773003574 15.6268414077092  C 10.0095773003574 15.6268414077092  0.951029948016008 15.6268414077092  0.951029948016008 15.6268414077092  C 0.425786679767552 15.6268414077092  0 16.0526866131847  0 16.5779911923318  C 0 17.1032957714788  0.425786679767552 17.5291400079803  0.951029948016008 17.5291400079803  C 0.951029948016008 17.5291400079803  10.0095773003574 17.5291400079803  10.0095773003574 17.5291400079803  C 10.5348205686059 17.5291400079803  10.9606071272515 17.1032957714788  10.9606071272515 16.5779911923318  C 10.9606071272515 16.0526866131847  10.5348205686059 15.6268414077092  10.0095773003574 15.6268414077092  Z " fill-rule="nonzero" fill="#666666" stroke="none" transform="matrix(1 0 0 1 1854 284 )" />
  </g>
</svg>