<?xml version="1.0" encoding="utf-8"?>
<svg version="1.1" xmlns:xlink="http://www.w3.org/1999/xlink" width="14px" height="14px" xmlns="http://www.w3.org/2000/svg">
  <g transform="matrix(1 0 0 1 -1802 -219 )">
    <path d="M 8.26804637908936 8.57939384056572  C 8.26804637908936 8.57939384056572  10.3524055480957 8.57939384056572  10.3524055480957 8.57939384056572  C 10.6689205467701 8.57939384056572  10.9159555435181 8.33853331282402  10.9159555435181 8.02993108278085  C 10.9159555435181 7.72132885273767  10.6689205467701 7.48046879745703  10.3524055480957 7.48046879745703  C 10.3524055480957 7.48046879745703  8.26804637908936 7.48046879745703  8.26804637908936 7.48046879745703  C 7.95153138041496 7.48046879745703  7.70449590682983 7.72132885273767  7.70449590682983 8.02993108278085  C 7.70835608057678 8.33853331282402  7.95539155602455 8.57939384056572  8.26804637908936 8.57939384056572  Z M 8.26804637908936 10.7707995579924  C 8.26804637908936 10.7707995579924  10.3524055480957 10.7707995579924  10.3524055480957 10.7707995579924  C 10.6689205467701 10.7707995579924  10.9159555435181 10.5299399751728  10.9159555435181 10.2213377451297  C 10.9159555435181 9.91273551508649  10.6689205467701 9.67187498734479  10.3524055480957 9.67187498734479  C 10.3524055480957 9.67187498734479  8.26804637908936 9.67187498734479  8.26804637908936 9.67187498734479  C 7.95153138041496 9.67187498734479  7.70449590682983 9.91273551508649  7.70449590682983 10.2213377451297  C 7.70835608057678 10.5299399751728  7.95539155602455 10.7707995579924  8.26804637908936 10.7707995579924  Z M 11.7612028121948 1.09893000394977  C 11.7612028121948 1.09893000394977  10.282844543457 1.09893000394977  10.282844543457 1.09893000394977  C 10.282844543457 1.09893000394977  10.282844543457 0.549458033174326  10.282844543457 0.549458033174326  C 10.282844543457 0.240856039361675  10.0358151197433 0  9.71930313110352 0  C 9.40277716517448 0  9.15574645996094 0.240856039361675  9.15574645996094 0.549458033174326  C 9.15574645996094 0.549458033174326  9.15574645996094 1.09893000394977  9.15574645996094 1.09893000394977  L 4.66279745101929 1.09893000394977  C 4.66279745101929 1.09893000394977  4.66279745101929 0.549458033174326  4.66279745101929 0.549458033174326  C 4.66279745101929 0.240856039361675  4.4157532453537 0  4.09924125671387 0  C 3.78272926807404 0  3.53569960594177 0.240856039361675  3.53569960594177 0.549458033174326  C 3.53569960594177 0.549458033174326  3.53569960594177 1.09893000394977  3.53569960594177 1.09893000394977  C 3.53569960594177 1.09893000394977  2.24648189544678 1.09893000394977  2.24648189544678 1.09893000394977  C 1.01130402088165 1.09893000394977  0 2.08495008381459  0 3.28924410010883  C 0 3.28924410010883  0 11.8096724387009  0 11.8096724387009  C 0 13.0139805107115  1.01130402088165 14  2.24648189544678 14  C 2.24648189544678 14  11.753475189209 14  11.753475189209 14  C 12.9886530637741 14  13.9999570846558 13.0139805107115  13.9999570846558 11.8096724387009  C 13.9999570846558 11.8096724387009  13.9999570846558 3.28924410010883  13.9999570846558 3.28924410010883  C 14.007671084255 2.08495008381459  12.9963666200638 1.09893000394977  11.7612028121948 1.09893000394977  Z M 12.8828992843628 11.8105757842381  C 12.8828992843628 12.4127278122839  12.3772519230843 12.9057357851992  11.7596626281738 12.9057357851992  C 11.7596626281738 12.9057357851992  2.2488009929657 12.9057357851992  2.2488009929657 12.9057357851992  C 1.63121169805527 12.9057357851992  1.12556409835815 12.4127278122839  1.12556409835815 11.8105757842381  C 1.12556409835815 11.8105757842381  1.12556409835815 5.48046886495146  1.12556409835815 5.48046886495146  L 12.8828992843628 5.48046886495146  C 12.8828992843628 5.48046886495146  12.8828992843628 11.8105757842381  12.8828992843628 11.8105757842381  Z M 12.8906202316284 4.38563486211832  L 1.12556409835815 4.38563486211832  C 1.12556409835815 4.38563486211832  1.12556409835815 3.29047368000456  1.12556409835815 3.29047368000456  C 1.12556409835815 2.68832336463005  1.63121432065964 2.1953124978908  2.24879741668701 2.1953124978908  C 2.24879741668701 2.1953124978908  3.53801226615906 2.1953124978908  3.53801226615906 2.1953124978908  C 3.53801226615906 2.1953124978908  3.53801226615906 2.74477454698409  3.53801226615906 2.74477454698409  C 3.53801226615906 3.05337786959346  3.78505483269691 3.29423683230791  4.10157012939453 3.29423683230791  C 4.41808542609215 3.29423683230791  4.66511678695679 3.05337786959346  4.66511678695679 2.74477454698409  C 4.66511678695679 2.74477454698409  4.66511678695679 2.1953124978908  4.66511678695679 2.1953124978908  L 9.16193294525146 2.1953124978908  C 9.16193294525146 2.1953124978908  9.16193294525146 2.74477454698409  9.16193294525146 2.74477454698409  C 9.16193294525146 3.05337786959346  9.40896382927895 3.29423683230791  9.72547912597656 3.29423683230791  C 10.0419944226742 3.29423683230791  10.2890243530273 3.05337786959346  10.2890243530273 2.74477454698409  C 10.2890243530273 2.74477454698409  10.2890243530273 2.1953124978908  10.2890243530273 2.1953124978908  C 10.2890243530273 2.1953124978908  11.7673864364624 2.1953124978908  11.7673864364624 2.1953124978908  C 12.3849695324898 2.1953124978908  12.8906202316284 2.68832336463005  12.8906202316284 3.29047368000456  C 12.8906202316284 3.29047368000456  12.8906202316284 4.38563486211832  12.8906202316284 4.38563486211832  Z M 3.36169052124023 10.7707995579924  C 3.36169052124023 10.7707995579924  5.44604969024658 10.7707995579924  5.44604969024658 10.7707995579924  C 5.76256468892097 10.7707995579924  6.00959968566895 10.5299399751728  6.00959968566895 10.2213377451297  C 6.00959968566895 9.91273551508649  5.76256468892097 9.67187498734479  5.44604969024658 9.67187498734479  C 5.44604969024658 9.67187498734479  3.36169052124023 9.67187498734479  3.36169052124023 9.67187498734479  C 3.04517552256584 9.67187498734479  2.79814052581787 9.91273551508649  2.79814052581787 10.2213377451297  C 2.79814052581787 10.5299399751728  3.04517552256584 10.7707995579924  3.36169052124023 10.7707995579924  Z M 3.36169052124023 8.57939384056572  C 3.36169052124023 8.57939384056572  5.44604969024658 8.57939384056572  5.44604969024658 8.57939384056572  C 5.76256468892097 8.57939384056572  6.00959968566895 8.33853331282402  6.00959968566895 8.02993108278085  C 6.00959968566895 7.72132885273767  5.76256468892097 7.48046879745703  5.44604969024658 7.48046879745703  C 5.44604969024658 7.48046879745703  3.36169052124023 7.48046879745703  3.36169052124023 7.48046879745703  C 3.04517552256584 7.48046879745703  2.79814052581787 7.72132885273767  2.79814052581787 8.02993108278085  C 2.79814052581787 8.33853331282402  3.04517552256584 8.57939384056572  3.36169052124023 8.57939384056572  Z " fill-rule="nonzero" fill="#6b84a5" stroke="none" transform="matrix(1 0 0 1 1802 219 )" />
  </g>
</svg>