<?xml version="1.0" encoding="utf-8"?>
<svg version="1.1" xmlns:xlink="http://www.w3.org/1999/xlink" width="1648px" height="956px" xmlns="http://www.w3.org/2000/svg">
  <defs>
    <filter x="266px" y="114px" width="1648px" height="956px" filterUnits="userSpaceOnUse" id="filter148">
      <feOffset dx="0" dy="2" in="SourceAlpha" result="shadowOffsetInner" />
      <feGaussianBlur stdDeviation="7" in="shadowOffsetInner" result="shadowGaussian" />
      <feComposite in2="shadowGaussian" operator="atop" in="SourceAlpha" result="shadowComposite" />
      <feColorMatrix type="matrix" values="0 0 0 0 0  0 0 0 0 0  0 0 0 0 0  0 0 0 0.0274509803921569 0  " in="shadowComposite" />
    </filter>
    <g id="widget149">
      <path d="M 8.24418067932129 0  C 8.24418067932129 0  1611.755859375 0  1611.755859375 0  C 1616.30967950821 0  1620 3.49855972513482  1620 7.81468792846605  C 1620 7.81468792846605  1620 920.18537586412  1620 920.18537586412  C 1620 924.501504067451  1616.30967950821 928  1611.755859375 928  C 1611.755859375 928  8.24418067932129 928  8.24418067932129 928  C 3.69036054611206 928  0 924.501504067451  0 920.18537586412  C 0 920.18537586412  0 7.81468792846605  0 7.81468792846605  C 0 3.49855972513482  3.69036054611206 0  8.24418067932129 0  Z " fill-rule="nonzero" fill="#ffffff" stroke="none" transform="matrix(1 0 0 1 280 126 )" />
    </g>
  </defs>
  <g transform="matrix(1 0 0 1 -266 -114 )">
    <use xlink:href="#widget149" filter="url(#filter148)" />
    <use xlink:href="#widget149" />
  </g>
</svg>