<?xml version="1.0" encoding="utf-8"?>
<svg version="1.1" xmlns:xlink="http://www.w3.org/1999/xlink" width="100px" height="34px" xmlns="http://www.w3.org/2000/svg">
  <defs>
    <mask fill="white" id="clip157">
      <path d="M 96.3636016845703 0  C 98.3719017288902 0  100 1.52224797010422  100 3.4  C 100 3.4  100 30.6  100 30.6  C 100 32.4777860760689  98.3719017288902 34  96.3636016845703 34  C 96.3636016845703 34  3.63640004938299 34  3.63640004938299 34  C 1.62810000506314 34  0 32.4777520298958  0 30.6  C 0 30.6  0 3.4  0 3.4  C 0 1.52224797010422  1.62810000506314 0  3.63640004938299 0  C 3.63640004938299 0  96.3636016845703 0  96.3636016845703 0  Z " fill-rule="evenodd" />
    </mask>
  </defs>
  <g transform="matrix(1 0 0 1 -1384 -293 )">
    <path d="M 96.3636016845703 0  C 98.3719017288902 0  100 1.52224797010422  100 3.4  C 100 3.4  100 30.6  100 30.6  C 100 32.4777860760689  98.3719017288902 34  96.3636016845703 34  C 96.3636016845703 34  3.63640004938299 34  3.63640004938299 34  C 1.62810000506314 34  0 32.4777520298958  0 30.6  C 0 30.6  0 3.4  0 3.4  C 0 1.52224797010422  1.62810000506314 0  3.63640004938299 0  C 3.63640004938299 0  96.3636016845703 0  96.3636016845703 0  Z " fill-rule="nonzero" fill="#ffffff" stroke="none" fill-opacity="0" transform="matrix(1 0 0 1 1384 293 )" />
    <path d="M 96.3636016845703 0  C 98.3719017288902 0  100 1.52224797010422  100 3.4  C 100 3.4  100 30.6  100 30.6  C 100 32.4777860760689  98.3719017288902 34  96.3636016845703 34  C 96.3636016845703 34  3.63640004938299 34  3.63640004938299 34  C 1.62810000506314 34  0 32.4777520298958  0 30.6  C 0 30.6  0 3.4  0 3.4  C 0 1.52224797010422  1.62810000506314 0  3.63640004938299 0  C 3.63640004938299 0  96.3636016845703 0  96.3636016845703 0  Z " stroke-width="2" stroke="#d9eafc" fill="none" transform="matrix(1 0 0 1 1384 293 )" mask="url(#clip157)" />
  </g>
</svg>