<?xml version="1.0" encoding="utf-8"?>
<svg version="1.1" xmlns:xlink="http://www.w3.org/1999/xlink" width="34px" height="34px" xmlns="http://www.w3.org/2000/svg">
  <defs>
    <mask fill="white" id="clip150">
      <path d="M 30.6 0  C 32.4777520298958 0  34 1.52224797010422  34 3.4  C 34 3.4  34 30.6  34 30.6  C 34 32.4777860760689  32.4777860760689 34  30.6 34  C 30.6 34  3.4 34  3.4 34  C 1.52224797010422 34  0 32.4777520298958  0 30.6  C 0 30.6  0 3.4  0 3.4  C 0 1.52224797010422  1.52224797010422 0  3.4 0  C 3.4 0  30.6 0  30.6 0  Z " fill-rule="evenodd" />
    </mask>
  </defs>
  <g transform="matrix(1 0 0 1 -1802 -276 )">
    <path d="M 30.6 0  C 32.4777520298958 0  34 1.52224797010422  34 3.4  C 34 3.4  34 30.6  34 30.6  C 34 32.4777860760689  32.4777860760689 34  30.6 34  C 30.6 34  3.4 34  3.4 34  C 1.52224797010422 34  0 32.4777520298958  0 30.6  C 0 30.6  0 3.4  0 3.4  C 0 1.52224797010422  1.52224797010422 0  3.4 0  C 3.4 0  30.6 0  30.6 0  Z " fill-rule="nonzero" fill="#ffffff" stroke="none" transform="matrix(1 0 0 1 1802 276 )" />
    <path d="M 30.6 0  C 32.4777520298958 0  34 1.52224797010422  34 3.4  C 34 3.4  34 30.6  34 30.6  C 34 32.4777860760689  32.4777860760689 34  30.6 34  C 30.6 34  3.4 34  3.4 34  C 1.52224797010422 34  0 32.4777520298958  0 30.6  C 0 30.6  0 3.4  0 3.4  C 0 1.52224797010422  1.52224797010422 0  3.4 0  C 3.4 0  30.6 0  30.6 0  Z " stroke-width="2" stroke="#dadada" fill="none" transform="matrix(1 0 0 1 1802 276 )" mask="url(#clip150)" />
  </g>
</svg>