<?xml version="1.0" encoding="utf-8"?>
<svg version="1.1" xmlns:xlink="http://www.w3.org/1999/xlink" width="10px" height="6px" xmlns="http://www.w3.org/2000/svg">
  <g transform="matrix(1 0 0 1 -378 -97 )">
    <path d="M 5.66408014297485 5.70080995559692  C 5.50689014792442 5.88923396170139  5.26114994287491 6  5.00030994415283 6  C 4.73947995901108 6  4.49374023079872 5.88923396170139  4.33655023574829 5.70080995559692  C 4.33655023574829 5.70080995559692  0.0844400003552437 0.603887975215912  0.0844400003552437 0.603887975215912  C -0.0109800025820732 0.48991197347641  -0.0268300026655197 0.336833998560905  0.0435400009155273 0.208793997764587  C 0.113910004496574 0.0807479918003082  0.258340001106262 -0.000144000005093403  0.416319996118546 0  C 0.416319996118546 0  9.58347988128662 0  9.58347988128662 0  C 9.74130988121033 -0.000216000000364147  9.88566961884499 0.0804600119590759  9.95617961883545 0.208284005522728  C 10.0266996175051 0.33610799908638  10.0112101510167 0.489054031670094  9.9161901473999 0.603138029575348  L 5.66408014297485 5.70080995559692  Z " fill-rule="nonzero" fill="#6b84a5" stroke="none" transform="matrix(1 0 0 1 378 97 )" />
  </g>
</svg>