<?xml version="1.0" encoding="utf-8"?>
<svg version="1.1" xmlns:xlink="http://www.w3.org/1999/xlink" width="4px" height="8px" xmlns="http://www.w3.org/2000/svg">
  <g transform="matrix(1 0 0 1 -1607 -257 )">
    <path d="M 3.31761598622817 0.134935997343704  C 3.31761598622817 0.134935997343704  0.117459999619248 3.69049618438337  0.117459999619248 3.69049618438337  C -0.0391519996534602 3.86184817953651  -0.0391519996534602 4.14457603646912  0.117459999619248 4.31592803162226  C 0.117459999619248 4.31592803162226  3.31761598622817 7.8714878994938  3.31761598622817 7.8714878994938  C 3.47422798550088 8.04283989464694  3.72650406149647 8.04283989464694  3.88312006142805 7.8714878994938  C 4.03896005999701 7.69156789987783  4.03896005999701 7.41739967243648  3.88312006142805 7.2374796728205  C 3.88312006142805 7.2374796728205  0.964559956494904 3.9989280036376  0.964559956494904 3.9989280036376  C 0.964559956494904 3.9989280036376  3.88312006142805 0.760375976986395  3.88312006142805 0.760375976986395  C 4.03896005999701 0.589023981833257  4.03896005999701 0.306287992496843  3.88312006142805 0.134935997343704  C 3.72650406149647 -0.0449759975357157  3.47422798550088 -0.0449759975357157  3.31761598622817 0.134935997343704  Z " fill-rule="nonzero" fill="#6b84a5" stroke="none" transform="matrix(1 0 0 1 1607 257 )" />
  </g>
</svg>