<?xml version="1.0" encoding="utf-8"?>
<svg version="1.1" xmlns:xlink="http://www.w3.org/1999/xlink" width="20px" height="19px" xmlns="http://www.w3.org/2000/svg">
  <g transform="matrix(1 0 0 1 -1809 -284 )">
    <path d="M 14.1402403513591 19  C 14.1402403513591 19  5.85976004600525 19  5.85976004600525 19  C 5.24470006426175 18.9987650000469  4.67904013892015 18.6545994227583  4.38342014948527 18.1017564426769  C 4.38342014948527 18.1017564426769  0.213679994146029 10.3517505905845  0.213679994146029 10.3517505905845  C -0.0712200005849202 9.82146059924906  -0.0712200005849202 9.17853940075094  0.213679994146029 8.6482494094155  C 0.213679994146029 8.6482494094155  4.38342014948527 0.898243969137018  4.38342014948527 0.898243969137018  C 4.67904013892015 0.345400989055634  5.24470006426175 0.00123499995309182  5.85976004600525 0  C 5.85976004600525 0  14.1402403513591 0  14.1402403513591 0  C 14.7553003331025 0.00123499995309182  15.3209606558085 0.345400989055634  15.6165806452433 0.898243969137018  C 15.6165806452433 0.898243969137018  19.786319732666 8.6482494094155  19.786319732666 8.6482494094155  C 20.071219727397 9.17853940075094  20.071219727397 9.82146059924906  19.786319732666 10.3517505905845  C 19.786319732666 10.3517505905845  15.6165806452433 18.1017564426769  15.6165806452433 18.1017564426769  C 15.3209606558085 18.6545994227583  14.7553003331025 18.9987650000469  14.1402403513591 19  Z " fill-rule="nonzero" fill="#666666" stroke="none" transform="matrix(1 0 0 1 1809 284 )" />
  </g>
</svg>