<?xml version="1.0" encoding="utf-8"?>
<svg version="1.1" xmlns:xlink="http://www.w3.org/1999/xlink" width="7px" height="7px" xmlns="http://www.w3.org/2000/svg">
  <defs>
    <mask fill="white" id="clip151">
      <path d="M 7 3.5  C 7 1.56695008277893  5.4330499904676 0  3.5 0  C 1.5669500095324 0  0 1.56695008277893  0 3.5  C 0 5.43304991722107  1.5669500095324 7  3.5 7  C 5.4330499904676 7  7 5.43304991722107  7 3.5  Z " fill-rule="evenodd" />
    </mask>
  </defs>
  <g transform="matrix(1 0 0 1 -1816 -290 )">
    <path d="M 7 3.5  C 7 1.56695008277893  5.4330499904676 0  3.5 0  C 1.5669500095324 0  0 1.56695008277893  0 3.5  C 0 5.43304991722107  1.5669500095324 7  3.5 7  C 5.4330499904676 7  7 5.43304991722107  7 3.5  Z " fill-rule="nonzero" fill="#ffffff" stroke="none" fill-opacity="0" transform="matrix(1 0 0 1 1816 290 )" />
    <path d="M 7 3.5  C 7 1.56695008277893  5.4330499904676 0  3.5 0  C 1.5669500095324 0  0 1.56695008277893  0 3.5  C 0 5.43304991722107  1.5669500095324 7  3.5 7  C 5.4330499904676 7  7 5.43304991722107  7 3.5  Z " stroke-width="4" stroke="#666666" fill="none" transform="matrix(1 0 0 1 1816 290 )" mask="url(#clip151)" />
  </g>
</svg>