<?xml version="1.0" encoding="utf-8"?>
<svg version="1.1" xmlns:xlink="http://www.w3.org/1999/xlink" width="16px" height="15px" xmlns="http://www.w3.org/2000/svg">
  <g transform="matrix(1 0 0 1 -1811 -286 )">
    <path d="M 12.070640284289 0.120465003860755  C 12.0312642845998 0.0464100021716749  11.9556482785446 0.000224999990574328  11.8733762803074 0  C 11.8733762803074 0  4.12662409208131 0  4.12662409208131 0  C 4.0443520938442 0.000224999990574328  3.96873608778897 0.0464100021716749  3.92936008809973 0.120465003860755  C 3.92936008809973 0.120465003860755  0.0285439993136875 7.38608995560131  0.0285439993136875 7.38608995560131  C -0.00952000207048146 7.45709995536002  -0.00952000207048146 7.54313974325977  0.0285439993136875 7.6141347403642  C 0.0285439993136875 7.6141347403642  3.92936008809973 14.8797606331639  3.92936008809973 14.8797606331639  C 3.96880008919642 14.9537406336465  4.04440009126317 14.9998199999958  4.12662409208131 15  C 4.12662409208131 15  11.8733762803074 15  11.8733762803074 15  C 11.9556002811256 14.9998199999958  12.0312002831923 14.9537406336465  12.070640284289 14.8797606331639  C 12.070640284289 14.8797606331639  15.9714556573904 7.6141347403642  15.9714556573904 7.6141347403642  C 16.0095196587746 7.54313974325977  16.0095196587746 7.45709995536002  15.9714556573904 7.38608995560131  C 15.9714556573904 7.38608995560131  12.070640284289 0.120465003860755  12.070640284289 0.120465003860755  Z " fill-rule="nonzero" fill="#ffffff" stroke="none" transform="matrix(1 0 0 1 1811 286 )" />
  </g>
</svg>