<?xml version="1.0" encoding="utf-8"?>
<svg version="1.1" xmlns:xlink="http://www.w3.org/1999/xlink" width="490px" height="32px" viewBox="1344 283  490 32" xmlns="http://www.w3.org/2000/svg">
  <path d="M 1344.5 287  A 3.5 3.5 0 0 1 1348 283.5 L 1830 283.5  A 3.5 3.5 0 0 1 1833.5 287 L 1833.5 311  A 3.5 3.5 0 0 1 1830 314.5 L 1348 314.5  A 3.5 3.5 0 0 1 1344.5 311 L 1344.5 287  Z " fill-rule="nonzero" fill="#ffffff" stroke="none" fill-opacity="0" />
  <path d="M 1344.5 287  A 3.5 3.5 0 0 1 1348 283.5 L 1830 283.5  A 3.5 3.5 0 0 1 1833.5 287 L 1833.5 311  A 3.5 3.5 0 0 1 1830 314.5 L 1348 314.5  A 3.5 3.5 0 0 1 1344.5 311 L 1344.5 287  Z " stroke-width="1" stroke="#2590ff" fill="none" />
</svg>