<?xml version="1.0" encoding="utf-8"?>
<svg version="1.1" xmlns:xlink="http://www.w3.org/1999/xlink" width="58px" height="34px" xmlns="http://www.w3.org/2000/svg">
  <defs>
    <mask fill="white" id="clip147">
      <path d="M 55.8908889770508 0  C 57.0557030027563 0  58 1.52224797010422  58 3.4  C 58 3.4  58 30.6  58 30.6  C 58 32.4777860760689  57.0557030027563 34  55.8908889770508 34  C 55.8908889770508 34  2.10911202864213 34  2.10911202864213 34  C 0.944298002936623 34  0 32.4777520298958  0 30.6  C 0 30.6  0 3.4  0 3.4  C 0 1.52224797010422  0.944298002936623 0  2.10911202864213 0  C 2.10911202864213 0  55.8908889770508 0  55.8908889770508 0  Z " fill-rule="evenodd" />
    </mask>
  </defs>
  <g transform="matrix(1 0 0 1 -1744 -120 )">
    <path d="M 55.8908889770508 0  C 57.0557030027563 0  58 1.52224797010422  58 3.4  C 58 3.4  58 30.6  58 30.6  C 58 32.4777860760689  57.0557030027563 34  55.8908889770508 34  C 55.8908889770508 34  2.10911202864213 34  2.10911202864213 34  C 0.944298002936623 34  0 32.4777520298958  0 30.6  C 0 30.6  0 3.4  0 3.4  C 0 1.52224797010422  0.944298002936623 0  2.10911202864213 0  C 2.10911202864213 0  55.8908889770508 0  55.8908889770508 0  Z " fill-rule="nonzero" fill="#ffffff" stroke="none" transform="matrix(1 0 0 1 1744 120 )" />
    <path d="M 55.8908889770508 0  C 57.0557030027563 0  58 1.52224797010422  58 3.4  C 58 3.4  58 30.6  58 30.6  C 58 32.4777860760689  57.0557030027563 34  55.8908889770508 34  C 55.8908889770508 34  2.10911202864213 34  2.10911202864213 34  C 0.944298002936623 34  0 32.4777520298958  0 30.6  C 0 30.6  0 3.4  0 3.4  C 0 1.52224797010422  0.944298002936623 0  2.10911202864213 0  C 2.10911202864213 0  55.8908889770508 0  55.8908889770508 0  Z " stroke-width="2" stroke="#2064d0" fill="none" transform="matrix(1 0 0 1 1744 120 )" mask="url(#clip147)" />
  </g>
</svg>