<?xml version="1.0" encoding="utf-8"?>
<svg version="1.1" xmlns:xlink="http://www.w3.org/1999/xlink" width="51px" height="43px" xmlns="http://www.w3.org/2000/svg">
  <g transform="matrix(1 0 0 1 -890 -380 )">
    <path d="M 50 37.2235  C 50.4242461953855 39.909919541198  48.2464210201256 42.0864248224122  45.56 42  L 5.44 42  C 2.75357897987442 42.0864248224122  0.575753804614539 39.909919541198  1 37.2235  L 1 5.7765  C 0.575753804614544 3.09008045880203  2.75357897987441 0.91357517758777  5.44 1  L 22.75945 1  C 24.89748152583 0.918363560163202  26.9135823291216 1.90846163409486  28.2258 3.59645  L 30.928 7.0922  C 31.636605357626 8.0033150852997  32.7237904650856 8.53929734327727  33.878 9  L 45.56 9  C 48.2464210201256 8.54817517758778  50.4242461953855 10.724680458802  50 13.4111  L 50 37.2235  Z M 22.75945 4  L 5.44 4  C 4.21922111118203 3.56694891486273  3.22912770518461 4.55572219631882  4 5.7765  L 4 37.2235  C 3.22912770518461 38.4442778036812  4.21922111118204 39.4330510851373  5.44 39  L 45.56 39  C 46.7796270012404 39.4314249118927  47.7679249118927 38.4431270012404  47 37.2235  L 47 13.4111  C 47.7679249118927 12.1914729987596  46.7796270012404 11.2031750881073  45.56 12  L 33.8898 12  C 31.909719913669 11.1953286674253  30.0426866161695 10.2781322398075  28.8276 8.7147  L 26.1254 5.21895  C 25.3171095853237 4.18003028612185  24.0757603373335 3.57077912146412  22.75945 4  Z " fill-rule="nonzero" fill="#4d4d4d" stroke="none" transform="matrix(1 0 0 1 890 380 )" />
  </g>
</svg>