<?xml version="1.0" encoding="utf-8"?>
<svg version="1.1" xmlns:xlink="http://www.w3.org/1999/xlink" width="1312px" height="170px" xmlns="http://www.w3.org/2000/svg">
  <g transform="matrix(1 0 0 1 -260 -346 )">
    <path d="M 261 350  A 3 3 0 0 1 264 347 L 1568 347  A 3 3 0 0 1 1571 350 L 1571 512  A 3 3 0 0 1 1568 515 L 264 515  A 3 3 0 0 1 261 512 L 261 350  Z " fill-rule="nonzero" fill="#f2f2f2" stroke="none" fill-opacity="0.411764705882353" />
    <path d="M 260.5 350  A 3.5 3.5 0 0 1 264 346.5 L 1568 346.5  A 3.5 3.5 0 0 1 1571.5 350 L 1571.5 512  A 3.5 3.5 0 0 1 1568 515.5 L 264 515.5  A 3.5 3.5 0 0 1 260.5 512 L 260.5 350  Z " stroke-width="1" stroke-dasharray="9,4" stroke="#2590ff" fill="none" stroke-dashoffset="0.5" />
  </g>
</svg>