<?xml version="1.0" encoding="utf-8"?>
<svg version="1.1" xmlns:xlink="http://www.w3.org/1999/xlink" width="14px" height="14px" xmlns="http://www.w3.org/2000/svg">
  <defs>
    <mask fill="white" id="clip129">
      <path d="M 0 2  C 0 0.895430500338414  0.895430500338421 0  2 0  C 2 0  12 0  12 0  C 13.1045694996616 0  14 0.895430500338413  14 2  C 14 2  14 12  14 12  C 14 13.1045694996616  13.1045694996616 14  12 14  C 12 14  2 14  2 14  C 0.895430500338421 14  0 13.1045694996616  0 12  C 0 12  0 2  0 2  Z M 13 12  C 13 12  13 2  13 2  C 13 1.44771525016921  12.5522847498308 1  12 1  C 12 1  2 1  2 1  C 1.44771525016921 1  1 1.44771525016921  1 2  C 1 2  1 12  1 12  C 1 12.5522847498308  1.44771525016921 13  2 13  C 2 13  12 13  12 13  C 12.5522847498308 13  13 12.5522847498308  13 12  Z " fill-rule="evenodd" />
    </mask>
  </defs>
  <g>
    <path d="M 0 2  C 0 0.895430500338414  0.895430500338421 0  2 0  C 2 0  12 0  12 0  C 13.1045694996616 0  14 0.895430500338413  14 2  C 14 2  14 12  14 12  C 14 13.1045694996616  13.1045694996616 14  12 14  C 12 14  2 14  2 14  C 0.895430500338421 14  0 13.1045694996616  0 12  C 0 12  0 2  0 2  Z M 13 12  C 13 12  13 2  13 2  C 13 1.44771525016921  12.5522847498308 1  12 1  C 12 1  2 1  2 1  C 1.44771525016921 1  1 1.44771525016921  1 2  C 1 2  1 12  1 12  C 1 12.5522847498308  1.44771525016921 13  2 13  C 2 13  12 13  12 13  C 12.5522847498308 13  13 12.5522847498308  13 12  Z " fill-rule="nonzero" fill="#f2f2f2" stroke="none" />
    <path d="M 0 2  C 0 0.895430500338414  0.895430500338421 0  2 0  C 2 0  12 0  12 0  C 13.1045694996616 0  14 0.895430500338413  14 2  C 14 2  14 12  14 12  C 14 13.1045694996616  13.1045694996616 14  12 14  C 12 14  2 14  2 14  C 0.895430500338421 14  0 13.1045694996616  0 12  C 0 12  0 2  0 2  Z " stroke-width="2" stroke="#d5e1f7" fill="none" mask="url(#clip129)" />
    <path d="M 13 12  C 13 12  13 2  13 2  C 13 1.44771525016921  12.5522847498308 1  12 1  C 12 1  2 1  2 1  C 1.44771525016921 1  1 1.44771525016921  1 2  C 1 2  1 12  1 12  C 1 12.5522847498308  1.44771525016921 13  2 13  C 2 13  12 13  12 13  C 12.5522847498308 13  13 12.5522847498308  13 12  Z " stroke-width="2" stroke="#d5e1f7" fill="none" mask="url(#clip129)" />
  </g>
</svg>