<?xml version="1.0" encoding="utf-8"?>
<svg version="1.1" xmlns:xlink="http://www.w3.org/1999/xlink" width="8px" height="6px" xmlns="http://www.w3.org/2000/svg">
  <g transform="matrix(1 0 0 1 -3 -4 )">
    <path d="M 7.75510204081633 0.256849315068493  C 8.08163265306122 0.606164383561644  8.08163265306122 1.20205479452055  7.75510204081633 1.45547945205479  C 7.75510204081633 1.45547945205479  3.6734693877551 5.74315068493151  3.6734693877551 5.74315068493151  C 3.3469387755102 6.08561643835616  2.85714285714286 6.08561643835616  2.53061224489796 5.74315068493151  C 2.53061224489796 5.74315068493151  0.244897959183673 3.3458904109589  0.244897959183673 3.3458904109589  C -0.0816326530612245 3.00342465753425  -0.0816326530612245 2.48972602739726  0.244897959183673 2.1472602739726  C 0.571428571428571 1.80479452054794  1.06122448979592 1.80479452054794  1.38775510204082 2.1472602739726  C 1.38775510204082 2.1472602739726  3.09877551020408 3.94178082191781  3.09877551020408 3.94178082191781  C 3.09877551020408 3.94178082191781  6.61224489795918 0.256849315068493  6.61224489795918 0.256849315068493  C 6.93877551020408 -0.0856164383561645  7.42857142857143 -0.0856164383561645  7.75510204081633 0.256849315068493  Z " fill-rule="nonzero" fill="#9da5b7" stroke="none" transform="matrix(1 0 0 1 3 4 )" />
  </g>
</svg>