<?xml version="1.0" encoding="utf-8"?>
<svg version="1.1" xmlns:xlink="http://www.w3.org/1999/xlink" width="20px" height="20px" xmlns="http://www.w3.org/2000/svg">
  <g transform="matrix(1 0 0 1 -1507 -635 )">
    <path d="M 18.942692 18.9621726668423  C 19.2714181333333 18.6341689335645  19.2792370666667 18.1040670669876  18.9603278666667 17.7665109337114  L 14.7469945333333 13.5478442677589  C 17.5370849333333 10.1195598683392  17.1532029333333 5.10662953585442  13.8736417333333 2.14314901635607  C 10.5940805333333 -0.820331489808954  5.56801205333333 -0.695946156496676  2.43905649333333 2.42613257630816  C -0.689899053333334 5.54821130911301  -0.825342533333333 10.5739938682623  2.13091505333333 13.860067467706  C 5.08717264 17.1461410671498  10.0992462666667 17.5410516004162  13.5336612 14.7585109342206  L 17.7469945333333 18.9771776001731  C 18.0838481333333 19.296828800119  18.6139658666667 19.2901762667868  18.942692 18.9621726668423  Z M 5.69562565333333 14.3242068009608  C 3.31022853333333 13.2840694678035  1.76957058666667 10.9274820015358  1.77365302666667 8.3251776153096  C 1.76908610666667 5.39158702913952  3.71851174666667 2.81386477624253  6.54247565333333 2.01938218971035  C 9.3664396 1.22489960317817  12.3739370666667 2.40806114964456  13.8996157333333 4.91371057588708  C 15.4252945333333 7.4193600021296  15.0958313333333 10.6343820015854  13.0936612 12.7785109345558  C 13.0244345333333 12.8172174678825  12.9614934666667 12.8662216012076  12.9069945333333 12.9238442678645  C 12.8514577333333 12.9824813345212  12.8022941333333 13.0468409345103  12.7603278666667 13.115844267832  C 10.8562364 14.8896653341984  8.08102277333333 15.364344134118  5.69562565333333 14.3242068009608  Z " fill-rule="nonzero" fill="#2590ff" stroke="none" transform="matrix(1 0 0 1 1507 635 )" />
  </g>
</svg>