<?xml version="1.0" encoding="utf-8"?>
<svg version="1.1" xmlns:xlink="http://www.w3.org/1999/xlink" width="1652px" height="1027px" xmlns="http://www.w3.org/2000/svg">
  <defs>
    <filter x="276px" y="64px" width="1652px" height="1027px" filterUnits="userSpaceOnUse" id="filter138">
      <feOffset dx="0" dy="2" in="SourceAlpha" result="shadowOffsetInner" />
      <feGaussianBlur stdDeviation="7" in="shadowOffsetInner" result="shadowGaussian" />
      <feComposite in2="shadowGaussian" operator="atop" in="SourceAlpha" result="shadowComposite" />
      <feColorMatrix type="matrix" values="0 0 0 0 0  0 0 0 0 0  0 0 0 0 0  0 0 0 0.0274509803921569 0  " in="shadowComposite" />
    </filter>
    <g id="widget139">
      <path d="M 8.26453668099863 0  C 8.26453668099863 0  1615.73550347222 0  1615.73550347222 0  C 1620.30056760576 0  1624 3.76622970410526  1624 8.41257892299308  C 1624 8.41257892299308  1624 990.587489750276  1624 990.587489750276  C 1624 995.233838969164  1620.30056760576 999  1615.73550347222 999  C 1615.73550347222 999  8.26453668099863 999  8.26453668099863 999  C 3.69947254746049 999  0 995.233838969164  0 990.587489750276  C 0 990.587489750276  0 8.41257892299308  0 8.41257892299308  C 0 3.76622970410526  3.69947254746049 0  8.26453668099863 0  Z " fill-rule="nonzero" fill="#ffffff" stroke="none" transform="matrix(1 0 0 1 290 76 )" />
    </g>
  </defs>
  <g transform="matrix(1 0 0 1 -276 -64 )">
    <use xlink:href="#widget139" filter="url(#filter138)" />
    <use xlink:href="#widget139" />
  </g>
</svg>