<?xml version="1.0" encoding="utf-8"?>
<svg version="1.1" xmlns:xlink="http://www.w3.org/1999/xlink" width="14px" height="14px" xmlns="http://www.w3.org/2000/svg">
  <defs>
    <mask fill="white" id="clip117">
      <path d="M 11.6659055703711 0  C 12.9549835298083 0  14 1.04469394909498  14 2.33340788113298  C 14 2.33340788113298  14 11.6665915625402  14 11.6665915625402  C 14 12.9553054945782  12.9549835298083 14  11.6659055703711 14  C 11.6659055703711 14  2.33409401225953 14  2.33409401225953 14  C 1.04501605282227 14  0 12.9553054945782  0 11.6665915625402  C 0 11.6665915625402  0 2.33340788113298  0 2.33340788113298  C 0 1.04469394909498  1.04501605282227 0  2.33409401225953 0  C 2.33409401225953 0  11.6659055703711 0  11.6659055703711 0  Z " fill-rule="evenodd" />
    </mask>
  </defs>
  <g transform="matrix(1 0 0 1 -18 -58 )">
    <path d="M 11.6659055703711 0  C 12.9549835298083 0  14 1.04469394909498  14 2.33340788113298  C 14 2.33340788113298  14 11.6665915625402  14 11.6665915625402  C 14 12.9553054945782  12.9549835298083 14  11.6659055703711 14  C 11.6659055703711 14  2.33409401225953 14  2.33409401225953 14  C 1.04501605282227 14  0 12.9553054945782  0 11.6665915625402  C 0 11.6665915625402  0 2.33340788113298  0 2.33340788113298  C 0 1.04469394909498  1.04501605282227 0  2.33409401225953 0  C 2.33409401225953 0  11.6659055703711 0  11.6659055703711 0  Z " fill-rule="nonzero" fill="#ffffff" stroke="none" transform="matrix(1 0 0 1 18 58 )" />
    <path d="M 11.6659055703711 0  C 12.9549835298083 0  14 1.04469394909498  14 2.33340788113298  C 14 2.33340788113298  14 11.6665915625402  14 11.6665915625402  C 14 12.9553054945782  12.9549835298083 14  11.6659055703711 14  C 11.6659055703711 14  2.33409401225953 14  2.33409401225953 14  C 1.04501605282227 14  0 12.9553054945782  0 11.6665915625402  C 0 11.6665915625402  0 2.33340788113298  0 2.33340788113298  C 0 1.04469394909498  1.04501605282227 0  2.33409401225953 0  C 2.33409401225953 0  11.6659055703711 0  11.6659055703711 0  Z " stroke-width="1.60000002384186" stroke="#d1d0d0" fill="none" transform="matrix(1 0 0 1 18 58 )" mask="url(#clip117)" />
  </g>
</svg>