<?xml version="1.0" encoding="utf-8"?>
<svg version="1.1" xmlns:xlink="http://www.w3.org/1999/xlink" width="15px" height="8px" xmlns="http://www.w3.org/2000/svg">
  <g transform="matrix(1 0 0 1 -623 -277 )">
    <path d="M 0 1  L 1 1  L 1 6  C 1 6.55228469999997  1.44771524999999 7  2 7  L 13 7  C 13.5522847 7  14 6.55228469999997  14 6  L 14 1  L 15 1  L 15 6  C 15 7.10456950000003  14.1045695 8  13 8  L 2 8  C 0.895430500000003 8  0 7.10456950000003  0 6  L 0 1  Z M 14 0.5  C 14 0.223857629999998  14.2238576 0  14.5 0  C 14.7761424 0  15 0.223857629999998  15 0.5  C 15 0.776142370000002  14.7761424 1  14.5 1  C 14.2238576 1  14 0.776142370000002  14 0.5  Z M 0 0.5  C 0 0.223857629999998  0.223857624999994 0  0.5 0  C 0.776142375000006 0  1 0.223857629999998  1 0.5  C 1 0.776142370000002  0.776142375000006 1  0.5 1  C 0.223857624999994 1  0 0.776142370000002  0 0.5  Z " fill-rule="nonzero" fill="#2590ff" stroke="none" transform="matrix(1 0 0 1 623 277 )" />
  </g>
</svg>