<?xml version="1.0" encoding="utf-8"?>
<svg version="1.1" xmlns:xlink="http://www.w3.org/1999/xlink" width="11px" height="16px" xmlns="http://www.w3.org/2000/svg">
  <g transform="matrix(1 0 0 1 -1716 -156 )">
    <path d="M 9.9037586 0.500323420000001  L 9.9037586 2.00151357999999  L 8.40537719999998 2.00151357999999  C 8.12949250000003 2.00151357999999  7.90584360000003 2.22561449  7.90584360000003 2.50205692  C 7.90584360000003 2.77849935  8.12949250000003 3.00238034  8.40537719999998 3.00238034  L 10.9026063 3.00238034  L 10.9026063 0.500323420000001  C 10.9026063 0.22388097999999  10.6789575 0  10.4030727 0  C 10.1271879 0  9.9037586 0.224100910000004  9.9037586 0.500323420000001  Z M 1.36449930999999 13.6862598  L 2.66293553000003 12.9356647  C 2.81876542999998 12.847036  2.91511659999998 12.6812145  2.91555855000001 12.5017578  C 2.91599451000002 12.3220813  2.82030178000002 12.1560399  2.66491084 12.0665314  C 2.50951988999998 11.977023  2.31813442999999 11.9779027  2.16362140000001 12.0687307  L 0 13.3198691  L 1.24861454000001 15.4867643  C 1.33728395000003 15.6429092  1.50255143999999 15.7394551  1.68164609000002 15.739898  C 1.86074073999998 15.7403348  2.02666667 15.6444487  2.11577503000001 15.4887436  C 2.20510288000003 15.3330386  2.20422496999998 15.1412662  2.11358024999998 14.9864409  L 1.36449930999999 13.6853801  Z " fill-rule="nonzero" fill="#2590ff" stroke="none" transform="matrix(1 0 0 1 1716 156 )" />
  </g>
</svg>