<?xml version="1.0" encoding="utf-8"?>
<svg version="1.1" xmlns:xlink="http://www.w3.org/1999/xlink" width="14px" height="16px" xmlns="http://www.w3.org/2000/svg">
  <g transform="matrix(1 0 0 1 -416 -273 )">
    <path d="M 1.358 15.5720171  C 1.09518671 15.5715929  0.87735992 15.3681715  0.859 15.106  C 0.583 11.081  0.865 10.707  0.971 10.566  L 8.245 0.951  C 8.693786 0.36544294  9.5314716 0.25279791  10.119 0.699  L 12.722 2.668  C 13.006 2.883  13.191 3.196  13.243 3.548  C 13.295 3.903  13.204 4.256  12.989 4.539  L 5.716 14.154  C 5.611 14.293  5.331 14.664  1.471 15.558  C 1.43411602 15.5676319  1.39611938 15.5723395  1.358 15.5720171  Z M 9.515 1.497  C 9.455248 1.45227589  9.382636 1.42797162  9.308 1.42797162  C 9.2044048 1.42664896  9.1060826 1.47359228  9.042 1.555  L 1.769 11.17  C 1.703 11.404  1.734 12.963  1.82 14.448  C 3.241 14.101  4.719 13.677  4.968 13.499  L 12.191 3.937  C 12.2429474 3.86700321  12.2648963 3.77920772  12.252 3.693  C 12.2390355 3.6026163  12.1908693 3.52102134  12.118 3.466  L 9.515 1.497  Z " fill-rule="nonzero" fill="#2590ff" stroke="none" transform="matrix(1 0 0 1 416 273 )" />
  </g>
</svg>