<?xml version="1.0" encoding="utf-8"?>
<svg version="1.1" xmlns:xlink="http://www.w3.org/1999/xlink" width="12px" height="12px" xmlns="http://www.w3.org/2000/svg">
  <g transform="matrix(1 0 0 1 -417 -275 )">
    <path d="M 10.546 4.11900046  C 10.4370517 4.11892793  10.331072 4.08348438  10.244 4.018  L 6.326 1.054  C 6.1056384 0.88721  6.06221 0.57336162  6.229 0.35300001  C 6.39579 0.1326384  6.7096384 0.0892100200000003  6.93 0.256  L 10.848 3.22  C 11.0195965 3.34959096  11.0891185 3.57438217  11.0206432 3.77822107  C 10.9521678 3.98205997  10.7610328 4.11928895  10.546 4.11900046  Z M 5.10948696 11.4656969  C 5.04074877 11.6696429  4.84921706 11.806721  4.634 11.8060028  C 4.52515799 11.8061588  4.41932295 11.7702945  4.333 11.704  L 0.513 8.813  C 0.37062966 8.7051058  0.29663492 8.5294538  0.31888888 8.3522103  C 0.34114283 8.1749669  0.45626458 8.0230596  0.62088888 7.9537103  C 0.78551317 7.8843611  0.97462966 7.9081058  1.117 8.016  L 4.937 10.907  C 5.10874539 11.0367013  5.17822515 11.261751  5.10948696 11.4656969  Z " fill-rule="nonzero" fill="#2590ff" stroke="none" transform="matrix(1 0 0 1 417 275 )" />
  </g>
</svg>