<?xml version="1.0" encoding="utf-8"?>
<svg version="1.1" xmlns:xlink="http://www.w3.org/1999/xlink" width="16px" height="17px" xmlns="http://www.w3.org/2000/svg">
  <g transform="matrix(1 0 0 1 -1712 -155 )">
    <path d="M 13.7793141 2.49677878  L 13.7782167 2.49589908999999  C 13.9573114 2.69734799  13.9448011 3.00457956  13.7501235 3.19085382  C 13.5554458 3.37712807  13.2483951 3.37514877000001  13.0561317 3.18667529000001  C 10.5643896 0.560802069999994  6.48581618999998 0.272263906999996  3.65037037000002 2.52053040000001  C 0.814924554000015 4.76901681999999  0.15802469099998 8.81272962000003  2.13552812 11.846119  C 2.23626886 11.9958862  2.24877915000002 12.1883182  2.16844993000001 12.3497413  C 2.08790123 12.5111643  1.92680383999999 12.616727  1.74683127999998 12.6257439  C 1.56685871000002 12.6347607  1.39588477000001 12.546132  1.29953361000003 12.3935058  C -0.95824417 8.92708926  -0.206968449999977 4.30761966  3.03231824 1.73892626  C 6.27160493999997 -0.829987063000004  10.9311385 -0.501423026999987  13.7793141 2.49677878  Z M 5.16192044000002 15.5113454  C 4.90403292000002 15.41326  4.77432098999998 15.124282  4.8722085 14.8658732  C 4.97009602000003 14.6074644  5.25871056 14.4774903  5.51659807999999 14.5755757  C 7.66551440000001 15.3912678  10.0773663 15.0970116  11.9679561 13.7882536  C 13.8587654 12.4794955  14.9868861 10.3233765  14.9857888 8.02078913000003  C 14.9857888 7.74434669999999  15.2094376 7.52046572  15.4853224 7.52046572  C 15.7612071 7.52046572  15.984637 7.74456662  15.984637 8.02078913000003  C 15.9852949 10.6523803  14.6956379 13.1161708  12.5348697 14.6116429  C 10.373882 16.1071151  7.61766804000001 16.4431565  5.16192044000002 15.5106856  Z " fill-rule="nonzero" fill="#2590ff" stroke="none" transform="matrix(1 0 0 1 1712 155 )" />
  </g>
</svg>