<?xml version="1.0" encoding="utf-8"?>
<svg version="1.1" xmlns:xlink="http://www.w3.org/1999/xlink" width="9px" height="6px" xmlns="http://www.w3.org/2000/svg">
  <g transform="matrix(1 0 0 1 -634 -278 )">
    <path d="M 4.52987325999999 5.01400000000001  C 4.36887056 5.0136554  4.21562885 4.95257289  4.10840056999999 4.846  L 0.234007280000014 0.976999999999975  C 0.100339389999988 0.843382669999983  0.0571573999999941 0.656636320000018  0.120727560000006 0.487106499999982  C 0.18429771000001 0.317576680000002  0.34496218999999 0.191018989999975  0.54220024 0.155106499999988  C 0.73943829000001 0.119194010000001  0.943284760000012 0.179382669999995  1.07695265000001 0.312999999999988  L 4.53100018999999 3.76100000000002  L 7.9850477 0.312999999999988  C 8.1187156 0.179382659999987  8.3225621 0.119193999999993  8.5198001 0.15510648999998  C 8.71703819999999 0.191018980000024  8.87770269999999 0.317576669999994  8.94127280000001 0.487106489999974  C 9.00484299999999 0.656636320000018  8.96166099999999 0.843382669999983  8.82799310000001 0.976999999999975  L 4.95134594000001 4.846  C 4.84411765999999 4.95257289  4.69087594999999 5.0136554  4.52987325999999 5.01400000000001  Z " fill-rule="nonzero" fill="#2590ff" stroke="none" transform="matrix(1 0 0 1 634 278 )" />
  </g>
</svg>