<?xml version="1.0" encoding="utf-8"?>
<svg version="1.1" xmlns:xlink="http://www.w3.org/1999/xlink" width="9px" height="9px" xmlns="http://www.w3.org/2000/svg">
  <g transform="matrix(1 0 0 1 -31 -151 )">
    <path d="M 2.6253051261192 0  C 2.6253051261192 0  0.750610252237493 0  0.750610252237493 0  C 0.338689991863248 0  0 0.336790726052396  0 0.750457596095164  C 0 1.16412446613793  0.338689991863248 1.50091519219033  0.750610252237493 1.50091519219033  C 0.750610252237493 1.50091519219033  2.6253051261192 1.50091519219033  2.6253051261192 1.50091519219033  C 3.03722538649345 1.50091519219033  3.37591537835669 1.16412446613793  3.37591537835669 0.750457596095164  C 3.37591537835669 0.338621110433206  3.03905614320593 0  2.6253051261192 0  Z M 0.750610252237493 5.25137278828512  C 0.750610252237493 5.25137278828512  8.24938974776251 5.25137278828512  8.24938974776251 5.25137278828512  C 8.66131000813675 5.25137278828512  9 4.91458206223272  9 4.50091519218995  C 9 4.08907870652799  8.66131000813675 3.75045759609479  8.24938974776251 3.75045759609479  C 8.24938974776251 3.75045759609479  0.750610252237493 3.75045759609479  0.750610252237493 3.75045759609479  C 0.338689991863248 3.75045759609479  0 4.08724832214718  0 4.50091519218995  C 0 4.91275167785191  0.336859235150769 5.25137278828512  0.750610252237493 5.25137278828512  Z M 8.24938974776251 9  C 8.66131000813675 9  9 8.6632092739476  9 8.24954240390484  C 9 7.83770591824288  8.66131000813675 7.49908480780967  8.24938974776251 7.49908480780967  C 8.24938974776251 7.49908480780967  0.750610252237493 7.49908480780967  0.750610252237493 7.49908480780967  C 0.338689991863248 7.49908480780967  0 7.83587553386207  0 8.24954240390484  C 0 8.66137888956679  0.336859235150769 9  0.750610252237493 9  C 0.750610252237493 9  8.24938974776251 9  8.24938974776251 9  Z " fill-rule="nonzero" fill="#2590ff" stroke="none" transform="matrix(1 0 0 1 31 151 )" />
  </g>
</svg>