<?xml version="1.0" encoding="utf-8"?>
<svg version="1.1" xmlns:xlink="http://www.w3.org/1999/xlink" width="16px" height="18px" xmlns="http://www.w3.org/2000/svg">
  <g transform="matrix(1 0 0 1 -27 -146 )">
    <path d="M 13.7274744784736 18  C 14.9791389258762 18  15.9964491788724 17.0296507865003  15.9964491788724 15.8377690167113  C 15.9964491788724 15.8377690167113  15.9964491788724 5.67473414098208  15.9964491788724 5.67473414098208  C 15.9662671992901 5.14745004006159  15.7159343098092 4.51397677992782  15.3164669329781 4.14780726539948  C 15.3164669329781 4.14780726539948  11.435419440746 0.595962974476379  11.435419440746 0.595962974476379  C 11.0004438526412 0.196838203640709  10.482023968043 0.00276836094076316  9.8499778073683 0.00276836094076316  C 9.8499778073683 0.00276836094076316  2.30270750110958 0.00276836094076316  2.30270750110958 0.00276836094076316  C 1.6795383932531 -0.0283560477942046  1.07234798047011 0.204161593931303  0.63204616067469 0.639903316219716  C 0.223701731025358 1.0408589346282  0 1.5681430355487  0 2.12472069763157  C 0 2.12472069763157  0 15.8377690167113  0 15.8377690167113  C 0 17.0296507865003  1.01908566355996 18  2.26897470039967 18  C 2.26897470039967 18  13.7274744784736 18  13.7274744784736 18  Z M 14.5459387483352 6.37961045644852  C 14.5459387483352 6.37961045644852  14.5459387483352 15.8414307118562  14.5459387483352 15.8414307118562  C 14.5441633377714 16.1856300555128  14.1571238348861 16.500535838007  13.7292498890365 16.500535838007  C 13.7292498890365 16.500535838007  2.27075011096258 16.500535838007  2.27075011096258 16.500535838007  C 1.84465157567683 16.500535838007  1.45583666222774 16.1856300555128  1.45583666222774 15.8395998642836  C 1.45583666222774 15.8395998642836  1.45583666222774 2.12655154520394  1.45583666222774 2.12655154520394  C 1.45583666222774 1.93614339764918  1.56946293830424 1.79516813455575  1.63870395028789 1.72742677436804  C 1.78428761651048 1.58462066370225  1.98490901020796 1.50406337050595  2.22281402574299 1.50406337050595  C 2.22281402574299 1.50406337050595  9.09187749667035 1.50589421807854  9.09187749667035 1.50589421807854  C 9.09187749667035 1.50589421807854  9.09187749667035 5.6289629516657  9.09187749667035 5.6289629516657  C 9.09187749667035 6.04090365550996  9.41855304039018 6.37961045644852  9.81979582778513 6.37961045644852  C 9.81979582778513 6.37961045644852  14.5459387483352 6.37961045644852  14.5459387483352 6.37961045644852  Z M 13.9209942299158 4.8764845993112  L 10.5459387483361 4.8764845993112  L 10.5459387483361 1.78784474426607  L 13.9209942299158 4.8764845993112  Z " fill-rule="nonzero" fill="#2590ff" stroke="none" transform="matrix(1 0 0 1 27 146 )" />
  </g>
</svg>