<?xml version="1.0" encoding="utf-8"?>
<svg version="1.1" xmlns:xlink="http://www.w3.org/1999/xlink" width="18px" height="19px" xmlns="http://www.w3.org/2000/svg">
  <g transform="matrix(1 0 0 1 -26 -195 )">
    <path d="M 8.99996117057765 19  C 11.2401082046569 19  13.3860550601209 18.0797734444262  14.9623742897451 16.4598170580549  C 15.2280004408309 16.5728079750219  15.5126888367979 16.6308617070994  15.8001579063175 16.6306581120089  C 17.0131890604574 16.6306581120089  18 15.6162294799558  18 14.3692494506279  C 17.9999223411553 13.6417379904958  17.6635818847802 12.9937394694936  17.1427240134091 12.579809158862  C 17.3337734047542 11.8471348976593  17.4305328855013 11.0918692175223  17.4305276918497 10.333329131635  C 17.4305276918497 6.40510254244766  14.829655324161 2.96385278929744  11.1798449411734 1.96139899747478  C 11.0365643727107 0.855801915134097  10.1138996388864 0  8.99988351173296 0  C 7.88602270226894 0  6.96343562728932 0.855642250597691  6.82007739998188 1.96107966840197  C 5.1311528455495 2.42594296614692  3.60500122959838 3.4321488745751  2.4854713244716 4.83152870390212  C 1.24968612883602 6.37612342909004  0.569084013926821 8.33009802562196  0.569084013926821 10.333329131635  C 0.568928186570294 11.0920423307286  0.665583638369613 11.8474990654181  0.85657705698865 12.5803679847394  C 0.336029820996363 12.994298295371  0 13.6420573195686  0 14.3693292828961  C 0 15.6162294799558  0.98681093954259 16.6306581120089  2.19976443483776 16.6306581120089  C 2.49618824503954 16.6306581120089  2.77902175741966 16.5696662591019  3.03739273372077 16.4598968903231  C 4.61363430450033 18.079693612158  6.76105667801348 19  8.99996117057765 19  Z M 7.96492408847932 2.26140866138093  C 7.96492408847932 1.6747213223585  8.42916866206754 1.19748402304211  8.99988351173296 1.19748402304211  C 9.57067602024308 1.19748402304211  10.0349205938313 1.6748011546267  10.0349205938313 2.26140866138093  C 10.0349205938313 2.84801616813516  9.57059836139839 3.32533329971975  8.99988351173296 3.32533329971975  C 8.42924632091224 3.32533329971975  7.96492408847932 2.84801616813516  7.96492408847932 2.26140866138093  Z M 1.16480501158411 14.3694091151643  C 1.16480501158411 13.7828016084101  1.62904958517234 13.3055643090937  2.19968677599307 13.3055643090937  C 2.77032396681379 13.3055643090937  3.23456854040202 13.7828814406783  3.23456854040202 14.3694091151643  C 3.23456854040202 14.9559367896504  2.77032396681379 15.433253921235  2.19968677599307 15.433253921235  C 1.62904958517234 15.433253921235  1.16480501158411 14.9560166219186  1.16480501158411 14.3694091151643  Z M 14.0354383194626 15.7179357896462  C 12.6870477990189 17.0492985264644  10.8820232717671 17.8027554737625  8.99996117057766 17.8027554737625  C 7.11890863436923 17.8026756414943  5.3129522009811 17.048739700587  3.9647169982268 15.7175366283052  C 4.24747831628659 15.3282248581242  4.40002237957104 14.8552643384519  4.39952886967552 14.3694091151643  C 4.39952886967552 14.1719040836306  4.37460038052834 13.9803066399439  4.32816039140058 13.7975705780276  C 4.32816039140058 13.7975705780276  6.12161375079277 12.7330871138114  6.12161375079277 12.7330871138114  L 5.53909475673367 11.6960659498569  C 5.53909475673367 11.6960659498569  3.74447651467106 12.761267904487  3.74447651467106 12.761267904487  C 3.34694088867605 12.3577157887218  2.8012321870025 12.1080802860516  2.19976443483776 12.1080802860516  C 2.11356311722603 12.1080802860516  2.02860434112942 12.113748377094  1.94496576539264 12.1237274106194  C 1.80475058605622 11.5378407391483  1.73390426733886 10.9366858597974  1.73396668435563 10.333329131635  C 1.73396668435563 7.00168908272724  3.91035580694012 4.06992886524734  6.98067589081167 3.15760570422565  C 7.24347342126041 3.78085622208497  7.77139824749874 4.25905150861979  8.41744217651856 4.44162790599961  C 8.41744217651856 4.44162790599961  8.41744217651856 6.5709939957731  8.41744217651856 6.5709939957731  L 9.58232484694737 6.5709939957731  C 9.58232484694737 6.5709939957731  9.58232484694737 4.44178757053601  9.58232484694737 4.44178757053601  C 10.2284464348119 4.25913134088799  10.7564489198949 3.78093605435317  11.0192464503436 3.15768553649385  C 14.0908090757303 4.06992886524733  16.2657226802656 6.99809663065811  16.2657226802656 10.3334089639032  C 16.2657226802656 10.9409325249266  16.1951307904376 11.5407921882025  16.0556555053649 12.1237274106194  C 15.9708581065764 12.1133993279414  15.8855482947541 12.108148148544  15.8001579063176 12.1080004537834  C 15.1986124953081 12.1080004537834  14.6529814524793 12.3576359564536  14.2553681676396 12.761267904487  C 14.2553681676396 12.761267904487  12.4606722667323 11.6961457821251  12.4606722667323 11.6961457821251  L 11.8782309315178 12.7331669460796  C 11.8782309315178 12.7331669460796  13.6717619497547 13.7974907457594  13.6717619497547 13.7974907457594  C 13.6242480189956 13.9842039706981  13.6002365721434 14.1764129281643  13.6003158126351 14.3694091151643  C 13.5998057459342 14.8554408748689  13.7524664853954 15.3285652848435  14.0354383194626 15.7179357896462  Z M 15.8000802474729 13.3054046445573  C 16.3707174382936 13.3054046445573  16.8350396707265 13.7827217761419  16.8350396707265 14.3693292828961  C 16.8350396707265 14.9559367896504  16.3707950971383 15.433253921235  15.8000802474729 15.433253921235  C 15.2293653978074 15.433253921235  14.7651208242192 14.9559367896504  14.7651208242192 14.3693292828961  C 14.7651208242192 13.7827217761419  15.2294430566521 13.3054046445573  15.8000802474729 13.3054046445573  Z " fill-rule="nonzero" fill="#2590ff" stroke="none" transform="matrix(1 0 0 1 26 195 )" />
  </g>
</svg>