<?xml version="1.0" encoding="utf-8"?>
<svg version="1.1" xmlns:xlink="http://www.w3.org/1999/xlink" width="8px" height="8px" xmlns="http://www.w3.org/2000/svg">
  <g transform="matrix(1 0 0 1 -31 -201 )">
    <path d="M 8 4.00005539782564  C 7.99988920434873 1.79433557232879  6.20555363201995 0  3.99994460217436 0  C 1.79444636798006 0  0 1.79433557232879  0 4.00005539782564  C 0 6.20555363201995  1.79433557232879 8  3.99994460217436 8  C 6.20555363201995 8  8 6.20566442767121  8 4.00005539782564  Z M 3.99993681633298 1.33333333333333  C 5.4703471152707 1.33333333333333  6.66666666666667 2.5296528847293  6.66666666666667 4.00006318366702  C 6.66666666666667 5.47047348260475  5.47022074793666 6.66666666666667  3.99993681633298 6.66666666666667  C 2.5296528847293 6.66666666666667  1.33333333333333 5.47047348260475  1.33333333333333 4.00006318366702  C 1.33333333333333 2.5296528847293  2.52952651739525 1.33333333333333  3.99993681633298 1.33333333333333  Z " fill-rule="nonzero" fill="#2590ff" stroke="none" transform="matrix(1 0 0 1 31 201 )" />
  </g>
</svg>