<?xml version="1.0" encoding="utf-8"?>
<svg version="1.1" xmlns:xlink="http://www.w3.org/1999/xlink" width="14px" height="16px" xmlns="http://www.w3.org/2000/svg">
  <g transform="matrix(1 0 0 1 -27 -248 )">
    <path d="M 6.58823528959551 16  C 6.58823528959551 16  6.58823528959551 15.99418815625  6.58823528959551 15.99418815625  C 6.58823528959551 15.99418815625  2.37908496098927 15.99418815625  2.37908496098927 15.99418815625  C 1.06678207661644 15.9901988406844  0.00392555659223755 14.9100793825237  0 13.576462046875  C 0 13.576462046875  0 2.417726109375  0 2.417726109375  C 0.00392555659223813 1.08410877372633  1.06678207661644 0.00398931556565156  2.37908496098927 0  C 2.37908496098927 0  11.6209150390107 0  11.6209150390107 0  C 12.9332179233836 0.00398931556565142  13.9960744434078 1.08410877372634  14 2.417726109375  C 14 2.417726109375  14 6.3232836875  14 6.3232836875  C 13.9999492639087 6.63138720525604  13.7541596767511 6.88112711542025  13.4509803989401 6.88112711542025  C 13.1478011211291 6.88112711542025  12.9020115339715 6.63138720525604  12.9019607978801 6.3232836875  C 12.9019607978801 6.3232836875  12.9019607978801 2.417726109375  12.9019607978801 2.417726109375  C 12.9019607978801 2.07091195538608  12.7663913327013 1.73830240645261  12.5250761376543 1.4930677678207  C 12.2837609426072 1.24783312918879  11.9564673022742 1.11006174585599  11.6151960826709 1.11006175  C 11.6151960826709 1.11006175  2.37908496098926 1.11006175  2.37908496098926 1.11006175  C 1.66842444065035 1.11006175  1.09232026115527 1.69552302579493  1.09232026115527 2.417726109375  C 1.09232026115527 2.417726109375  1.09232026115527 13.576462046875  1.09232026115527 13.576462046875  C 1.09232026115527 14.2986651304551  1.66842444065035 14.88412640625  2.37908496098926 14.88412640625  C 2.37908496098926 14.88412640625  6.58823528959551 14.88412640625  6.58823528959551 14.88412640625  C 6.78438111177999 14.8841263943689  6.96562733074959 14.9904685444917  7.06370024521679 15.1630947950874  C 7.16177315968399 15.3357210456831  7.16177315968399 15.5484053605669  7.06370024521679 15.7210316111626  C 6.96562733074959 15.8936578617583  6.78438111177999 16.0000000118811  6.58823528959551 16  Z " fill-rule="nonzero" fill="#2590ff" stroke="none" transform="matrix(1 0 0 1 27 248 )" />
  </g>
</svg>