<?xml version="1.0" encoding="utf-8"?>
<svg version="1.1" xmlns:xlink="http://www.w3.org/1999/xlink" width="8px" height="7px" xmlns="http://www.w3.org/2000/svg">
  <g transform="matrix(1 0 0 1 -30 -251 )">
    <path d="M 0.55854545542141 0  C 0.55854545542141 0  7.44145454457859 0  7.44145454457859 0  C 7.74993068169513 0  8 0.261167229265373  8 0.583333333333341  C 8 0.905499437401308  7.74993068169513 1.16666666666668  7.44145454457859 1.16666666666668  C 7.44145454457859 1.16666666666668  0.55854545542141 1.16666666666668  0.55854545542141 1.16666666666668  C 0.250069318304869 1.16666666666668  0 0.905499437401308  0 0.583333333333341  C 0 0.261167229265373  0.250069318304869 0  0.55854545542141 0  Z M 3.35127273252856 2.92274305776788  C 3.6597488696451 2.92274305776788  3.90981818794997 3.18391028703326  3.90981818794997 3.50607639110123  C 3.90981818794997 3.82824249516919  3.6597488696451 4.08940972443457  3.35127273252856 4.08940972443457  C 3.35127273252856 4.08940972443457  0.558545455421514 4.08333333333348  0.558545455421514 4.08333333333348  C 0.27360488918784 4.05284184286508  0.0569320418171628 3.80218227833053  0.0569320418171628 3.50303819555068  C 0.0569320418171628 3.20389411277084  0.27360488918784 2.95323454823628  0.558545455421512 2.92274305776788  C 0.558545455421512 2.92274305776788  3.35127273252856 2.92274305776788  3.35127273252856 2.92274305776788  Z M 3.90981818794986 6.41666666666666  C 3.90981818794986 6.73883277073462  3.659748869645 7  3.35127273252846 7  C 3.35127273252846 7  0.55854545542141 7  0.55854545542141 7  C 0.250069318304869 7  0 6.73883277073462  0 6.41666666666666  C 0 6.09450056259869  0.250069318304869 5.83333333333332  0.55854545542141 5.83333333333332  C 0.55854545542141 5.83333333333332  3.35127273252846 5.83333333333332  3.35127273252846 5.83333333333332  C 3.659748869645 5.83333333333332  3.90981818794986 6.09450056259869  3.90981818794986 6.41666666666666  Z " fill-rule="nonzero" fill="#2590ff" stroke="none" transform="matrix(1 0 0 1 30 251 )" />
  </g>
</svg>