<?xml version="1.0" encoding="utf-8"?>
<svg version="1.1" xmlns:xlink="http://www.w3.org/1999/xlink" width="8px" height="8px" xmlns="http://www.w3.org/2000/svg">
  <defs>
    <mask fill="white" id="clip122">
      <path d="M 7.99999999999999 6.40867739543281  C 7.99701342729694 7.28735420691871  7.30604782273849 7.99846519754542  6.45375869589179 8  C 6.45375869589179 8  1.54352621742485 8  1.54352621742485 8  C 0.692297204657642 7.99692879687128  0.00297895758824368 7.28626532000968  0 6.4086773954328  C 0 6.4086773954328  0 1.58992301640493  0 1.58992301640493  C 0.00298307620814215 0.712563902017903  0.692516847015764 0.00230346042686646  1.54352621742485 0  C 1.54352621742485 0  6.45375869589179 0  6.45375869589179 0  C 7.30582798870531 0.000765163924134308  7.99701060418193 0.711473865059918  7.99999999999999 1.58992301640493  C 7.99999999999999 1.58992301640493  7.99999999999999 6.40867739543281  7.99999999999999 6.40867739543281  Z M 1.54352621742485 1.05948215824983  C 1.54352621742485 1.05948215824983  6.4537586958918 1.05948215824984  6.4537586958918 1.05948215824984  C 6.73760444776297 1.0602512474247  6.96752143620877 1.29728777894421  6.96826742530082 1.58992301640493  C 6.96826742530082 1.58992301640493  6.96826742530082 6.4086773954328  6.96826742530082 6.4086773954328  C 6.96826741723808 6.70163178863591  6.73791401745952 6.93911824527549  6.4537586958918 6.9391182535879  C 6.4537586958918 6.9391182535879  1.54352621742485 6.9391182535879  1.54352621742485 6.9391182535879  C 1.25968046555367 6.93834916441303  1.02976347710788 6.70131263289353  1.02901748801583 6.4086773954328  C 1.02901748801583 6.4086773954328  1.02901748801583 1.58992301640493  1.02901748801583 1.58992301640493  C 1.03050201982125 1.29760492121817  1.25998808225762 1.06101265963847  1.54352621742485 1.05948215824983  Z " fill-rule="evenodd" />
    </mask>
  </defs>
  <g transform="matrix(1 0 0 1 -35 -256 )">
    <path d="M 7.99999999999999 6.40867739543281  C 7.99701342729694 7.28735420691871  7.30604782273849 7.99846519754542  6.45375869589179 8  C 6.45375869589179 8  1.54352621742485 8  1.54352621742485 8  C 0.692297204657642 7.99692879687128  0.00297895758824368 7.28626532000968  0 6.4086773954328  C 0 6.4086773954328  0 1.58992301640493  0 1.58992301640493  C 0.00298307620814215 0.712563902017903  0.692516847015764 0.00230346042686646  1.54352621742485 0  C 1.54352621742485 0  6.45375869589179 0  6.45375869589179 0  C 7.30582798870531 0.000765163924134308  7.99701060418193 0.711473865059918  7.99999999999999 1.58992301640493  C 7.99999999999999 1.58992301640493  7.99999999999999 6.40867739543281  7.99999999999999 6.40867739543281  Z M 1.54352621742485 1.05948215824983  C 1.54352621742485 1.05948215824983  6.4537586958918 1.05948215824984  6.4537586958918 1.05948215824984  C 6.73760444776297 1.0602512474247  6.96752143620877 1.29728777894421  6.96826742530082 1.58992301640493  C 6.96826742530082 1.58992301640493  6.96826742530082 6.4086773954328  6.96826742530082 6.4086773954328  C 6.96826741723808 6.70163178863591  6.73791401745952 6.93911824527549  6.4537586958918 6.9391182535879  C 6.4537586958918 6.9391182535879  1.54352621742485 6.9391182535879  1.54352621742485 6.9391182535879  C 1.25968046555367 6.93834916441303  1.02976347710788 6.70131263289353  1.02901748801583 6.4086773954328  C 1.02901748801583 6.4086773954328  1.02901748801583 1.58992301640493  1.02901748801583 1.58992301640493  C 1.03050201982125 1.29760492121817  1.25998808225762 1.06101265963847  1.54352621742485 1.05948215824983  Z " fill-rule="nonzero" fill="#2174ff" stroke="none" fill-opacity="0" transform="matrix(1 0 0 1 35 256 )" />
    <path d="M 7.99999999999999 6.40867739543281  C 7.99701342729694 7.28735420691871  7.30604782273849 7.99846519754542  6.45375869589179 8  C 6.45375869589179 8  1.54352621742485 8  1.54352621742485 8  C 0.692297204657642 7.99692879687128  0.00297895758824368 7.28626532000968  0 6.4086773954328  C 0 6.4086773954328  0 1.58992301640493  0 1.58992301640493  C 0.00298307620814215 0.712563902017903  0.692516847015764 0.00230346042686646  1.54352621742485 0  C 1.54352621742485 0  6.45375869589179 0  6.45375869589179 0  C 7.30582798870531 0.000765163924134308  7.99701060418193 0.711473865059918  7.99999999999999 1.58992301640493  C 7.99999999999999 1.58992301640493  7.99999999999999 6.40867739543281  7.99999999999999 6.40867739543281  Z " stroke-width="2" stroke="#2590ff" fill="none" transform="matrix(1 0 0 1 35 256 )" mask="url(#clip122)" />
    <path d="M 1.54352621742485 1.05948215824983  C 1.54352621742485 1.05948215824983  6.4537586958918 1.05948215824984  6.4537586958918 1.05948215824984  C 6.73760444776297 1.0602512474247  6.96752143620877 1.29728777894421  6.96826742530082 1.58992301640493  C 6.96826742530082 1.58992301640493  6.96826742530082 6.4086773954328  6.96826742530082 6.4086773954328  C 6.96826741723808 6.70163178863591  6.73791401745952 6.93911824527549  6.4537586958918 6.9391182535879  C 6.4537586958918 6.9391182535879  1.54352621742485 6.9391182535879  1.54352621742485 6.9391182535879  C 1.25968046555367 6.93834916441303  1.02976347710788 6.70131263289353  1.02901748801583 6.4086773954328  C 1.02901748801583 6.4086773954328  1.02901748801583 1.58992301640493  1.02901748801583 1.58992301640493  C 1.03050201982125 1.29760492121817  1.25998808225762 1.06101265963847  1.54352621742485 1.05948215824983  Z " stroke-width="2" stroke="#2590ff" fill="none" transform="matrix(1 0 0 1 35 256 )" mask="url(#clip122)" />
  </g>
</svg>