<?xml version="1.0" encoding="utf-8"?>
<svg version="1.1" xmlns:xlink="http://www.w3.org/1999/xlink" width="4px" height="3px" xmlns="http://www.w3.org/2000/svg">
  <g transform="matrix(1 0 0 1 -37 -258 )">
    <path d="M 3.86819181001401 0.141271197102137  C 4.0441679497938 0.329384803342898  4.04390180305707 0.634093238520887  3.867597354631 0.821856545497514  C 3.867597354631 0.821856545497514  1.99027830125382 2.82365283502011  1.99027830125382 2.82365283502011  C 1.98019086242621 2.83610642386585  1.96947459649321 2.84796396366629  1.9581772099549 2.85917266721673  C 1.87367191093291 2.94934265758222  1.75905565848157 3  1.63954420719657 3  C 1.52003275591156 3  1.40541650346023 2.94934265758222  1.32091120443824 2.85917266721673  C 1.32091120443824 2.85917266721673  0.131982095011581 1.59060720823699  0.131982095011581 1.59060720823699  C -0.0439940387089446 1.40284389766786  -0.0439940306397742 1.09841943834682  0.131982113034578 0.910656138398242  C 0.30795825670893 0.722892838449663  0.593271953961379 0.722892835947754  0.769248100528248 0.910656132810069  C 0.769248100528248 0.910656132810069  1.63835528404525 1.83670891540971  1.63835528404525 1.83670891540971  C 1.63835528404525 1.83670891540971  3.23033136189996 0.140636897326767  3.23033136189996 0.140636897326767  C 3.40663582420167 -0.0471263948171898  3.69221567023422 -0.046842409138624  3.86819181001401 0.141271197102137  Z " fill-rule="nonzero" fill="#2590ff" stroke="none" transform="matrix(1 0 0 1 37 258 )" />
  </g>
</svg>