<?xml version="1.0" encoding="utf-8"?>
<svg version="1.1" xmlns:xlink="http://www.w3.org/1999/xlink" width="16px" height="16px" xmlns="http://www.w3.org/2000/svg">
  <g transform="matrix(1 0 0 1 -27 -297 )">
    <path d="M 15.2173913043478 2.17391304347826  C 15.2173913043478 2.17391304347826  14.3913043478261 2.17391304347826  14.3913043478261 2.17391304347826  C 14.0652173913043 0.927536231884058  12.9420289855072 0  11.5942028985507 0  C 10.2463768115942 0  9.1231884057971 0.927536231884058  8.79710144927536 2.17391304347826  C 8.79710144927536 2.17391304347826  0.72463768115942 2.17391304347826  0.72463768115942 2.17391304347826  C 0.326086956521739 2.17391304347826  0 2.5  0 2.89855072463768  C 0 3.29710144927536  0.326086956521739 3.6231884057971  0.72463768115942 3.6231884057971  C 0.72463768115942 3.6231884057971  8.79710144927536 3.6231884057971  8.79710144927536 3.6231884057971  C 9.1231884057971 4.8695652173913  10.2463768115942 5.79710144927536  11.5942028985507 5.79710144927536  C 12.9420289855072 5.79710144927536  14.0652173913043 4.8695652173913  14.3913043478261 3.6231884057971  C 14.3913043478261 3.6231884057971  15.2173913043478 3.6231884057971  15.2173913043478 3.6231884057971  C 15.6159420289855 3.6231884057971  15.9420289855072 3.29710144927536  15.9420289855072 2.89855072463768  C 15.9420289855072 2.5  15.6159420289855 2.17391304347826  15.2173913043478 2.17391304347826  Z M 1.55072463768116 8.69565217391304  C 1.8768115942029 9.94202898550725  3 10.8695652173913  4.34782608695652 10.8695652173913  C 5.69565217391304 10.8695652173913  6.81884057971014 9.94202898550725  7.14492753623188 8.69565217391304  C 7.14492753623188 8.69565217391304  15.2173913043478 8.69565217391304  15.2173913043478 8.69565217391304  C 15.6159420289855 8.69565217391304  15.9420289855072 8.3695652173913  15.9420289855072 7.97101449275362  C 15.9420289855072 7.57246376811594  15.6159420289855 7.2463768115942  15.2173913043478 7.2463768115942  C 15.2173913043478 7.2463768115942  7.14492753623188 7.2463768115942  7.14492753623188 7.2463768115942  C 6.81884057971014 6  5.69565217391304 5.07246376811594  4.34782608695652 5.07246376811594  C 3 5.07246376811594  1.8768115942029 6  1.55072463768116 7.2463768115942  C 1.55072463768116 7.2463768115942  0.72463768115942 7.2463768115942  0.72463768115942 7.2463768115942  C 0.326086956521739 7.2463768115942  0 7.57246376811594  0 7.97101449275362  C 0 8.3695652173913  0.326086956521739 8.69565217391304  0.72463768115942 8.69565217391304  C 0.72463768115942 8.69565217391304  1.55072463768116 8.69565217391304  1.55072463768116 8.69565217391304  Z M 14.3913043478261 13.768115942029  C 14.3913043478261 13.768115942029  15.2173913043478 13.768115942029  15.2173913043478 13.768115942029  C 15.6159420289855 13.768115942029  15.9420289855072 13.4420289855072  15.9420289855072 13.0434782608696  C 15.9420289855072 12.6449275362319  15.6159420289855 12.3188405797101  15.2173913043478 12.3188405797101  C 15.2173913043478 12.3188405797101  14.3913043478261 12.3188405797101  14.3913043478261 12.3188405797101  C 14.0652173913043 11.0724637681159  12.9420289855072 10.1449275362319  11.5942028985507 10.1449275362319  C 10.2463768115942 10.1449275362319  9.1231884057971 11.0724637681159  8.79710144927536 12.3188405797101  C 8.79710144927536 12.3188405797101  0.72463768115942 12.3188405797101  0.72463768115942 12.3188405797101  C 0.326086956521739 12.3188405797101  0 12.6449275362319  0 13.0434782608696  C 0 13.4420289855072  0.326086956521739 13.768115942029  0.72463768115942 13.768115942029  C 0.72463768115942 13.768115942029  8.79710144927536 13.768115942029  8.79710144927536 13.768115942029  C 9.1231884057971 15.0144927536232  10.2463768115942 15.9420289855072  11.5942028985507 15.9420289855072  C 12.9420289855072 15.9420289855072  14.0652173913043 15.0144927536232  14.3913043478261 13.768115942029  Z M 12.8405797101449 2.17391304347826  C 12.963768115942 2.39130434782609  13.0434782608696 2.6304347826087  13.0434782608696 2.89855072463768  C 13.0434782608696 3.16666666666667  12.963768115942 3.40579710144928  12.8405797101449 3.6231884057971  C 12.5869565217391 4.05072463768116  12.1304347826087 4.34782608695652  11.5942028985507 4.34782608695652  C 11.0579710144928 4.34782608695652  10.5942028985507 4.05072463768116  10.3478260869565 3.6231884057971  C 10.2246376811594 3.40579710144928  10.1449275362319 3.16666666666667  10.1449275362319 2.89855072463768  C 10.1449275362319 2.6304347826087  10.2246376811594 2.39130434782609  10.3478260869565 2.17391304347826  C 10.6014492753623 1.7463768115942  11.0579710144928 1.44927536231884  11.5942028985507 1.44927536231884  C 12.1304347826087 1.44927536231884  12.5942028985507 1.7463768115942  12.8405797101449 2.17391304347826  Z M 3.10144927536232 7.2463768115942  C 3.35507246376812 6.81884057971014  3.81159420289855 6.52173913043478  4.34782608695652 6.52173913043478  C 4.88405797101449 6.52173913043478  5.34782608695652 6.81884057971014  5.59420289855072 7.2463768115942  C 5.71739130434783 7.46376811594203  5.79710144927536 7.70289855072464  5.79710144927536 7.97101449275362  C 5.79710144927536 8.23913043478261  5.71739130434783 8.47826086956522  5.59420289855072 8.69565217391304  C 5.34057971014493 9.1231884057971  4.88405797101449 9.42028985507246  4.34782608695652 9.42028985507246  C 3.81159420289855 9.42028985507246  3.34782608695652 9.1231884057971  3.10144927536232 8.69565217391304  C 2.97826086956522 8.47826086956522  2.89855072463768 8.23913043478261  2.89855072463768 7.97101449275362  C 2.89855072463768 7.70289855072464  2.97826086956522 7.46376811594203  3.10144927536232 7.2463768115942  Z M 12.8405797101449 12.3188405797101  C 12.963768115942 12.536231884058  13.0434782608696 12.7753623188406  13.0434782608696 13.0434782608696  C 13.0434782608696 13.3115942028986  12.963768115942 13.5507246376812  12.8405797101449 13.768115942029  C 12.5869565217391 14.195652173913  12.1304347826087 14.4927536231884  11.5942028985507 14.4927536231884  C 11.0579710144928 14.4927536231884  10.5942028985507 14.195652173913  10.3478260869565 13.768115942029  C 10.2246376811594 13.5507246376812  10.1449275362319 13.3115942028986  10.1449275362319 13.0434782608696  C 10.1449275362319 12.7753623188406  10.2246376811594 12.536231884058  10.3478260869565 12.3188405797101  C 10.6014492753623 11.8913043478261  11.0579710144928 11.5942028985507  11.5942028985507 11.5942028985507  C 12.1304347826087 11.5942028985507  12.5942028985507 11.8913043478261  12.8405797101449 12.3188405797101  Z " fill-rule="nonzero" fill="#2590ff" stroke="none" transform="matrix(1 0 0 1 27 297 )" />
  </g>
</svg>