<?xml version="1.0" encoding="utf-8"?>
<svg version="1.1" xmlns:xlink="http://www.w3.org/1999/xlink" width="18px" height="17px" xmlns="http://www.w3.org/2000/svg">
  <g transform="matrix(1 0 0 1 -27 -347 )">
    <path d="M 16.7746390083363 9.51056286264299  C 16.9623647505968 8.49452611219768  16.9623647505968 7.45291540256196  16.7746390083363 6.43687865211667  L 16.773793237192 6.43603654685352  C 16.7305431808764 6.20196704214433  16.543827260473 6.0204465984763  16.3077733366945 5.98298391527456  C 15.4658069208334 5.85198465164107  14.7285961815528 5.34867575921805  14.3024372054863 4.61389980762961  C 13.8762782294198 3.8791238560412  13.8069463702805 2.99180592013679  14.1138429884358 2.20024707316929  C 14.1990914720627 1.97850440962502  14.1350965873467 1.72734280596099  13.9539922421671 1.57287865211668  C 13.165167074433 0.899137665912751  12.2578672980686 0.376646518616958  11.2779723416696 0.0318260205377125  C 11.0527827146551 -0.0470026071434021  10.8021378378167 0.0238180455306926  10.6521016949034 0.208668125800882  C 10.1162630676177 0.868574576568656  9.30961617916144 1.25204858843786  8.45732557550044 1.25204858843786  C 7.60503497183943 1.25204858843786  6.79838808338315 0.868574576568656  6.26254945609745 0.208668125800882  C 6.11251331318419 0.0238180455306926  5.86186843634574 -0.0470026071434021  5.63667880933129 0.0318260205377125  C 4.65621897709602 0.376529894548558  3.74834345013927 0.899022328799459  2.95896736654521 1.57287865211666  C 2.77756139559887 1.72713504725578  2.71321946008371 1.97832965396831  2.79827084913227 2.20024707316929  C 3.10448715024293 2.99157736092533  3.03505973834053 3.8783170494362  2.60937662812761 4.61283884499933  C 2.18369351791469 5.34736064056246  1.44737120512461 5.85095268088057  0.606032043162115 5.98298391527456  C 0.370305588217833 6.02077123267918  0.183999711643264 6.20222235460225  0.140857913808881 6.43603654685352  C -0.0469526379362937 7.45234863188328  -0.0469526379362937 8.49425077761321  0.140857913808881 9.51056286264297  C 0.184107970124441 9.74463236735215  0.370823890527836 9.92615281102019  0.606877814306393 9.96361549422193  C 1.44874207484929 10.0951425731284  2.18571135819699 10.5986802103377  2.61178974119814 11.3334807481631  C 3.03786812419929 12.0682812859885  3.10734786975114 12.9555186887852  2.8008081625651 13.7471944415904  C 2.71515850675364 13.9691764890748  2.77918648762343 14.2208052896909  2.96065890883377 14.3754049679061  C 3.74955199104737 15.0490505653991  4.65683302934653 15.5715309219138  5.63667880933127 15.9164575994851  C 5.86165393370939 15.9947733889588  6.11284796356014 15.9248786521167  6.26254945609745 15.7396154942219  C 6.79821218211745 15.0794250391857  7.60492368726064 14.6957373994374  8.45732557550042 14.6957373994374  C 9.30972746374021 14.6957373994374  10.1164389688834 15.0794250391857  10.6521016949034 15.7396154942219  C 10.8018031874407 15.9248786521167  11.0529972172915 15.9956154942219  11.2779723416696 15.9164575994851  C 12.2578672980686 15.5716371014059  13.165167074433 15.0491459541101  13.9539922421671 14.3754049679061  C 14.1353982131134 14.221148572767  14.1997401486286 13.9699539660545  14.11468875958 13.7480365468535  C 13.8081444022669 12.9562366794743  13.8777301746657 12.0688729716979  14.3039907407995 11.3340415281355  C 14.7302513069333 10.5992100845731  15.4674462693542 10.0957628679821  16.309464878983 9.96445759948509  C 16.5445892570925 9.92656286264298  16.731504679978 9.74551023106404  16.7746390083363 9.51056286264299  Z M 13.326566025151 5.17579412029075  C 13.8499900716423 6.07849833164067  14.7121390781943 6.73719826416698  15.723345475998 7.00698391527453  C 15.8085922266967 7.6492444687594  15.8085922266967 8.29988125652648  15.723345475998 8.94214181001135  C 14.7117338166326 9.21134925988531  13.849092181697 9.86990234138901  13.3254284833829 10.7727462704541  C 12.8017647850688 11.6755901995192  12.660034277987 12.7486662033654  12.9314549287343 13.7556154942219  C 12.4167120148909 14.1518496333047  11.8509226978237 14.4775598024302  11.2492161227641 14.7240365468535  C 9.70774622970846 13.1893105894874  7.20690492129241 13.1884684842242  5.66543502823676 14.7231944415903  C 5.0637092434494 14.4764006562463  4.49623325863542 14.15209428  3.98150467997804 13.7556154942219  C 4.25248515220601 12.7487974721762  4.11066340119701 11.676035816345  3.58723935470564 10.7733316049951  C 3.06381530821427 9.87062739364521  2.2016663016623 9.21192746111891  1.19045990385864 8.94214181001137  C 1.10521315315988 8.29988125652648  1.10521315315988 7.6492444687594  1.19045990385864 7.00698391527453  C 3.29576851770739 6.44517179238072  4.54525246714499 4.29067181305325  3.98150467997804 2.19435233632715  C 4.49672348418948 1.79769284046509  5.06309162138261 1.47169374569586  5.66543502823676 1.22508917843242  C 6.40571096519571 1.96234979207852  7.40985713006729 2.37823895623003  8.45690268992829 2.37823895623003  C 9.50394824978928 2.37823895623003  10.5080944146609 1.96403400260483  11.2483703516198 1.22677338895873  C 11.8505594063462 1.473510231064  12.4172260730129 1.79772075737978  12.9323006998786 2.193510231064  C 12.6613202276506 3.20032825310964  12.8031419786596 4.27308990894084  13.326566025151 5.17579412029075  Z M 5.07339522724171 7.97372075737987  C 5.07339522724171 9.83140496790618  6.59155443122181 11.3421418100114  8.45647980435614 11.3421418100114  C 10.3214051774905 11.3421418100114  11.8395643814706 9.83140496790618  11.8395643814706 7.97372075737987  C 11.8395643814706 6.11603654685356  10.3214051774905 4.60529970474829  8.45647980435614 4.60529970474829  C 6.59155443122181 4.60529970474829  5.07339522724171 6.11603654685356  5.07339522724171 7.97372075737987  Z M 6.5030108203567 6.85077337529612  C 6.90594776079176 6.1558911184867  7.65060593329089 5.72782600362878  8.45647980435616 5.72782602053768  C 9.70225285274315 5.72782602053768  10.7121514461472 6.73334734449665  10.7121514461472 7.97372075737978  C 10.7121514461472 9.21409417026292  9.70225285274315 10.2196154942219  8.45647980435616 10.2196154942219  C 7.65060593329089 10.2196155111308  6.90594776079176 9.79155039627286  6.5030108203567 9.09666813946345  C 6.10007387992161 8.40178588265404  6.10007387992161 7.54565563210553  6.5030108203567 6.85077337529612  Z " fill-rule="nonzero" fill="#2590ff" stroke="none" transform="matrix(1 0 0 1 27 347 )" />
  </g>
</svg>