<?xml version="1.0" encoding="utf-8"?>
<svg version="1.1" xmlns:xlink="http://www.w3.org/1999/xlink" width="16px" height="17px" xmlns="http://www.w3.org/2000/svg">
  <g transform="matrix(1 0 0 1 -27 -396 )">
    <path d="M 15.200266576604 1.56898938823224  C 15.641947150275 1.56898938823224  16 1.21775914999967  16 0.78449469411612  C 16 0.351230238232574  15.641947150275 0  15.200266576604 0  C 15.200266576604 0  0.805064972389118 0  0.805064972389118 0  C 0.363384398717244 0  0.00533154899221699 0.351230238232574  0.00533154899221699 0.78449469411612  C 0.00533154899221699 1.21775914999967  0.363384398717244 1.56898938823224  0.805064972389118 1.56898938823224  C 0.805064972389118 1.56898938823224  1.40486502512977 1.57029687555746  1.40486502512977 1.57029687555746  C 1.00766408792788 3.95646823233164  1.84071973271693 5.69804646206694  3.59613461386652 7.24873096134934  C 3.59613461386652 7.24873096134934  3.9186937636432 7.52068912175491  3.9186937636432 7.52068912175491  L 4.99566809846419 8.38886326197212  L 5.2089303458315 8.57975695922664  L 5.38620459308004 8.75365328805492  L 5.17960678829968 8.96154438693407  L 5.09563477110078 9.03999385883549  L 4.92235919617269 9.19035533281408  C 4.92235919617269 9.19035533281408  3.58547149896003 10.2781879744364  3.58547149896003 10.2781879744364  C 1.77007663453332 11.828872490318  0.923692087651034 13.3978618785502  1.38620458250443 15.4310106283667  C 1.38620458250443 15.4310106283667  0.799733414935872 15.4310106283667  0.799733414935872 15.4310106283667  C 0.358052845936982 15.4310106283667  0 15.7822408628836  0 16.2155053141835  C 0 16.6487697654832  0.358052845936982 17  0.799733414935872 17  C 0.799733414935872 17  15.1949350191499 17  15.1949350191499 17  C 15.6366155881497 17  15.9946684340857 16.6487697654832  15.9946684340857 16.2155053141835  C 15.9946684340857 15.7822408628836  15.6366155881497 15.4310106283667  15.1949350191499 15.4310106283667  C 15.1949350191499 15.4310106283667  14.6537820645526 15.4310106283667  14.6537820645526 15.4310106283667  C 14.9403532142114 13.4763113504516  14.123292224861 11.9400092449448  12.4585138204175 10.397169669614  C 12.4585138204175 10.397169669614  11.954681767993 9.94870020572944  11.954681767993 9.94870020572944  L 11.0749750081786 9.17858791368872  L 10.8883705311573 8.99684664430993  L 10.68310562843 8.76280573252984  L 10.7710763010273 8.66735887560299  L 10.904365203517 8.53922473595071  L 11.1376207955636 8.34179356887171  L 12.1826057856651 7.49846177082964  C 12.1826057856651 7.49846177082964  12.4611796076051 7.26311337172433  12.4611796076051 7.26311337172433  C 14.1806064547927 5.7307337281934  15.0109963293153 3.98131057450655  14.6524491794198 1.56898938823224  C 14.6524491794198 1.56898938823224  15.200266576604 1.56898938823224  15.200266576604 1.56898938823224  Z M 4.90236586841365 6.46554376285803  C 4.90236586841365 6.46554376285803  4.57047650578443 6.18835563655239  4.57047650578443 6.18835563655239  C 3.14695102110636 4.92924165735121  2.52582472163067 3.63482540417522  2.84971675654106 1.76380556406139  C 2.84971675654106 1.76380556406139  2.88703764179263 1.56898938823201  2.88703764179263 1.56898938823201  L 13.1769410222632 1.56898938823201  C 13.1769410222632 1.56898938823201  13.2102632351944 1.76903552996146  13.2102632351944 1.76903552996146  C 13.4941686145876 3.66620519957519  12.8703765448463 4.96846639330192  11.4828390433659 6.20535302157759  C 11.4828390433659 6.20535302157759  11.2029323532142 6.44070143728209  11.2029323532142 6.44070143728209  C 11.2029323532142 6.44070143728209  10.1579473461925 7.28141824407476  10.1579473461925 7.28141824407476  C 9.59146950638205 7.75080757155934  9.30223258645765 8.09337024671663  9.22892368416615 8.5692970274265  C 9.22892368416615 8.5692970274265  9.21559479899315 8.75103831340425  9.21559479899315 8.75103831340425  C 9.21559479899315 9.27403477061534  9.50083304659802 9.68066452389849  10.071309558728 10.2128134255845  C 10.071309558728 10.2128134255845  11.3615461409163 11.3464082563828  11.3615461409163 11.3464082563828  C 11.3942264598454 11.3753441336466  11.4266612126921 11.4045457741142  11.4588470432864 11.43401015616  C 12.8210596426334 12.6983541012612  13.4261912697493 13.833256419385  13.2049316777411 15.270189205989  C 13.2049316777411 15.270189205989  13.1756081202093 15.4310106283667  13.1756081202093 15.4310106283667  L 2.89370208437958 15.4310106283667  C 2.89370208437958 15.4310106283667  2.82972341186087 15.2087371191128  2.82972341186087 15.2087371191128  C 2.46717758964496 13.7351945878074  3.06564477417487 12.6172896547093  4.54248583338449 11.3542531969333  C 4.54248583338449 11.3542531969333  4.76641117873714 11.1685894489797  4.76641117873714 11.1685894489797  C 4.76641117873714 11.1685894489797  5.96201264574211 10.1971235278843  5.96201264574211 10.1971235278843  C 6.48583804284681 9.7421166107747  6.78040652022446 9.37340410611705  6.84038653734387 8.92362713830835  C 6.84038653734387 8.92362713830835  6.85104963532922 8.7235809965789  6.85104963532922 8.7235809965789  C 6.82972340551532 8.26072912231962  6.59246915806943 7.88547916443667  6.12995668013809 7.4670819920284  C 6.12995668013809 7.4670819920284  5.90603131786429 7.27357330352424  5.90603131786429 7.27357330352424  L 4.90236586841365 6.46554376285803  Z M 9.57547483402232 13.601830498854  C 9.57547483402232 13.1089063331187  9.25958012683077 12.7846485303119  8.78107297653969 12.7846485137129  C 8.78107297653969 12.7846485137129  7.19226922773214 12.7846485137129  7.19226922773214 12.7846485137129  C 6.70309894561251 12.7846485137129  6.38720425534302 13.1089063165198  6.38720425534302 13.601830498854  C 6.38720425534302 14.0960621519143  6.70309896253457 14.4203199547212  7.1816061297468 14.4203199547212  C 7.1816061297468 14.4203199547212  8.78107297653969 14.4203199547212  8.78107297653969 14.4203199547212  C 9.26091302888563 14.4203199547212  9.57547485094346 14.0960621519143  9.57547483402232 13.601830498854  Z " fill-rule="nonzero" fill="#2590ff" stroke="none" transform="matrix(1 0 0 1 27 396 )" />
  </g>
</svg>