<?xml version="1.0" encoding="utf-8"?>
<svg version="1.1" xmlns:xlink="http://www.w3.org/1999/xlink" width="12px" height="13px" xmlns="http://www.w3.org/2000/svg">
  <g transform="matrix(1 0 0 1 -29 -154 )">
    <path d="M 0 5.96546052631579  C 0 2.670827651914  2.74540441170013 0  6.13203238143564 0  C 8.77891865572823 0.00042311031102707  11.1270191833879 1.65245783827207  11.9563642132652 4.09777960526316  C 12.0421149912007 4.31150726465767  11.9995461761976 4.553830515556  11.8457021229856 4.72772425995398  C 11.6918580697736 4.90161800435197  11.4518861023947 4.97865759893093  11.2218698759125 4.92799674979825  C 10.9918536494304 4.87733590066557  10.8093915790029 4.70725562202221  10.747540625527 4.4858552631579  C 9.99836133181219 2.28397476927732  7.71785441197187 0.9360261335703  5.36387123458247 1.30370758033944  C 3.00988805719306 1.67138902710859  1.2777520153133 3.64609421048538  1.27475941979666 5.96546052631579  C 1.27475941979666 5.96546052631579  1.27475941979666 11.5460526315789  1.27475941979666 11.5460526315789  C 1.27475941979666 11.6636513157895  1.37366316788433 11.7598684210526  1.49454552665815 11.7598684210526  C 1.49454552665815 11.7598684210526  6.40676501501251 11.7598684210526  6.40676501501251 11.7598684210526  C 6.71877244616023 11.7600422125398  6.98478660189056 11.9799216033667  7.03535328063638 12.2794407894737  C 7.03535328063638 12.2794407894737  7.04414472491083 12.3799342105263  7.04414472491083 12.3799342105263  C 7.04414472491083 12.7220394736842  6.7584227859909 13  6.40676501501251 13  C 6.40676501501251 13  0.659358320584478 13  0.659358320584478 13  C 0.295204775451628 13  0 12.712814230977  0 12.3585526315789  C 0 12.3585526315789  0 5.96546052631579  0 5.96546052631579  Z " fill-rule="nonzero" fill="#2590ff" stroke="none" transform="matrix(1 0 0 1 29 154 )" />
  </g>
</svg>