<?xml version="1.0" encoding="utf-8"?>
<svg version="1.1" xmlns:xlink="http://www.w3.org/1999/xlink" width="16px" height="17px" xmlns="http://www.w3.org/2000/svg">
  <g transform="matrix(1 0 0 1 -27 -150 )">
    <path d="M 16 11.3567567567568  C 16 11.7030542215156  15.7188908425862 11.9837837837838  15.3721251234853 11.9837837837838  C 15.3721251234853 11.9837837837838  11.0419535613146 11.9837837837838  11.0419535613146 11.9837837837838  C 10.6951878422136 11.9837837837838  10.4140786847999 11.7030542215156  10.4140786847999 11.3567567567568  C 10.4140786847999 11.010459291998  10.6951878422136 10.7297297297298  11.0419535613146 10.7297297297298  C 11.0419535613146 10.7297297297298  15.3721251234853 10.7297297297298  15.3721251234853 10.7297297297298  C 15.7188908425862 10.7297297297298  16 11.010459291998  16 11.3567567567568  Z M 16 13.8648648648647  C 16 14.2111623296235  15.7188908425862 14.4918918918918  15.3721251234853 14.4918918918918  C 15.3721251234853 14.4918918918918  11.0419535613146 14.4918918918918  11.0419535613146 14.4918918918918  C 10.6951878422136 14.4918918918918  10.4140786847999 14.2111623296235  10.4140786847999 13.8648648648647  C 10.4140786847999 13.518567400106  10.6951878422136 13.2378378378377  11.0419535613146 13.2378378378377  C 11.0419535613146 13.2378378378377  15.3721251234853 13.2378378378377  15.3721251234853 13.2378378378377  C 15.7188908425862 13.2378378378377  16 13.518567400106  16 13.8648648648647  Z M 15.3721251234853 17  C 15.3721251234853 17  11.0419535613146 17  11.0419535613146 17  C 10.6951878422136 17  10.4140786847999 16.7192704377317  10.4140786847999 16.372972972973  C 10.4140786847999 16.0266755082142  10.6951878422136 15.7459459459459  11.0419535613146 15.7459459459459  C 11.0419535613146 15.7459459459459  15.3721251234853 15.7459459459459  15.3721251234853 15.7459459459459  C 15.7188908425862 15.7459459459459  16 16.0266755082142  16 16.372972972973  C 16 16.7192704377317  15.7188908425862 17  15.3721251234853 17  Z M 14.0730736548339 5.21081081081076  C 13.826286438199 5.44552887561856  13.437064892715 5.44078938572899  13.1960819156966 5.20013181955474  C 12.9550989386781 4.95947425338049  12.9503530401747 4.57077829237247  13.1853884845889 4.32432432432427  C 13.1853884845889 4.32432432432427  14.2571059462261 3.254054054054  14.2571059462261 3.254054054054  C 14.4143258148399 3.08919610859613  14.6486715808572 3.02239218044841  14.8693448631429 3.07952576916091  C 15.0900181454286 3.13665935787341  15.2623445506785 3.30875306253293  15.31955539393 3.52912835912703  C 15.3767662371815 3.74950365572113  15.3098719785156 3.98353297343776  15.1447911164711 4.14054054054049  C 15.1447911164711 4.14054054054049  14.0730736548339 5.21081081081076  14.0730736548339 5.21081081081076  Z M 1.87883017663117 5.38533909570382  C 2.0995034589169 5.32820550699133  2.27182986416674 5.15611180233181  2.32904070741825 4.93573650573771  C 2.38625155066976 4.71536120914361  2.31935729200388 4.48133189142698  2.15427642995936 4.32432432432426  C 2.15427642995936 4.32432432432426  1.08255896832213 3.25405405405398  1.08255896832213 3.25405405405398  C 0.925339099708313 3.08919610859612  0.690993333691078 3.02239218044841  0.47032005140535 3.07952576916091  C 0.249646769119619 3.13665935787341  0.0773203638697832 3.30875306253292  0.0201095206182724 3.52912835912702  C -0.0371013226332385 3.74950365572112  0.0297929360326421 3.98353297343775  0.194873798077154 4.14054054054047  C 0.194873798077154 4.14054054054047  1.26659125971438 5.21081081081074  1.26659125971438 5.21081081081074  C 1.4238111283282 5.37566875626861  1.65815689434544 5.44247268441632  1.87883017663117 5.38533909570382  Z M 7.66983245727416 2.76756754114036  C 8.01659816604072 2.76756754114036  8.29770731917382 2.48683799497884  8.2977073337889 2.14054054054054  C 8.2977073337889 2.14054054054054  8.2977073337889 0.627027027027028  8.2977073337889 0.627027027027028  C 8.2977073337889 0.28072956226826  8.01659817637515 0  7.66983245727416 0  C 7.32306673817318 0  7.04195758075942 0.28072956226826  7.04195758075942 0.627027027027028  C 7.04195758075942 0.627027027027028  7.04195758075942 2.14054054054054  7.04195758075942 2.14054054054054  C 7.0419575953745 2.48683799497884  7.3230667485076 2.76756754114036  7.66983245727416 2.76756754114036  Z " fill-rule="nonzero" fill="#2590ff" stroke="none" transform="matrix(1 0 0 1 27 150 )" />
  </g>
</svg>