<?xml version="1.0" encoding="utf-8"?>
<svg version="1.1" xmlns:xlink="http://www.w3.org/1999/xlink" width="18px" height="18px" xmlns="http://www.w3.org/2000/svg">
  <g transform="matrix(1 0 0 1 -1487 -24 )">
    <path d="M 17.7642688751221 16.7116330031034  C 17.7642688751221 16.7116330031034  13.745756149292 12.7247896146808  13.745756149292 12.7247896146808  C 13.6659585162997 12.6434220034433  13.5653155222535 12.5857036022182  13.4549036026001 12.5579881407885  C 14.577455163002 11.2105538282384  15.2423515495812 9.50178643475999  15.2423515319824 7.64050354801145  C 15.2423515319824 3.41753383087717  11.8336262702942 0  7.62128114700317 0  C 3.40893602371216 0  0 3.41732397140175  0 7.64050354801145  C 0 11.8634732651457  3.40872669219971 15.2807976969441  7.62128114700317 15.2807977145873  C 9.4778813123703 15.2807977145873  11.1685192584991 14.6140124940484  12.4987335205078 13.5165698158017  C 12.5402241274714 13.6138354998097  12.5957538112998 13.711101288389  12.6789445877075 13.7942918222686  C 12.6789445877075 13.7942918222686  16.6974582672119 17.7811342546117  16.6974582672119 17.7811342546117  C 16.8425085991621 17.9215329774566  17.0362583547831 18  17.2378826141357 18  C 17.4395068734884 18  17.633258536458 17.9215329774566  17.7783088684082 17.7811342546117  C 18.082992464304 17.4895472413279  18.0691620409489 17.003430085005  17.7642688751221 16.7116330031034  Z M 7.62128114700317 13.8915576257866  C 4.17085480690002 13.8915576257866  1.38574457168579 11.0994227191287  1.38574457168579 7.64050354801145  C 1.38574457168579 4.18158437689423  4.17106413841248 1.38923973027082  7.62128114700317 1.38923973027082  C 11.0714981555939 1.38923973027082  13.8568181991577 4.18158437689423  13.8568181991577 7.64050354801145  C 13.8568181991577 11.0994227191287  11.0714981555939 13.8915576257866  7.62128114700317 13.8915576257866  Z " fill-rule="nonzero" fill="#2590ff" stroke="none" transform="matrix(1 0 0 1 1487 24 )" />
  </g>
</svg>