<?xml version="1.0" encoding="utf-8"?>
<svg version="1.1" xmlns:xlink="http://www.w3.org/1999/xlink" width="132px" height="26px" xmlns="http://www.w3.org/2000/svg">
  <g transform="matrix(1 0 0 1 -77 -23 )">
    <path d="M 23 1.15380960946562  L 23 18.0124040859552  L 25.4389246301536 18.0124040859552  L 25.4389246301536 17.684599231954  L 38.6551348009665 17.684599231954  L 38.6551348009665 18.027472153419  L 42 18.027472153419  L 42 1.16902966890746  L 38.6608949925059 1.15396148223421  L 23 1.15380960946562  Z M 26 15.6785769200635  L 26 3.17676060904923  L 39 3.17676060904923  L 39 15.6785769200635  L 26 15.6785769200635  Z M 10.7045578050191 0.411133174426599  L 7.68761027940455 0.411133174426599  L 7.68761027940455 3.91530214703089  L 0 3.91530214703089  L 0 12.5150552295291  L 2.93500760887432 12.5150552295291  L 2.93500760887432 12.0757104366394  L 7.68366969804019 12.0757104366394  L 7.68366969804019 18.3530759251603  L 10.7007650431396 18.3530759251603  L 10.7007650431396 12.0757104366394  L 15.5620233796962 12.0757104366394  L 15.5620233796962 12.5150552295291  L 18.5008235120314 12.5150552295291  L 18.5008235120314 3.9211872764182  L 10.7045578050191 3.9211872764182  L 10.7045578050191 0.411133174426599  Z M 2.93505791518289 6.35693918985736  L 7.68370689132994 6.35693918985736  L 7.68370689132994 9.86879359212458  L 2.93505791518289 9.86879359212458  L 2.93505791518289 6.35693918985736  Z M 10.7045873689161 9.86879359212458  L 10.7045873689161 6.35693918985736  L 15.5658304466871 6.35693918985736  L 15.5620386384817 9.86879359212458  L 10.7045873689161 9.86879359212458  Z M 64.3687061266567 2.43993902421132  L 56.2006706005049 2.43993902421132  C 56.2006706005049 2.43993902421132  56.265474662671 0.54574180008093  56.265474662671 0.54574180008093  C 56.265474662671 0.54574180008093  55.4663819585842 0.560817869475396  54.8236109823491 0.524940475998344  C 54.1809776928115 0.488919502256212  53.3838759026092 0.382812836995788  53.3838759026092 0.382812836995788  C 53.3838759026092 0.382812836995788  53.3838759026092 2.44010043373146  53.3838759026092 2.44010043373146  L 44.7006732592327 2.44010043373146  L 44.7006732592327 4.4951268666724  L 53.3856840686951 4.4951268666724  L 53.3856840686951 5.74155645360781  L 46 5.74155645360781  L 46 18.0274015814575  L 49 18.0274015814575  L 49 7.79868240240455  L 51.6139483332898 7.79868240240455  L 50.6603810488658 8.419941684965  L 51.995429415748 9.7762470476418  L 49.4532775986926 9.7762470476418  L 49.4532775986926 11.8333729964385  L 53.3743162734716 11.8333729964385  L 53.3743162734716 12.8430365134341  L 49.4532775986926 12.8430365134341  L 49.4532775986926 14.6764989352584  L 53.3743162734716 14.6764989352584  L 53.3743162734716 17.6921923935456  L 55.9965767145846 17.6921923935456  L 55.9965767145846 14.6764989352584  L 59.6200576273467 14.6764989352584  L 59.6200576273467 12.8430365134341  L 55.9965767145846 12.8430365134341  L 55.9965767145846 11.8333729964385  L 59.6200576273467 11.8333729964385  L 59.6200576273467 9.7762470476418  C 59.6200576273467 9.7762470476418  57.6214504539142 9.7762470476418  57.6214504539142 9.7762470476418  C 58.0540881645981 9.34973860314173  58.4066950054657 8.85003904749566  58.6627137935029 8.30057111937108  C 58.6627137935029 8.30057111937108  57.7892780213147 7.79868240240455  57.7892780213147 7.79868240240455  L 60.6194279712497 7.79868240240455  C 60.6194279712497 7.79868240240455  60.6194279712497 15.2676239902414  60.6194279712497 15.2676239902414  C 60.6192902950149 15.4246122574602  60.5555849741537 15.5749599057542  60.4426511261331 15.684799650456  C 60.3295402672595 15.7944958148929  60.17673808856 15.8544043326478  60.0186857700496 15.8510481183402  C 60.0186857700496 15.8510481183402  58.2449663925249 15.8168226243438  58.2449663925249 15.8168226243438  C 58.4910331443363 16.221147750251  58.6833648162887 16.6554101102111  58.817186108864 17.1087682654468  C 58.9528562029824 17.5043349281288  59.0411692219572 17.9144025195804  59.0803086066255 18.330483360716  C 59.0803086066255 18.330483360716  61.5767908785754 18.1410281615872  61.5767908785754 18.1410281615872  C 62.5152314017223 18.0689144202451  63.2396800984115 17.2915647854275  63.2397391025106 16.3566885933702  C 63.2397391025106 16.3566885933702  63.2397391025106 5.74169998171878  63.2397391025106 5.74169998171878  L 56.0880912808294 5.74169998171878  L 56.1299652030332 4.49527039478337  L 64.3687061266567 4.49527039478337  L 64.3687061266567 2.43993902421132  Z M 55.7618775195781 9.7759027709105  L 53.2597838292477 9.7759027709105  L 54.2456577773452 9.20770025197565  L 52.6953003171747 7.79834670874966  C 52.6953003171747 7.79834670874966  56.368395171103 7.79834670874966  56.368395171103 7.79834670874966  C 56.0239287433067 8.41884460090749  55.6043790472989 8.99518989634725  55.1190935495334 9.51455953852686  C 55.1190935495334 9.51455953852686  55.7618775195781 9.7759027709105  55.7618775195781 9.7759027709105  Z M 78.708149832951 3.25246834972236  C 78.708149832951 3.25246834972236  79.3985946196135 2.7523920923897  79.3985946196135 2.7523920923897  C 79.3985946196135 2.7523920923897  79.2764444055252 2.37349588004997  78.4087724607589 1.29767532143988  C 78.0664709029626 0.846260040915599  77.7004140684948 0.413090354265378  77.3121159149827 0  C 77.3121159149827 0  75.9047115791872 1.00015244015945  75.0846918083672 1.19911227881706  C 75.7659838271034 1.79297247414733  76.3535885417835 2.48515502833296  76.8277562857527 3.25246834972236  C 76.8277562857527 3.25246834972236  67.6011730306977 3.25246834972236  67.6011730306977 3.25246834972236  L 67.6011730306977 5.54638778661973  C 67.6011730306977 5.54638778661973  74.4305247843136 5.54638778661973  74.4305247843136 5.54638778661973  C 74.4953109576399 6.68277983066544  74.4877330707242 9.1794197304826  73.4769651292824 11.3672184875651  C 72.1076392119982 14.318403689373  70.9461979159562 14.5874374476212  70.1566762850961 15.0324991952449  C 69.3671546542359 15.4777276572067  68.230600795029 15.816687232274  67.3246914662005 16.1179703503861  C 67.3246914662005 16.1179703503861  68.7645892963853 17.407791918498  69.1363518139575 18.3303498461942  C 69.1363518139575 18.3303498461942  71.2018880738604 17.777203235365  73.5933515159488 15.7713227826539  C 75.9848149580372 13.7652756752093  76.5875340362311 11.2250877491183  76.9116643474083 9.91431632201825  C 76.9116643474083 9.91431632201825  81.9254189865993 9.91431632201825  81.9254189865993 9.91431632201825  C 81.9254189865993 9.91431632201825  81.9140283031976 13.9149454541827  81.9140283031976 13.9149454541827  C 81.9140283031976 15.0514856755057  81.2522832655685 15.9550387646943  79.8658033739024 15.9550387646943  C 79.8658033739024 15.9550387646943  77.558255384444 15.9550387646943  77.558255384444 15.9550387646943  C 77.8667676133708 16.3639428426533  78.1229964034241 16.8093008554246  78.3210649615051 17.2809066310941  C 78.4468075765057 17.6814381266379  78.5242833690173 18.0953980240291  78.5518693515039 18.5140639208843  C 79.5086821080856 18.5588349796663  80.4662286572795 18.4423046933802  81.3838465410067 18.1693809239733  C 83.0487593335795 17.7071294796873  84.7250628095539 17.2771276932887  84.7250628095539 13.6232944253432  C 84.7250628095539 10.5091959960902  84.7517733136325 7.8799288499646  84.7517733136325 7.8799288499646  C 84.7517733136325 7.8799288499646  77.239751124584 7.8799288499646  77.239751124584 7.8799288499646  C 77.239751124584 7.8799288499646  77.2911896119339 6.39868620059926  77.2702458074753 5.54064523166824  C 77.2702458074753 5.54064523166824  87.2711742814557 5.54064523166824  87.2711742814557 5.54064523166824  L 87.2711742814557 3.25246834972236  L 78.708149832951 3.25246834972236  Z M 107.949415045209 14.217891811569  C 107.906928137804 14.6242306523703  107.806790998001 15.0227199717771  107.652006056351 15.4017669840009  C 107.554576482988 15.6211143560316  107.398751328768 15.8098963350062  107.201322566796 15.947820397439  C 107.003560331815 16.0859795855012  106.771769738493 16.1682878013357  106.530637907401 16.1859578522531  C 106.530637907401 16.1859578522531  101.016280661778 16.1859578522531  101.016280661778 16.1859578522531  C 100.877521483153 16.1861567985735  100.74439628326 16.1315566227247  100.646201706811 16.0341995246883  C 100.548007130361 15.9368424266519  100.49280621962 15.8046870930833  100.492766988866 15.6668896310275  C 100.492766988866 15.6668896310275  100.492766988866 13.4184888709044  100.492766988866 13.4184888709044  L 105.228666772862 13.4184888709044  L 105.228666772862 13.7423741200146  L 107 13.7423741200146  L 107 2.81284126898657  L 100.492766988866 2.81284126898657  L 100.492766988866 0.293457289584782  L 97.8463595196442 0.293457289584782  L 97.8463595196442 2.81284126898657  L 91 2.81284126898657  L 91 13.7423741200146  L 93.6276028655999 13.7423741200146  L 93.6276028655999 13.4184888709044  L 97.8524401456798 13.4184888709044  C 97.8524401456798 13.4184888709044  97.8524401456798 16.6139825210417  97.8524401456798 16.6139825210417  C 97.8524401456798 17.5895791521402  98.6415090197629 18.3794870049289  100.149833413365 18.3794870049289  C 100.149833413365 18.3794870049289  107.797689311244 18.3794870049289  107.797689311244 18.3794870049289  C 108.167929556343 18.3517611219075  108.52755961088 18.2411285136602  108.84927140455 18.0557467144424  C 109.171159747137 17.8705276807515  109.446617810713 17.6153159239689  109.655011574714 17.309246042028  C 109.655011574714 17.309246042028  110.595822514431 15.3562623739351  110.595822514431 15.3562623739351  C 110.146355764011 15.2576935124038  109.707366077208 15.1168937840994  109.284772402498 14.9357622021269  C 108.768848783297 14.6857228515643  107.949415045209 14.217891811569  107.949415045209 14.217891811569  Z M 100.492896688543 11.4259047956362  L 100.492896688543 9.21534014364989  L 105.228796472539 9.21534014364989  L 105.228796472539 11.4259047956362  L 100.492896688543 11.4259047956362  Z M 105.228796472539 7.26431627800247  L 100.492896688543 7.26431627800247  L 100.492896688543 4.91162541752632  L 105.228796472539 4.91162541752632  L 105.228796472539 7.26431627800247  Z M 97.8463366314659 4.91162541752632  L 97.8463366314659 7.26431627800247  L 93.6218045270967 7.26431627800247  L 93.6218045270967 4.91162541752632  L 97.8463366314659 4.91162541752632  Z M 93.6218045270967 9.21534014364989  L 97.8463366314659 9.21534014364989  L 97.8463366314659 11.4259047956362  L 93.6218045270967 11.4259047956362  L 93.6218045270967 9.21534014364989  Z M 113 17.7070411157236  L 116.463664785752 17.7070411157236  C 116.463664785752 17.7070411157236  116.463664785752 6.6846615509575  116.463664785752 6.6846615509575  C 116.87185497158 7.1677207566334  117.988675197778 8.51255588077916  118.654834017936 9.46343778179267  C 118.113369277912 10.6699543945204  117.372789665213 11.7781627151014  116.463664785752 12.7422864552599  C 116.463664785752 12.7422864552599  118.179873800596 14.479297986513  118.179873800596 14.479297986513  C 118.877892905347 13.6177901699713  119.501562206673 12.6990242335093  120.043276690101 11.7327717115887  C 120.446917939899 12.4354276455462  120.7488734508 12.9885511297529  120.7488734508 12.9885511297529  C 121.475738097511 12.2972094190314  122.776163326341 11.6985605227196  122.776163326341 11.6985605227196  C 122.776163326341 11.6985605227196  121.911238737831 10.3727002857211  121.198038691194 9.29870279638096  C 121.466621479794 8.54301239095458  121.686645105679 7.7719343176777  121.85962911441 6.98955912771295  C 122.144909127105 7.23403043097644  122.987091598461 8.01821615832357  124.210145843935 9.67745297721245  C 124.176769224981 9.76275393744504  124.143373230796 9.84611036893584  124.105447686988 9.92945019306787  C 123.411799091805 11.4829702135704  122.406499100396 12.8796666993362  121.15099585539 14.0342216059361  C 121.15099585539 14.0342216059361  122.572832439302 14.7104945339375  123.223810317575 15.3865997343208  C 123.223810317575 15.3865997343208  124.536395010337 14.2369388502023  125.727571030225 11.9485969824544  C 126.587960004339 13.4015124994535  126.797356854674 14.1573534663451  126.797356854674 14.1573534663451  C 127.421023354583 13.5654932470262  128.091722795926 13.0256282614773  128.803406500751 12.5434909616537  C 128.803406500751 12.5434909616537  127.774586700766 10.8235095652885  126.788254989103 9.4198739006693  C 127.169133766765 8.26251971906784  127.448334375319 6.92340029795746  127.768525148213 4.8888659599298  C 126.859632130766 4.84830232967114  125.960834409275 4.68257821548452  125.097840951205 4.39648729161831  C 125.090241571232 5.27063350934998  125.018942673686 6.14283530264808  124.885400509597 7.0067400624848  C 124.249603573212 6.24893768382089  123.751878737969 5.70349098659602  123.751878737969 5.70349098659602  C 123.475660894162 5.97124446574971  123.174913837352 6.21283258549918  122.853563515966 6.4251379307714  C 122.552727976082 6.62391648174233  122.221776659945 6.77356634529617  121.873293356857 6.86838802342461  C 122.16767121181 5.54252719037909  122.28148875809 4.51961962886484  122.28148875809 4.51961962886484  C 121.871782290054 4.54372314071927  121.462073437833 4.52593851653519  121.055399564015 4.4665681104526  C 120.598634017913 4.39335243472075  120.15099990128 4.27209725055636  119.720065094904 4.10484770688075  C 119.677572785829 5.01516598881148  119.569826138854 5.92157903058334  119.399874739242 6.81729773797056  C 118.812635311543 6.04442645737703  118.255740482275 5.31887379620519  118.255740482275 5.31887379620519  C 117.718574905075 5.81713598457717  116.80659472537 6.26611830566807  116.445445795823 6.4326638582645  C 116.445445795823 6.4326638582645  116.445445795823 4  116.445445795823 4  L 128.888382677394 4  C 128.888382677394 4  128.888382677394 15.096921859379  128.888382677394 15.096921859379  C 128.888382677394 15.1793733053009  128.871679962223 15.2609028677223  128.838303343269 15.3368674822888  C 128.8064430326 15.4126812448171  128.759406559591 15.4812537705129  128.698700714412 15.5383780890639  C 128.639529014203 15.5956532633783  128.568200256599 15.6401054873214  128.490815020286 15.6693548813056  C 128.413411947287 15.6985875133313  128.329974911228 15.7119970158329  128.246506605089 15.7086949351633  C 128.246506605089 15.7086949351633  126.380067217262 15.6328806212915  126.380067217262 15.6328806212915  C 126.667844693798 16.0358853243405  126.902428136611 16.4738724116339  127.078087990943 16.9361301740178  C 127.21921168528 17.3566342201314  127.301148310727 17.7946039624579  127.320878156979 18.2374180169484  C 127.320878156979 18.2374180169484  129.88380481054 17.9154897092582  129.88380481054 17.9154897092582  C 130.340802278261 17.8580804392762  130.761056202984 17.6372100405708  131.065887667133 17.2942294730226  C 131.370897527942 16.9511483225478  131.539265909027 16.5092553692461  131.539337264705 16.0515735786792  C 131.539337264705 16.0515735786792  131.539337264705 1.47558723648121  131.539337264705 1.47558723648121  L 113 1.47558723648121  L 113 17.7070411157236  Z M 2.66991958880116 25.1266700685971  C 1.81560539946865 25.1266700685971  1.12335453288234 24.2629093137089  1.12335453288234 23.1983961237947  C 1.12335453288234 22.1338829338804  1.81560539946865 21.2701259936928  2.66991958880116 21.2701259936928  C 3.25929238545276 21.2701259936928  3.77035959813445 21.6791687717823  4.03166391623204 22.2835450834524  C 4.03166391623204 22.2835450834524  5.13969350243921 21.8723871134718  5.13969350243921 21.8723871134718  C 4.67627038727636 20.9252827793557  3.69403312633211 20.4707211456778  2.64139471975506 20.4707211456778  C 1.18617721790494 20.4707211456778  0 21.5750234512389  0 23.1661409226704  C 0 24.7572637585248  0.953555005870009 25.9108485390724  2.64139471975506 25.9108485390724  C 3.93439654942217 25.9108485390724  4.87838918434162 25.3654053585246  5.24833939330606 24.2913936832666  C 5.24833939330606 24.2913936832666  4.11739587959616 23.8727054942546  4.11739587959616 23.8727054942546  C 3.89813075244294 24.6038313734331  3.33364558634138 25.1266700685971  2.66991958880116 25.1266700685971  Z M 34.4423748496374 23.1661409226704  C 34.4423748496374 25.0300589605997  35.5523773491305 25.9108485390724  37.3335408682295 25.9108485390724  C 39.1148489881633 25.9108485390724  40.2228758325575 25.0320174517418  40.2228758325575 23.1661409226704  C 40.2228758325575 21.3004167432052  38.8669000413143 20.4707211456778  37.3335408682295 20.4707211456778  C 35.7983550516232 20.4707211456778  34.4423748496374 21.3022283683733  34.4423748496374 23.1661409226704  Z M 35.6267007477036 23.2023348021887  C 35.6267007477036 21.9085817082464  36.3895148547167 21.3081242266061  37.3335103506585 21.3081242266061  C 38.2776530700388 21.3081242266061  39.0500245412134 21.9085817082464  39.0500245412134 23.2023348021887  C 39.0500245412134 24.496087896131  38.2852404415413 25.0965453777713  37.3430661650996 25.0965453777713  C 37.3430661650996 25.0965453777713  37.3335103506585 25.0965453777713  37.3335103506585 25.0965453777713  C 36.3914866951193 25.0965453777713  35.6267007477036 24.496087896131  35.6267007477036 23.2023348021887  Z M 83.8288380411696 23.1661409226704  C 83.8288380411696 25.0300589605997  84.9388351762459 25.9108485390724  86.7201490182243 25.9108485390724  C 88.5013068152788 25.9108485390724  89.6093390240897 25.0320174517418  89.6093390240897 23.1661409226704  C 89.6093390240897 21.3004167432052  88.2533578684297 20.4707211456778  86.7201490182243 20.4707211456778  C 85.1848128787387 20.4707211456778  83.8288380411696 21.3022283683733  83.8288380411696 23.1661409226704  Z M 85.0036424570621 23.2023348021887  C 85.0036424570621 21.9085817082464  85.7666042643508 21.3081242266061  86.7201566476171 21.3081242266061  C 87.6737124283473 21.3081242266061  88.4365258797094 21.9085817082464  88.4365258797094 23.2023348021887  C 88.4365258797094 24.496087896131  87.6737175543456 25.0965453777713  86.729571318292 25.0965453777713  C 86.729571318292 25.0965453777713  86.7201566476171 25.0965453777713  86.7201566476171 25.0965453777713  C 85.7779842785236 25.0965453777713  85.0036424570621 24.496087896131  85.0036424570621 23.2023348021887  Z M 13.4089744084735 20.5615415381284  L 13.4089744084735 25.9089774284164  L 12.3256807441294 25.9089774284164  L 12.3256807441294 20.5615415381284  L 13.4089744084735 20.5615415381284  Z M 26.0665108498057 25.9107855965121  L 23.7454473910598 20.5615415381284  L 22.399029321606 20.5615415381284  L 20.0781203580636 25.9107855965121  L 21.2853859328331 25.9107855965121  L 21.8327242920097 24.6492850810873  L 24.3119069158596 24.6492850810873  L 24.8612155657183 25.9107855965121  L 26.0665108498057 25.9107855965121  Z M 23.0647415242648 21.7910348079694  L 23.945762820212 23.8121490292027  L 22.1911569789177 23.8046111807702  L 23.0647415242648 21.7910348079694  Z M 18.2987247123199 24.1662371705016  L 15.8634015601415 20.5615415381284  L 15.7679540419251 20.5843000420497  L 15.7679540419251 20.5615415381284  L 14.6848110580881 20.5615415381284  L 14.6848110580881 25.9089774284164  L 15.7679540419251 25.9089774284164  L 15.7679540419251 22.2890573258538  L 18.2148090212714 25.9089774284164  L 18.2987247123199 25.8919447901313  L 18.2987247123199 25.9089774284164  L 19.382018376664 25.9089774284164  L 19.382018376664 20.5615415381284  L 18.2987247123199 20.5615415381284  L 18.2987247123199 24.1662371705016  Z M 73.8089657849478 24.1662371705016  L 71.3736407254212 20.5615415381284  L 71.2781970219012 20.5843000420497  L 71.2781970219012 20.5615415381284  L 70.195052130716 20.5615415381284  L 70.195052130716 25.9089774284164  L 71.2781970219012 25.9089774284164  L 71.2781970219012 22.2890573258538  L 73.7250500938993 25.9089774284164  L 73.8089657849478 25.8919447901313  L 73.8089657849478 25.9089774284164  L 74.8902872512616 25.9089774284164  L 74.8902872512616 20.5615415381284  L 73.8089657849478 20.5615415381284  L 73.8089657849478 24.1662371705016  Z M 9.91125831343719 22.6376675570569  L 7.38822337047152 22.6376675570569  L 7.38822337047152 20.5615415381284  L 6.3049301829644 20.5615415381284  L 6.3049301829644 25.9089774284164  L 7.38822337047152 25.9089774284164  L 7.38822337047152 23.4616371697386  L 9.91125831343719 23.4616371697386  L 9.91125831343719 25.9089774284164  L 10.9945510241073 25.9089774284164  L 10.9945510241073 20.5615415381284  L 9.91125831343719 20.5615415381284  L 9.91125831343719 22.6376675570569  Z M 44.8381243993298 24.1591055876854  C 44.8381243993298 24.8486346003544  44.2658996762016 25.096715131949  43.581235346653 25.096715131949  C 42.8965662487339 25.096715131949  42.3244950671352 24.8486346003544  42.3244950671352 24.1591055876854  C 42.3244950671352 24.1591055876854  42.3244950671352 20.5771665518833  42.3244950671352 20.5771665518833  L 41.2031154740963 20.5771665518833  C 41.2031154740963 20.5771665518833  41.2031154740963 24.0985166976782  41.2031154740963 24.0985166976782  C 41.2031154740963 25.4016129471233  42.2672908338395 25.9111880474279  43.581235346653 25.9111880474279  C 44.8933541696192 25.9111880474279  45.9575317943384 25.4016129471233  45.9575317943384 24.0985166976782  C 45.9575317943384 24.0985166976782  45.9575317943384 20.5771665518833  45.9575317943384 20.5771665518833  L 44.8381243993298 20.5771665518833  C 44.8381243993298 20.5771665518833  44.8381243993298 24.1591055876854  44.8381243993298 24.1591055876854  Z M 46.8041883979131 20.5786313969228  L 46.8041883979131 21.3760754888172  L 48.6293527708683 21.3760754888172  L 48.6293527708683 25.8540247585808  L 49.7124976620535 25.8540247585808  L 49.7124976620535 21.3760754888172  L 51.5396342330391 21.3760754888172  L 51.5396342330391 20.5786313969228  L 46.8041883979131 20.5786313969228  Z M 56.0116256918183 22.6452607186485  L 53.4732656829682 22.6452607186485  L 53.4732656829682 20.5786313969228  L 52.3901246064794 20.5786313969228  L 52.3901246064794 25.8540247585808  L 53.4732656829682 25.8540247585808  L 53.4732656829682 23.4446636593132  L 56.0116256918183 23.4446636593132  L 56.0116256918183 25.8540247585808  L 57.0949193561625 25.8540247585808  L 57.0949193561625 20.5786313969228  L 56.0116256918183 20.5786313969228  L 56.0116256918183 22.6452607186485  Z M 59.618211314297 23.4446636593132  L 62.680996708495 23.4446636593132  L 62.680996708495 22.6452607186485  L 59.618211314297 22.6452607186485  L 59.618211314297 21.3760754888172  L 62.8545882821312 21.3760754888172  L 62.8545882821312 20.5786313969228  L 58.5329454519225 20.5786313969228  L 58.5329454519225 25.8540247585808  L 62.9632384645315 25.8540247585808  L 62.9632384645315 25.0547705912404  L 59.618211314297 25.0547705912404  L 59.618211314297 23.4446636593132  Z M 67.4488064277403 23.5946710392917  C 68.2211815347974 23.5055971538775  68.928756036757 22.8671603638153  68.928756036757 22.0924724512591  C 68.928756036757 21.2552391245086  68.1067652003947 20.5771665518833  67.2638318000951 20.5771665518833  C 67.2638318000951 20.5771665518833  64.1323093917594 20.5771665518833  64.1323093917594 20.5771665518833  L 64.1323093917594 25.8543680816369  L 65.2156068707999 25.8543680816369  L 65.2156068707999 23.6059739972399  C 65.2156068707999 23.6059739972399  66.2092208378599 23.6059739972399  66.2092208378599 23.6059739972399  C 66.3770479433245 23.7764328813329  66.5905459349988 24.0037160823597  66.8614118491868 24.2992710400547  C 67.2887165547217 24.7769738696125  67.6639449921793 25.2982407591078  67.9808192441954 25.8543680816369  C 67.9808192441954 25.8543680816369  69.3635017248208 25.8543680816369  69.3635017248208 25.8543680816369  C 68.9522619872571 25.2167027253688  68.485807201748 24.6158766482808  67.9694361901864 24.0587255554718  C 67.8086241027552 23.8905042019111  67.6345242208259 23.7353242965032  67.4488064277403 23.5946710392917  Z M 67.0404431798662 21.3759953801041  C 67.2315132303966 21.3758838281815  67.4147450186315 21.4514463288403  67.5495449298408 21.5859450583341  C 67.684487087502 21.7202092433442  67.7600086601718 21.9023397255367  67.7594066366932 22.0920509268402  C 67.7594142572434 22.2814532118991  67.6837090980559 22.4631114907788  67.5489345784194 22.5971039379741  C 67.4140305230186 22.7309676688258  67.2311372890878 22.8061562057233  67.0404431798662 22.806147624806  C 67.0404431798662 22.806147624806  65.2192232029717 22.806147624806  65.2192232029717 22.806147624806  L 65.2192232029717 21.3759953801041  C 65.2192232029717 21.3759953801041  67.0404431798662 21.3759953801041  67.0404431798662 21.3759953801041  Z M 107.079862633939 23.5946710392917  C 107.843126994335 23.5055971538775  108.560872728551 22.8671603638153  108.560872728551 22.0924724512591  C 108.560872728551 21.2552391245086  107.738427645295 20.5771665518833  106.894735418439 20.5771665518833  C 106.894735418439 20.5771665518833  103.767309994019 20.5771665518833  103.767309994019 20.5771665518833  L 103.767309994019 25.8543680816369  L 104.850760060915 25.8543680816369  L 104.850760060915 23.6059739972399  C 104.850760060915 23.6059739972399  105.844671574293 23.6059739972399  105.844671574293 23.6059739972399  C 106.011586117956 23.7764328813329  106.225549338676 24.0037160823597  106.498686010491 24.2992710400547  C 106.924992487468 24.7778710097131  107.300282377301 25.2990165142425  107.618551169066 25.8543680816369  C 107.618551169066 25.8543680816369  108.99941022482 25.8543680816369  108.99941022482 25.8543680816369  C 108.586853701748 25.2163121953925  108.11869470063 24.6154597730282  107.60033980853 24.0587255554718  C 107.440378741119 23.8896915067653  107.266261529143 23.7344482713666  107.079862633939 23.5946710392917  Z M 106.671720638455 21.3759953801041  C 106.862997144526 21.375966777049  107.046429427839 21.4515006883242  107.181577698314 21.5859450583341  C 107.248345248784 21.6524099731111  107.301454778041 21.7313861597095  107.336355189386 21.8181992911112  C 107.44792065664 22.085310350838  107.386205075484 22.3928852811867  107.180059449153 22.5971039379741  C 107.045241433037 22.7310005557175  106.862374738068 22.8061991103023  106.671720638455 22.806147624806  C 106.671720638455 22.806147624806  104.850805837272 22.806147624806  104.850805837272 22.806147624806  L 104.850805837272 21.3759953801041  C 104.850805837272 21.3759953801041  106.671720638455 21.3759953801041  106.671720638455 21.3759953801041  Z M 122.006861136035 23.5946710392917  C 122.782269045927 23.5055971538775  123.487871230646 22.8671603638153  123.487871230646 22.0924724512591  C 123.487871230646 21.2552391245086  122.665424836089 20.5771665518833  121.821733920535 20.5771665518833  C 121.821733920535 20.5771665518833  118.694308496115 20.5771665518833  118.694308496115 20.5771665518833  L 118.694308496115 25.8543680816369  L 119.777758563011 25.8543680816369  L 119.777758563011 23.6059739972399  C 119.777758563011 23.6059739972399  120.773188325549 23.6059739972399  120.773188325549 23.6059739972399  C 120.943139665557 23.7764328813329  121.154065374677 24.0037160823597  121.427202761748 24.2992710400547  C 121.853994003189 24.7774910297682  122.229311519768 25.2986840392412  122.54706029093 25.8543680816369  C 122.54706029093 25.8543680816369  123.927926976076 25.8543680816369  123.927926976076 25.8543680816369  C 123.514879221438 25.2162594452354  123.046215100874 24.6154017180531  122.527338310626 24.0587255554718  C 122.367383188777 23.8896915067653  122.193266975179 23.7344482713666  122.006861136035 23.5946710392917  Z M 121.598719140551 21.3759953801041  C 121.789995646622 21.375966777049  121.973427929935 21.4515006883242  122.10857620041 21.5859450583341  C 122.17534375088 21.6524099731111  122.228453280136 21.7313861597095  122.263353691482 21.8181992911112  C 122.374919158736 22.085310350838  122.313208673776 22.3928852811867  122.107065580642 22.5971039379741  C 121.972245031329 22.7310005557175  121.789373240164 22.8061991103023  121.598719140551 22.806147624806  C 121.598719140551 22.806147624806  119.777804339367 22.806147624806  119.777804339367 22.806147624806  L 119.777804339367 21.3759953801041  C 119.777804339367 21.3759953801041  121.598719140551 21.3759953801041  121.598719140551 21.3759953801041  Z M 99.2955855639867 23.4446636593132  L 102.360793290388 23.4446636593132  L 102.360793290388 22.6452607186485  L 99.2955855639867 22.6452607186485  L 99.2955855639867 21.3760754888172  L 102.532263892835 21.3760754888172  L 102.532263892835 20.5786313969228  L 98.2121354970908 20.5786313969228  L 98.2121354970908 25.8540247585808  L 102.643035046425 25.8540247585808  L 102.643035046425 25.0547705912404  L 99.2955855639867 25.0547705912404  L 99.2955855639867 23.4446636593132  Z M 78.5348939525965 20.5771665518833  L 78.5348939525965 25.8543680816369  L 79.6180388437817 25.8543680816369  L 79.6180388437817 23.8447094063768  C 79.6180388437817 23.8447094063768  81.5500299742658 23.8447094063768  81.5500299742658 23.8447094063768  C 82.3925953755736 23.8445405359231  83.0755750240866 23.1661201206311  83.0756567577809 22.3292509189761  C 83.0756567577809 22.3292509189761  83.0756567577809 22.0906680978641  83.0756567577809 22.0906680978641  C 83.0746532496732 21.2544902510924  82.3918961536474 20.5771665518833  81.5500299742658 20.5771665518833  C 81.5500299742658 20.5771665518833  78.5348939525965 20.5771665518833  78.5348939525965 20.5771665518833  Z M 81.1265300111412 22.9822876114076  C 81.1265300111412 22.9822876114076  79.6179015147119 22.9822876114076  79.6179015147119 22.9822876114076  L 79.6179015147119 21.4404542838941  C 79.6179015147119 21.4404542838941  81.1265300111412 21.4404542838941  81.1265300111412 21.4404542838941  C 81.3175614527719 21.4397049498803  81.5009939745028 21.5147382471641  81.6360895246819 21.6488952480274  C 81.7713901743962 21.7828456441089  81.8473939810252 21.9648075791187  81.8473092634469 22.1545509818599  C 81.8473092634469 22.1545509818599  81.8473092634469 22.2662320646715  81.8473092634469 22.2662320646715  C 81.8472245458685 22.6616059657626  81.5245956053368 22.9821210927346  81.1265300111412 22.9822876114076  Z M 125.820306299312 20.5771665518833  L 125.820306299312 25.8525599135413  L 124.70651413738 25.8525599135413  L 124.70651413738 20.5771665518833  L 125.820306299312 20.5771665518833  Z M 127.067597575888 20.5771665518833  L 127.067597575888 25.8543680816369  C 127.067597575888 25.8543680816369  129.689713058538 25.8543680816369  129.689713058538 25.8543680816369  C 129.997751758474 25.853011840896  130.304282163222 25.7903125377344  130.588043539326 25.6700398401464  C 130.872386954652 25.5495085550301  131.12976298484 25.3740416172192  131.345230253918 25.1538345517389  C 131.560534757649 24.9335852712318  131.729252967249 24.6727394400467  131.841430700723 24.3866887195488  C 131.953465397984 24.1006644039318  132.007119508677 23.7953729891393  131.999252319509 23.4885670487921  C 131.999252319509 23.4885670487921  131.999252319509 22.9429675847282  131.999252319509 22.9429675847282  C 132.01457237581 22.3246642779183  131.780148318574 21.7259770259838  131.348266752239 21.2804123339248  C 131.133524543695 21.0606168835825  130.877246102984 20.8850495714615  130.594101277183 20.7637530961431  C 130.310591432623 20.6430846084643  130.005750163512 20.579652113859  129.697311933734 20.5771665518833  C 129.697311933734 20.5771665518833  127.067597575888 20.5771665518833  127.067597575888 20.5771665518833  Z M 130.730545337435 24.1933482478346  C 130.658938591283 24.3675279998567  130.552609077938 24.5255294277193  130.41795385697 24.6578548060386  C 130.148109357541 24.9264326479576  129.781778967619 25.0773446287956  129.399765615806 25.0773002131244  C 129.399765615806 25.0773002131244  128.184296536464 25.0773002131244  128.184296536464 25.0773002131244  L 128.184296536464 21.3759953801041  C 128.184296536464 21.3759953801041  129.399765615806 21.3759953801041  129.399765615806 21.3759953801041  C 129.782387411693 21.3758843409333  130.149311076309 21.5270833634413  130.419479735524 21.7961941905631  C 130.553207657445 21.9295670469306  130.659396347399 22.0876187364541  130.732071215989 22.2614579668409  C 130.803818785532 22.4355488780617  130.840920253059 22.6218031708378  130.841324120418 22.809914641672  C 130.841324120418 22.809914641672  130.841324120418 23.6453398003268  130.841324120418 23.6453398003268  C 130.841324120418 23.8334327639025  130.803382285918 24.0195682347146  130.730545337435 24.1933482478346  Z M 115.695865585821 21.5260351850379  C 115.968606780909 21.6905500652039  116.184526419334 21.933555599555  116.314975550108 22.22280169807  C 116.314975550108 22.22280169807  117.430285961201 21.9406549958346  117.430285961201 21.9406549958346  C 116.972020553967 20.9347755426485  115.929546018474 20.4726742723972  114.785404370532 20.4726742723972  C 113.258869450859 20.4726742723972  111.896214364667 21.3041814950927  111.896214364667 23.1680940493898  C 111.896214364667 25.0320120873191  113.005458812463 25.9128016657917  114.785404370532 25.9128016657917  C 116.076735720811 25.9128016657917  116.717093543956 25.621014261405  117.430285961201 25.0983268429626  C 117.430285961201 25.0983268429626  117.430285961201 23.0032093369786  117.430285961201 23.0032093369786  L 114.840030822747 23.0032093369786  L 114.840030822747 23.9049473439267  L 116.287662324001 23.9049473439267  C 116.287662324001 23.9049473439267  116.287662324001 24.5432383110971  116.287662324001 24.5432383110971  C 115.990244722274 24.9902644209255  115.412100991067 25.0963679941923  114.788433239461 25.0963679941923  C 113.835488227385 25.0963679941923  113.072224224617 24.4959086052017  113.072224224617 23.20215932596  C 113.072224224617 21.9084046822956  113.84459182149 21.3004109019449  114.788433239461 21.3004109019449  C 115.107096137046 21.2826271271277  115.424242275587 21.3613027030235  115.695865585821 21.5260351850379  Z M 95.3123864116353 24.3254532377858  L 94.2398692645751 20.5786313969228  L 92.8228926634603 20.5786313969228  L 91.751130826284 24.3254532377858  L 90.8033466215777 20.5786313969228  L 89.6552527097638 20.5786313969228  L 90.9901370447015 25.8540247585808  L 92.3231979547679 25.8540247585808  L 93.5304654368856 21.6640968300131  L 94.7372827848301 25.8540247585808  L 96.0726172539411 25.8540247585808  L 97.4079593524449 20.5786313969228  L 96.2592627186023 20.5786313969228  L 95.3123864116353 24.3254532377858  Z M 33.6698644996725 24.2534927252192  C 33.6698644996725 25.2176319625989  32.59430775485 26  31.2670120431121 26  C 29.9395625514262 26  28.8640069986963 25.2176319625989  28.8640069986963 24.2534927252192  C 28.8640069986963 24.2534927252192  28.8640069986963 24.162613204909  28.8640069986963 24.162613204909  C 28.8640069986963 24.162613204909  30.0711218929587 24.1513064322602  30.0711218929587 24.1513064322602  C 30.0711218929587 24.1513064322602  30.071123479932 24.2837877066651  30.082657534823 24.340609043364  C 30.1340994196368 24.7838675402796  30.6985800222588 25.1097156316748  31.3527435296391 25.1097156316748  C 32.0069118649947 25.1097156316748  32.5351296422542 24.780098675668  32.5389214627997 24.340609043364  C 32.5389214627997 23.8500234333575  31.9802049371939 23.626513649251  31.3393920922962 23.5508534805769  C 30.1207423906344 23.429523410561  29.0509548143675 22.8442887897833  29.0603646803504 21.9728472543986  C 29.0603646803504 21.1393826730502  30.055950487813 20.4575375403221  31.2841591033568 20.4575375403221  C 32.5123677189006 20.4575375403221  33.5058287404774 21.1318449438271  33.5058287404774 21.9728472543986  C 33.5058287404774 21.9728472543986  33.5058287404774 22.0506137413146  33.5058287404774 22.0506137413146  C 33.5058287404774 22.0506137413146  32.3100930855276 22.0619205139634  32.3100930855276 22.0619205139634  C 32.3100930855276 22.0619205139634  32.3100961188445 21.9463203701538  32.3005372710864 21.8934175580106  C 32.2528872093792 21.5145125837804  31.8104045161121 21.2834640944238  31.2040352205137 21.2834640944238  C 30.597521741313 21.2834640944238  30.1073882114784 21.5125560893956  30.1073882114784 21.8934175580106  C 30.1073882114784 22.2741293592308  30.7196732667031 22.4861838097058  31.3298343705069 22.5146720721953  C 32.7449907654003 22.6718674210335  33.6698644996725 23.2893590310763  33.6698644996725 24.2534927252192  Z " fill-rule="nonzero" fill="#000000" stroke="none" transform="matrix(1 0 0 1 77 23 )" />
  </g>
</svg>