<?xml version="1.0" encoding="utf-8"?>
<svg version="1.1" xmlns:xlink="http://www.w3.org/1999/xlink" width="10px" height="6px" xmlns="http://www.w3.org/2000/svg">
  <g transform="matrix(1 0 0 1 -1555 -29 )">
    <path d="M 0.0370200015604496 1.49591696132563  C 0.0166500024497509 1.49591696132563  0 1.47890234626706  0 1.45757804952559  C 0 1.45757804952559  0 0.0383388559206664  0 0.0383388559206664  C 0 0.0172419397954352  0.0164300017058849 0  0.0370200015604496 0  C 0.0370200015604496 0  9.96298027038574 0  9.96298027038574 0  C 9.98335026949644 0  10 0.0170145591792056  10 0.0383388559206664  C 10 0.0383388559206664  10 1.45757804952559  10 1.45757804952559  C 9.99977999999828 1.47890234626706  9.98312997072935 1.49591696132563  9.96275997161865 1.49591696132563  C 9.96275997161865 1.49591696132563  0.0370200015604496 1.49591696132563  0.0370200015604496 1.49591696132563  Z M 0.243559271097183 6  C 0.223193323239684 6  0.20654296875 5.98298562336008  0.20654296875 5.96166132661862  C 0.20654296875 5.96166132661862  0.20654296875 4.54242183126508  0.20654296875 4.54242183126508  C 0.20654296875 4.52132491513985  0.222969828173518 4.5040831578837  0.243559271097183 4.5040831578837  C 0.243559271097183 4.5040831578837  7.15373373031616 4.5040831578837  7.15373373031616 4.5040831578837  C 7.17409967817366 4.5040831578837  7.19075012207031 4.52109753452362  7.19075012207031 4.54242183126508  C 7.19075012207031 4.54242183126508  7.19075012207031 5.96166132661862  7.19075012207031 5.96166132661862  C 7.19075012207031 5.98275824274385  7.1743231471628 6  7.15395021438599 6  C 7.15395021438599 6  0.243559271097183 6  0.243559271097183 6  Z " fill-rule="nonzero" fill="#6b84a5" stroke="none" transform="matrix(1 0 0 1 1555 29 )" />
  </g>
</svg>