<?xml version="1.0" encoding="utf-8"?>
<svg version="1.1" xmlns:xlink="http://www.w3.org/1999/xlink" width="12px" height="10px" xmlns="http://www.w3.org/2000/svg">
  <g transform="matrix(1 0 0 1 -103 -28 )">
    <path d="M 0 10  L 12 10  L 12 8.21720027923584  L 10.3420677185059 8.21720027923584  L 11.3313121795654 7.23507976531982  L 9.47623157501221 5.64637994766235  L 11.2096557617188 5.64637994766235  L 11.2096557617188 3.75262999534607  L 7.2711238861084 3.75262999534607  L 7.2711238861084 1.96600997447968  L 11.8765802383423 1.96600997447968  L 11.8765802383423 0  L 0.233940005302429 0  L 0.233940005302429 1.96600997447968  L 4.82283592224121 1.96600997447968  L 4.82283592224121 3.75262999534607  L 0.806904017925262 3.75262999534607  L 0.806904017925262 5.64637994766235  L 4.82283592224121 5.64637994766235  L 4.82283592224121 8.21720027923584  L 0 8.21720027923584  L 0 10  Z M 8.79261779785156 5.646484375  L 7.68727684020996 6.54354858398438  L 9.51289749145508 8.21730327606201  L 7.27099609375 8.21730327606201  L 7.27099609375 5.646484375  L 8.79261779785156 5.646484375  Z " fill-rule="nonzero" fill="#000000" stroke="none" transform="matrix(1 0 0 1 103 28 )" />
  </g>
</svg>