<?xml version="1.0" encoding="utf-8"?>
<svg version="1.1" xmlns:xlink="http://www.w3.org/1999/xlink" width="22px" height="20px" xmlns="http://www.w3.org/2000/svg">
  <defs>
    <mask fill="white" id="clip121">
      <path d="M 11.0219774208108 1.57101744575833  C 13.6907305820239 -0.681683074318519  17.5974472050325 -0.49134287669046  20.0444835238919 2.01061763965943  C 22.6657179631809 4.69009822656598  22.4748686920741 9.26989922903046  20.5204107942736 11.2690594232673  C 20.5204107942736 11.2690594232673  12.6591736777611 19.3036593062705  12.6591736777611 19.3036593062705  C 11.805243352501 20.177820239605  10.4531231874773 20.228481336304  9.5397055296975 19.4582213322108  C 9.5397055296975 19.4582213322108  9.37362699098986 19.3036593062705  9.37362699098986 19.3036593062705  C 9.37362699098986 19.3036593062705  1.96352316665248 11.7301991901778  1.96352316665248 11.7301991901778  C -0.569798489952349 9.13747866391729  -0.663518432960782 4.96763800957451  1.75067310971813 2.25873751806975  C 4.16484295631011 -0.450162973435015  8.23510599394608 -0.742342852085657  10.9959516532288 1.59507758046676  C 10.9959516532288 1.59507758046676  11.0219774208108 1.57101744575833  11.0219774208108 1.57101744575833  Z M 11.6453760935391 3.13056385623242  C 11.6453760935391 3.13056385623242  9.08486685581782 5.74795165022882  9.08486685581782 5.74795165022882  C 9.08486685581782 5.74795165022882  8.93119657148941 5.92024963765137  8.93119657148941 5.92024963765137  C 8.10361626302264 6.93691529024416  8.17023040247303 8.43071907629377  9.08486685581782 9.36619174312434  C 9.08486685581782 9.36619174312434  9.2881262886522 9.55368701051464  9.2881262886522 9.55368701051464  C 10.3339940272255 10.4188786351926  11.8505972341022 10.3351498289394  12.7992245415385 9.35985171505961  C 12.7992245415385 9.35985171505961  15.0498860012599 7.04524746804189  15.0498860012599 7.04524746804189  L 15.0647566422971 7.05918542083462  L 15.6398164333315 6.45360974380679  C 15.6398164333315 6.45360974380679  19.3591275025927 10.1237879035545  19.3591275025927 10.1237879035545  C 20.9732248179306 8.02243862580082  20.7970792948845 5.01968622583127  18.9489045665213 3.13056385623242  C 16.9320782865909 1.06895467166036  13.6622014197954 1.06895467166036  11.6453760935391 3.13056385623242  Z M 10.4692460026748 18.1850010271074  C 10.4692460026748 18.1850010271074  3.05912846927149 10.61027633863  3.05912846927149 10.61027633863  C 3.05912846927149 10.61027633863  2.86455796162727 10.3999672698912  2.86455796162727 10.3999672698912  C 1.03475135504092 8.31221357578537  1.12017862446896 5.12663223774571  3.05912846927149 3.14449632539679  C 3.05912846927149 3.14449632539679  3.05912846927149 3.14575779833942  3.05912846927149 3.14575779833942  C 4.89711438142354 1.26605999776077  7.81551940822265 1.07611748239851  9.87187500487674 2.70235089346903  C 9.87187500487674 2.70235089346903  7.98929075946968 4.62802879868103  7.98929075946968 4.62802879868103  C 6.47767860626245 6.17404054146586  6.40118440260724 8.65456173983798  7.81454761426273 10.2948217954296  C 7.81454761426273 10.2948217954296  8.04629186347756 10.5431223951573  8.04629186347756 10.5431223951573  C 9.61497330839446 12.0851139230945  12.0795429265208 12.1358541747769  13.7076726033172 10.6596881217362  C 13.7076726033172 10.6596881217362  13.8972992641624 10.4759846641511  13.8972992641624 10.4759846641511  L 15.6547023331551 8.66813348162336  L 18.3069216456116 11.2893192843093  L 11.5648335431127 18.1850010271074  C 11.5648335431127 18.1850010271074  11.4569977921576 18.2762238075683  11.4569977921576 18.2762238075683  C 11.1493625381881 18.4935109126112  10.7337913974777 18.4551331434504  10.4692460026748 18.1850010271074  Z " fill-rule="evenodd" />
    </mask>
  </defs>
  <g transform="matrix(1 0 0 1 -26 -36 )">
    <path d="M 11.0219774208108 1.57101744575833  C 13.6907305820239 -0.681683074318519  17.5974472050325 -0.49134287669046  20.0444835238919 2.01061763965943  C 22.6657179631809 4.69009822656598  22.4748686920741 9.26989922903046  20.5204107942736 11.2690594232673  C 20.5204107942736 11.2690594232673  12.6591736777611 19.3036593062705  12.6591736777611 19.3036593062705  C 11.805243352501 20.177820239605  10.4531231874773 20.228481336304  9.5397055296975 19.4582213322108  C 9.5397055296975 19.4582213322108  9.37362699098986 19.3036593062705  9.37362699098986 19.3036593062705  C 9.37362699098986 19.3036593062705  1.96352316665248 11.7301991901778  1.96352316665248 11.7301991901778  C -0.569798489952349 9.13747866391729  -0.663518432960782 4.96763800957451  1.75067310971813 2.25873751806975  C 4.16484295631011 -0.450162973435015  8.23510599394608 -0.742342852085657  10.9959516532288 1.59507758046676  C 10.9959516532288 1.59507758046676  11.0219774208108 1.57101744575833  11.0219774208108 1.57101744575833  Z M 11.6453760935391 3.13056385623242  C 11.6453760935391 3.13056385623242  9.08486685581782 5.74795165022882  9.08486685581782 5.74795165022882  C 9.08486685581782 5.74795165022882  8.93119657148941 5.92024963765137  8.93119657148941 5.92024963765137  C 8.10361626302264 6.93691529024416  8.17023040247303 8.43071907629377  9.08486685581782 9.36619174312434  C 9.08486685581782 9.36619174312434  9.2881262886522 9.55368701051464  9.2881262886522 9.55368701051464  C 10.3339940272255 10.4188786351926  11.8505972341022 10.3351498289394  12.7992245415385 9.35985171505961  C 12.7992245415385 9.35985171505961  15.0498860012599 7.04524746804189  15.0498860012599 7.04524746804189  L 15.0647566422971 7.05918542083462  L 15.6398164333315 6.45360974380679  C 15.6398164333315 6.45360974380679  19.3591275025927 10.1237879035545  19.3591275025927 10.1237879035545  C 20.9732248179306 8.02243862580082  20.7970792948845 5.01968622583127  18.9489045665213 3.13056385623242  C 16.9320782865909 1.06895467166036  13.6622014197954 1.06895467166036  11.6453760935391 3.13056385623242  Z M 10.4692460026748 18.1850010271074  C 10.4692460026748 18.1850010271074  3.05912846927149 10.61027633863  3.05912846927149 10.61027633863  C 3.05912846927149 10.61027633863  2.86455796162727 10.3999672698912  2.86455796162727 10.3999672698912  C 1.03475135504092 8.31221357578537  1.12017862446896 5.12663223774571  3.05912846927149 3.14449632539679  C 3.05912846927149 3.14449632539679  3.05912846927149 3.14575779833942  3.05912846927149 3.14575779833942  C 4.89711438142354 1.26605999776077  7.81551940822265 1.07611748239851  9.87187500487674 2.70235089346903  C 9.87187500487674 2.70235089346903  7.98929075946968 4.62802879868103  7.98929075946968 4.62802879868103  C 6.47767860626245 6.17404054146586  6.40118440260724 8.65456173983798  7.81454761426273 10.2948217954296  C 7.81454761426273 10.2948217954296  8.04629186347756 10.5431223951573  8.04629186347756 10.5431223951573  C 9.61497330839446 12.0851139230945  12.0795429265208 12.1358541747769  13.7076726033172 10.6596881217362  C 13.7076726033172 10.6596881217362  13.8972992641624 10.4759846641511  13.8972992641624 10.4759846641511  L 15.6547023331551 8.66813348162336  L 18.3069216456116 11.2893192843093  L 11.5648335431127 18.1850010271074  C 11.5648335431127 18.1850010271074  11.4569977921576 18.2762238075683  11.4569977921576 18.2762238075683  C 11.1493625381881 18.4935109126112  10.7337913974777 18.4551331434504  10.4692460026748 18.1850010271074  Z " fill-rule="nonzero" fill="#ffffff" stroke="none" fill-opacity="0" transform="matrix(1 0 0 1 26 36 )" />
    <path d="M 11.0219774208108 1.57101744575833  C 13.6907305820239 -0.681683074318519  17.5974472050325 -0.49134287669046  20.0444835238919 2.01061763965943  C 22.6657179631809 4.69009822656598  22.4748686920741 9.26989922903046  20.5204107942736 11.2690594232673  C 20.5204107942736 11.2690594232673  12.6591736777611 19.3036593062705  12.6591736777611 19.3036593062705  C 11.805243352501 20.177820239605  10.4531231874773 20.228481336304  9.5397055296975 19.4582213322108  C 9.5397055296975 19.4582213322108  9.37362699098986 19.3036593062705  9.37362699098986 19.3036593062705  C 9.37362699098986 19.3036593062705  1.96352316665248 11.7301991901778  1.96352316665248 11.7301991901778  C -0.569798489952349 9.13747866391729  -0.663518432960782 4.96763800957451  1.75067310971813 2.25873751806975  C 4.16484295631011 -0.450162973435015  8.23510599394608 -0.742342852085657  10.9959516532288 1.59507758046676  C 10.9959516532288 1.59507758046676  11.0219774208108 1.57101744575833  11.0219774208108 1.57101744575833  Z " stroke-width="2" stroke="#ffffff" fill="none" stroke-opacity="0.996078431372549" transform="matrix(1 0 0 1 26 36 )" mask="url(#clip121)" />
    <path d="M 11.6453760935391 3.13056385623242  C 11.6453760935391 3.13056385623242  9.08486685581782 5.74795165022882  9.08486685581782 5.74795165022882  C 9.08486685581782 5.74795165022882  8.93119657148941 5.92024963765137  8.93119657148941 5.92024963765137  C 8.10361626302264 6.93691529024416  8.17023040247303 8.43071907629377  9.08486685581782 9.36619174312434  C 9.08486685581782 9.36619174312434  9.2881262886522 9.55368701051464  9.2881262886522 9.55368701051464  C 10.3339940272255 10.4188786351926  11.8505972341022 10.3351498289394  12.7992245415385 9.35985171505961  C 12.7992245415385 9.35985171505961  15.0498860012599 7.04524746804189  15.0498860012599 7.04524746804189  L 15.0647566422971 7.05918542083462  L 15.6398164333315 6.45360974380679  C 15.6398164333315 6.45360974380679  19.3591275025927 10.1237879035545  19.3591275025927 10.1237879035545  C 20.9732248179306 8.02243862580082  20.7970792948845 5.01968622583127  18.9489045665213 3.13056385623242  C 16.9320782865909 1.06895467166036  13.6622014197954 1.06895467166036  11.6453760935391 3.13056385623242  Z " stroke-width="2" stroke="#ffffff" fill="none" stroke-opacity="0.996078431372549" transform="matrix(1 0 0 1 26 36 )" mask="url(#clip121)" />
    <path d="M 10.4692460026748 18.1850010271074  C 10.4692460026748 18.1850010271074  3.05912846927149 10.61027633863  3.05912846927149 10.61027633863  C 3.05912846927149 10.61027633863  2.86455796162727 10.3999672698912  2.86455796162727 10.3999672698912  C 1.03475135504092 8.31221357578537  1.12017862446896 5.12663223774571  3.05912846927149 3.14449632539679  C 3.05912846927149 3.14449632539679  3.05912846927149 3.14575779833942  3.05912846927149 3.14575779833942  C 4.89711438142354 1.26605999776077  7.81551940822265 1.07611748239851  9.87187500487674 2.70235089346903  C 9.87187500487674 2.70235089346903  7.98929075946968 4.62802879868103  7.98929075946968 4.62802879868103  C 6.47767860626245 6.17404054146586  6.40118440260724 8.65456173983798  7.81454761426273 10.2948217954296  C 7.81454761426273 10.2948217954296  8.04629186347756 10.5431223951573  8.04629186347756 10.5431223951573  C 9.61497330839446 12.0851139230945  12.0795429265208 12.1358541747769  13.7076726033172 10.6596881217362  C 13.7076726033172 10.6596881217362  13.8972992641624 10.4759846641511  13.8972992641624 10.4759846641511  L 15.6547023331551 8.66813348162336  L 18.3069216456116 11.2893192843093  L 11.5648335431127 18.1850010271074  C 11.5648335431127 18.1850010271074  11.4569977921576 18.2762238075683  11.4569977921576 18.2762238075683  C 11.1493625381881 18.4935109126112  10.7337913974777 18.4551331434504  10.4692460026748 18.1850010271074  Z " stroke-width="2" stroke="#ffffff" fill="none" stroke-opacity="0.996078431372549" transform="matrix(1 0 0 1 26 36 )" mask="url(#clip121)" />
  </g>
</svg>