<?xml version="1.0" encoding="utf-8"?>
<svg version="1.1" xmlns:xlink="http://www.w3.org/1999/xlink" width="18px" height="17px" xmlns="http://www.w3.org/2000/svg">
  <g transform="matrix(1 0 0 1 -1587 -24 )">
    <path d="M 16.4993796347947 7.76785683291636  C 16.4993796347947 3.63365972164075  13.141838437147 0.282190640474987  9.00005531393549 0.282190640474987  C 4.85825407090624 0.282190640474987  1.50073075465798 3.63365972164075  1.50073075465798 7.76785683291636  C 1.50073075465798 7.76785683291636  1.50073075465798 13.0805422609503  1.50073075465798 13.0805422609503  C 1.50073075465798 13.0805422609503  0.0802248316908845 15.9167693603795  0.0802248316908845 15.9167693603795  C -0.16929124298872 16.4145086880693  0.193462434924186 17  0.75097662396297 17  C 0.75097662396297 17  17.2491338250941 17  17.2491338250941 17  C 17.8066300135245 17  18.1691316903698 16.4145086880693  17.9198856099156 15.9167693603795  C 17.9198856099156 15.9167693603795  16.4993796347947 13.0805422609503  16.4993796347947 13.0805422609503  C 16.4993796347947 13.0805422609503  16.4993796347947 7.76785683291636  16.4993796347947 7.76785683291636  Z M 2.92152187849001 13.591854908804  C 2.97360099892785 13.4879535792629  3.00073097813902 13.3733344452856  3.00077319304387 13.2571093263184  C 3.00077319304387 13.2571093263184  3.00077319304387 7.76767182211039  3.00077319304387 7.76767182211039  C 3.00077319304387 4.46021695473357  5.68679537463868 1.77924443875637  9.00007438742796 1.77924443875637  C 12.3133534002172 1.77924443875637  14.9993753433935 4.46021695473357  14.9993753433935 7.76767182211039  C 14.9993753433935 7.76767182211039  14.9993753433935 13.2568632810198  14.9993753433935 13.2568632810198  C 14.9993753433935 13.3731158476275  15.0266319675154 13.4876104837565  15.0786266579473 13.591854908804  C 15.0786266579473 13.591854908804  16.0358918623754 15.5025912003139  16.0358918623754 15.5025912003139  L 1.96425667406197 15.5025912003139  C 1.96425667406197 15.5025912003139  2.92152187849001 13.591854908804  2.92152187849001 13.591854908804  Z M 12.6217195584736 11.8172995999189  C 12.6399657027405 11.6195002200103  12.5787316617211 11.4225722803364  12.4515306005787 11.2699960620831  C 12.1864576937671 10.9520837509587  11.7140728524041 10.9086946489868  11.3955228797238 11.1729988273987  C 10.7227063297464 11.7322642615437  9.87491027584201 12.0375966094548  8.99999427875991 12.0357372213322  C 8.12528850732679 12.037551011466  7.27768718185871 11.7323149249409  6.60497207901903 11.1732470780452  C 6.2864221063387 10.9089428996334  5.81403774181285 10.9523345347751  5.54896483500147 11.2702468458995  C 5.42179277152809 11.4228534621911  5.36060258650241 11.6198016374219  5.37889222541003 11.8176010173306  C 5.39718911373507 12.015402930409  5.4934653083867 12.1977877034857  5.64646614391131 12.3244844921844  C 6.58852387404295 13.1072159793261  7.77518293160415 13.5349310498954  8.99999427875991 13.5332211220543  C 10.2417613646035 13.5332211220543  11.4187713211786 13.1007258789301  12.3542758165579 12.3239854875235  C 12.5072404124471 12.1972532344466  12.6034734142065 12.0150989798275  12.6217195584736 11.8172995999189  Z " fill-rule="nonzero" fill="#2590ff" stroke="none" transform="matrix(1 0 0 1 1587 24 )" />
  </g>
</svg>