<?xml version="1.0" encoding="utf-8"?>
<svg version="1.1" xmlns:xlink="http://www.w3.org/1999/xlink" width="17px" height="17px" xmlns="http://www.w3.org/2000/svg">
  <g transform="matrix(1 0 0 1 -734 -273 )">
    <path d="M 12.4666666666667 17  L 4.53333333333333 17  C 3.10429352266667 16.9964448466667  2.26786475866667 16.1146537133333  2.26666666666667 14.7333333333333  L 2.26666666666667 6.8  C 2.280624936 5.94471929  2.555619384 5.66666666666667  3.4 5.66666666666667  C 3.22459803466667 5.66666666666667  3.49959247133333 5.94471929  3.4 6.8  L 3.4 14.7333333333333  C 3.4 15.3592559933333  3.90741061666667 15.8666666666667  4.53333333333333 15.8666666666667  L 12.4666666666667 15.8666666666667  C 13.0925893266667 15.8666666666667  13.6 15.3592559933333  13.6 14.7333333333333  L 13.6 6.8  C 13.50040754 5.97337026266667  13.77540192 5.69531763933333  13.6 5.66666666666667  C 14.4443805933333 5.69531763933333  14.7193750866667 5.97337026266667  14.7333333333333 6.8  L 14.7333333333333 14.7333333333333  C 14.7303428066667 16.1170552466667  13.8936388466667 16.99811198  12.4666666666667 17  Z M 15.8666666666667 3.4  L 13.6 3.4  L 13.6 2.26666666666667  C 13.11642888 0.826615831333333  12.2539917933333 0.00529327866666642  11.3333333333333 0  L 5.66666666666667 0  C 4.75648185 0.00117669466666674  3.887296194 0.822669870666667  3.4 2.26666666666667  L 3.4 3.4  L 1.13333333333333 3.4  L 0 3.4  C 0.187554426666667 4.14226964  0.565332212 4.520047414  1.13333333333333 4.53333333333333  L 15.8666666666667 4.53333333333333  C 16.43500296 4.52075833133333  16.8127807 4.142980546  17 3.4  L 15.8666666666667 3.4  Z M 10.2 13.60003332  L 10.2 5.66666666666667  L 11.3333333333333 5.66666666666667  L 11.3333333333333 13.60003332  L 10.2 13.60003332  Z M 5.66666666666667 13.60003332  L 5.66666666666667 5.66666666666667  L 6.8 5.66666666666667  L 6.8 13.60003332  L 5.66666666666667 13.60003332  Z M 4.53333333333333 3.4  C 4.53333333333333 2.14815456666667  5.54815456666667 1.13333333333333  6.8 1.13333333333333  L 10.2 1.13333333333333  C 11.4518454333333 1.13333333333333  12.4666666666667 2.14815456666667  12.4666666666667 3.4  L 4.53333333333333 3.4  Z " fill-rule="nonzero" fill="#2590ff" stroke="none" transform="matrix(1 0 0 1 734 273 )" />
  </g>
</svg>