<?xml version="1.0" encoding="utf-8"?>
<svg version="1.1" xmlns:xlink="http://www.w3.org/1999/xlink" width="16px" height="16px" xmlns="http://www.w3.org/2000/svg">
  <g transform="matrix(1 0 0 1 -27 -102 )">
    <path d="M 15.1034928682312 7.09046133858721  C 15.1034928682312 7.09046133858721  9.5571111671064 7.09046133858721  9.5571111671064 7.09046133858721  C 9.06198083447156 7.09046133858721  8.66060403533759 7.47477120828315  8.66060403533759 7.94883990282796  C 8.66060403533759 8.42290859737277  9.06198083447156 8.80721846706871  9.5571111671064 8.80721846706871  C 9.5571111671064 8.80721846706871  15.1034928682312 8.80721846706871  15.1034928682312 8.80721846706871  C 15.598623200866 8.80721846706871  16 8.42290859737277  16 7.94883990282796  C 16 7.47477120828315  15.598623200866 7.09046133858721  15.1034928682312 7.09046133858721  Z M 7.23797432123439 3.4736936851986  C 7.23797432123439 3.4736936851986  15.1033159904154 3.4736936851986  15.1033159904154 3.4736936851986  C 15.5984420873553 3.4736936851986  15.9998240834767 3.08938381550266  15.9998240834767 2.61531512095785  C 15.9998240834767 2.14124642641304  15.5984420873553 1.75693679483718  15.1033159904154 1.75693679483718  C 15.1033159904154 1.75693679483718  7.23797432123439 1.75693679483718  7.23797432123439 1.75693679483718  C 6.74284822429453 1.75693679483718  6.3414662281731 2.14124642641304  6.3414662281731 2.61531512095785  C 6.3414662281731 3.08938381550266  6.74284822429453 3.4736936851986  7.23797432123439 3.4736936851986  Z M 15.1033159904154 12.435453030578  C 15.1033159904154 12.435453030578  7.23797432123439 12.435453030578  7.23797432123439 12.435453030578  C 6.74284822429453 12.435453030578  6.3414662281731 12.819763376514  6.3414662281731 13.2938320710588  C 6.3414662281731 13.7679007656037  6.74284822429453 14.1522101590594  7.23797432123439 14.1522101590594  C 7.23797432123439 14.1522101590594  15.1033159904154 14.1522101590594  15.1033159904154 14.1522101590594  C 15.5984420873553 14.1522101590594  15.9998240834767 13.7679007656037  15.9998240834767 13.2938320710588  C 15.9998240834767 12.819763376514  15.5984420873553 12.435453030578  15.1033159904154 12.435453030578  Z M 5.05055377055559 2.36376055407683  C 5.02959364049151 1.15296047540196  4.07109454804173 0.146192454675928  2.8138453513518 0.0144164504164363  C 1.55659615466187 -0.117359553843056  0.393313996033948 0.667008488028037  0.0992560091894754 1.84480048157403  C -0.194801977654997 3.02257652107529  0.472220029273759 4.22588855694951  1.65578543663526 4.65276855062504  C 1.65578543663526 4.65276855062504  1.65578543663526 11.1421124393449  1.65578543663526 11.1421124393449  C 1.64775998031123 11.2067364406098  1.64775998031123 11.2720487279388  1.65578543663526 11.3366727292037  C 0.509645188148369 11.7340647369892  -0.172670099652385 12.8623845772488  0.0380170784723476 14.0119526750647  C 0.24870425659708 15.1615207728806  1.29148334518727 16  2.51045375528305 16  C 3.72942416537884 16  4.77220842467114 15.1615207728806  4.98289560279587 14.0119526750647  C 5.1935777341351 12.8623845772488  4.51126712888012 11.7340647369892  3.36512688039323 11.3366727292037  C 3.37314728617671 11.2720487279388  3.37314728617671 11.2067364406098  3.36512688039323 11.1421124393449  C 3.36512688039323 11.1421124393449  3.36512688039323 4.65276855062504  3.36512688039323 4.65276855062504  C 4.38115775422371 4.31438451200387  5.05904388505934 3.39372856026414  5.05055377055559 2.36376055407683  Z M 2.54041892405177 14.5412297758671  C 1.9858778324633 14.5412297758671  1.53633210924753 14.1108026860896  1.53633210924753 13.579845707719  C 1.53633210924753 13.0488887293484  1.9858778324633 12.618461639571  2.54041892405177 12.618461639571  C 3.09496001564023 12.618461639571  3.54450573885601 13.0488887293484  3.54450573885601 13.579845707719  C 3.54450573885601 14.1108026860896  3.09496001564023 14.5412297758671  2.54041892405177 14.5412297758671  Z M 2.54041892405177 3.32515557574814  C 1.9858778324633 3.32515557574814  1.53633210924753 2.89472872409075  1.53633210924753 2.36377174572015  C 1.53633210924753 1.83281476734955  1.9858778324633 1.40238779663212  2.54041892405177 1.40238779663212  C 3.09496001564023 1.40238779663212  3.54450573885601 1.83281476734955  3.54450573885601 2.36377174572015  C 3.54450573885601 2.89472872409075  3.09496001564023 3.32515557574814  2.54041892405177 3.32515557574814  Z " fill-rule="nonzero" fill="#2590ff" stroke="none" transform="matrix(1 0 0 1 27 102 )" />
  </g>
</svg>