<?xml version="1.0" encoding="utf-8"?>
<svg version="1.1" xmlns:xlink="http://www.w3.org/1999/xlink" width="16px" height="16px" xmlns="http://www.w3.org/2000/svg">
  <g transform="matrix(1 0 0 1 -27 -97 )">
    <path d="M 15.1034945503871 7.09052488112627  C 15.1034945503871 7.09052488112627  9.55711959408204 7.09052488112627  9.55711959408204 7.09052488112627  C 9.06198988431089 7.09052488112627  8.66061320257669 7.4748341843012  8.66061320257669 7.9489028389588  C 8.66061320257669 8.42297149361639  9.06198988431089 8.80728126774158  9.55711959408204 8.80728126774158  C 9.55711959408204 8.80728126774158  15.1034945503871 8.80728126774158  15.1034945503871 8.80728126774158  C 15.5986242601582 8.80728126774158  16 8.42297149361639  16 7.9489028389588  C 16 7.4748341843012  15.5986242601582 7.09052488112627  15.1034945503871 7.09052488112627  Z M 7.23812912379633 3.47389463853744  C 7.23812912379633 3.47389463853744  15.10346064226 3.47389463853744  15.10346064226 3.47389463853744  C 15.5985860546469 3.47389463853744  15.9999679756577 3.08958486441224  15.9999679756577 2.61551620975465  C 15.9999679756577 2.14144755509706  15.5985860546469 1.75713778097187  15.10346064226 1.75713778097187  C 15.10346064226 1.75713778097187  7.23812912379633 1.75713778097187  7.23812912379633 1.75713778097187  C 6.74300371140934 1.75713778097187  6.34162226134477 2.14144755509706  6.34162226134477 2.61551620975465  C 6.34162226134477 3.08958486441224  6.74300371140934 3.47389463853744  7.23812912379633 3.47389463853744  Z M 15.10346064226 12.4354132929949  C 15.10346064226 12.4354132929949  7.23812912379633 12.4354132929949  7.23812912379633 12.4354132929949  C 6.74300371140934 12.4354132929949  6.34162226134477 12.8197230671201  6.34162226134477 13.2937917217777  C 6.34162226134477 13.7678603764352  6.74300371140934 14.1521701505604  7.23812912379633 14.1521701505604  C 7.23812912379633 14.1521701505604  15.10346064226 14.1521701505604  15.10346064226 14.1521701505604  C 15.5985860546469 14.1521701505604  15.9999679756577 13.7678603764352  15.9999679756577 13.2937917217777  C 15.9999679756577 12.8197230671201  15.5985860546469 12.4354132929949  15.10346064226 12.4354132929949  Z M 5.05054724538264 2.36376033058824  C 5.0295871422825 1.15296040509257  4.07108933037218 0.14619243781043  2.81384167424203 0.0144164496567126  C 1.55659401811188 -0.117359538497005  0.393313523373472 0.667008380324358  0.0992558873280031 1.84480034417045  C -0.194801748717466 3.02257629570778  0.472219412897262 4.22588817097755  1.65578341372189 4.65276813964994  C 1.65578341372189 4.65276813964994  1.65578341372189 11.142111359485  1.65578341372189 11.142111359485  C 1.6477579669308 11.2067353598637  1.6477579669308 11.2720482132971  1.65578341372189 11.3366722136758  C 0.50964456629916 11.7340641912265  -0.172669878097928 12.8623833897728  0.038017033447424 14.0119513046853  C 0.248703944992776 15.1615192195977  1.29148167801431 16  2.51045059073727 16  C 3.72941950346022 16  4.77220231754985 15.1615192195977  4.9828892290952 14.0119513046853  C 5.19357109268586 12.8623833897728  4.51126167784713 11.7340641912265  3.3651228304244 11.3366722136758  C 3.37314322650134 11.2720482132971  3.37314322650134 11.2067353598637  3.3651228304244 11.142111359485  C 3.3651228304244 11.142111359485  3.3651228304244 4.65276813964994  3.3651228304244 4.65276813964994  C 4.38115242656801 4.31438413952561  5.05903734959597 3.39372830832548  5.05054724538264 2.36376033058824  Z M 2.54062788197005 14.5412871494393  C 1.98608754254263 14.5412871494393  1.53654242359987 14.1108603955087  1.53654242359987 13.5799034222307  C 1.53654242359987 13.0489464489526  1.98608754254263 12.6185187531215  2.54062788197005 12.6185187531215  C 3.09516822139746 12.6185187531215  3.54471345807678 13.0489464489526  3.54471345807678 13.5799034222307  C 3.54471345807678 14.1108603955087  3.09516822139746 14.5412871494393  2.54062788197005 14.5412871494393  Z M 2.54062788197005 3.32514217399587  C 1.98608754254263 3.32514217399587  1.53654242359987 2.89471518459013  1.53654242359987 2.36375821131208  C 1.53654242359987 1.83280123803404  1.98608754254263 1.4023742486283  2.54062788197005 1.4023742486283  C 3.09516822139746 1.4023742486283  3.54471345807678 1.83280123803404  3.54471345807678 2.36375821131208  C 3.54471345807678 2.89471518459013  3.09516822139746 3.32514217399587  2.54062788197005 3.32514217399587  Z " fill-rule="nonzero" fill="#2590ff" stroke="none" transform="matrix(1 0 0 1 27 97 )" />
  </g>
</svg>