<?xml version="1.0" encoding="utf-8"?>
<svg version="1.1" xmlns:xlink="http://www.w3.org/1999/xlink" width="14px" height="14px" xmlns="http://www.w3.org/2000/svg">
  <g transform="matrix(1 0 0 1 -1808 -156 )">
    <path d="M 10.5002962361111 7.41176470588235  L 13.2219259861111 7.41176470588235  C 13.5422591111111 7.41681274558824  13.8007855416667 7.69040768382353  13.8055555555556 8.02941175441176  C 13.8047459861111 8.36956220882353  13.5448205277778 8.64533761617647  13.2234072638889 8.64705882352941  L 10.5002962361111 8.64705882352941  C 10.1799631111111 8.64201078382353  9.92143668055556 8.368415825  9.91666666666667 8.02941175441176  C 9.92143668055556 7.69040768382353  10.1799631111111 7.41681274558824  10.5002962361111 7.41176470588235  Z M 10.5002962361111 9.66958042647059  L 13.2219259861111 9.66958042647059  C 13.5422591111111 9.67462845588235  13.8007855416667 9.94822335294118  13.8055555555556 10.2872273823529  C 13.8047459861111 10.6273778676471  13.5448205277778 10.9031532647059  13.2234072638889 10.9048745441176  L 10.5002962361111 10.9048745441176  C 10.1799631111111 10.8998264117647  9.92143668055556 10.6262315147059  9.91666666666667 10.2872273823529  C 9.92143668055556 9.94822335294118  10.1799631111111 9.67462845588235  10.5002962361111 9.66958042647059  Z M 10.5002962361111 11.9239921911765  L 13.2219259861111 11.9239921911765  C 13.5422591111111 11.9290402205882  13.8007855416667 12.2026351176471  13.8055555555556 12.5416391470588  C 13.8047459861111 12.8817896323529  13.5448205277778 13.1575650294118  13.2234072638889 13.1592863088235  L 10.5002962361111 13.1592863088235  C 10.1799631111111 13.1542381764706  9.92143668055556 12.8806432794118  9.91666666666667 12.5416391470588  C 9.92143668055556 12.2026351176471  10.1799631111111 11.9290402205882  10.5002962361111 11.9239921911765  Z M 1.8382244125 0.720588235294118  L 11.1889510833333 0.720588235294118  C 11.8007975555556 0.720588235294118  12.6784315 1.35331576470588  12.6650529444444 2.37229040588235  C 12.6784315 2.83314270441177  12.4955911111111 3.22788914411765  12.145072625 3.62169120147059  C 9.51038676388889 6.06949683529412  8.48469663611111 6.56056893676471  8.40799284305556 7.30473208088235  C 8.34377571805556 7.892129875  8.3856952375 13.4034699852941  8.37231667222222 13.4780751617647  C 8.37675208611111 13.5800030882353  8.35220744166667 13.6809962058824  8.30185620833333 13.7679966323529  C 8.07709628055555 14.0059776911765  7.84520111666667 13.9247619411765  7.72568592638889 13.8199369411765  C 6.84716000694444 13.0616083088235  4.88764585555556 11.3730757205882  4.66288590833333 10.8744486323529  C 4.40244980972222 10.3389911470588  4.50145119861111 9.23785635294118  4.50145119861111 7.30473208088235  C 4.50145119861111 6.86465591617647  1.41011025555556 4.26858427058824  0.742073791666667 3.62169120147059  C 0.581530988888889 3.43565041029412  0.194444444444444 3.06451322058824  0.194444444444444 2.37323477794118  C 0.194444444444444 1.36087072058824  0.973968965277778 0.720588235294118  1.8382244125 0.720588235294118  Z M 1.49597484166667 2.93538626911765  C 1.5146607875 2.96291337794118  1.5406586125 2.99560182352941  1.57234347083333 3.03001071470588  L 1.66821045416667 3.13151695294118  L 1.63002615416667 3.09108649705882  C 2.17138694305556 3.58745628088235  2.71764210277778 4.07780985294118  3.26870176111111 4.56206655882353  L 3.43443792222222 4.71088501470588  C 4.92606332361111 6.06573506617647  5.29084535 6.4450930867647  5.29084534027778 7.00079666176471  C 5.29084534027778 7.32596068235294  5.29084534027778 7.60381246470588  5.28434587916667 8.03736448529412  C 5.26484750555556 9.37931121029412  5.28434587916667 9.75178739705882  5.37371342083333 9.93501476470588  C 5.41189773055556 10.0158756764706  5.90504404583333 10.5173852205882  6.57692540555555 11.1341645882353  L 6.76865938194445 11.3036284117647  C 7.13425384583333 11.6287924117647  7.40235645138889 11.9401928676471  7.40235645138889 11.9066442352941  C 7.40235645138889 11.8842784117647  7.40235645138889 11.1794696176471  7.40235645138889 9.79221785294118  C 7.40235645138889 8.14575248529412  7.4088559125 7.19090578088235  7.44054076111111 6.91907555294118  C 7.46003913472222 6.76423555294118  7.49822344444445 6.61455687941177  7.55590612777778 6.47175997794118  C 7.72895417777778 6.05885329411765  8.01086812361111 5.77497994705882  8.72743326388889 5.15820058970588  L 9.7186005 4.31088166764706  C 10.1670629861111 3.90399653823529  10.6212125833333 3.49797163676471  11.0696750694444 3.07732295294118  L 11.0184918472222 3.12549539852941  C 11.2297242361111 2.88807405147059  11.306092875 2.71172849705882  11.299593375 2.49495247647059  C 11.306092875 2.10183090147059  10.9421233055556 1.75  10.6658963055556 1.75  L 2.14835785694444 1.75  C 1.6877088375 1.75  1.36111111111111 2.06140045588235  1.36111111111111 2.50183424852941  C 1.36111111111111 2.67817981323529  1.40579487222222 2.80635292205882  1.49597484166667 2.93538626911765  Z " fill-rule="nonzero" fill="#188dff" stroke="none" transform="matrix(1 0 0 1 1808 156 )" />
  </g>
</svg>