<?xml version="1.0" encoding="utf-8"?>
<svg version="1.1" xmlns:xlink="http://www.w3.org/1999/xlink" width="17px" height="15px" xmlns="http://www.w3.org/2000/svg">
  <g transform="matrix(1 0 0 1 -1867 -264 )">
    <path d="M 16.8950020460677 3.33353788035802  C 16.8950020460677 3.33353788035802  12.7637840808994 0.115902011675576  12.7637840808994 0.115902011675576  C 12.6191924269268 0.000881985531636289  12.4130665320973 -0.0315630102971216  12.2323205876029 0.0322320028192173  C 12.0515797366035 0.0960270159355562  11.9276781298117 0.244977066360138  11.912864390792 0.416277090219849  C 11.912864390792 0.416277090219849  11.912864390792 14.2667548875052  11.912864390792 14.2667548875052  C 11.9683446946266 14.6848199739264  12.3697602025954 15  12.8467503936079 15  C 13.3237355453117 15  13.7251560925893 14.6848199739264  13.7806363964239 14.2667548875052  C 13.7806363964239 14.2667548875052  13.7806363964239 4.00561255276319  13.7806363964239 4.00561255276319  C 13.7806363964239 4.00561255276319  16.490818704527 4.00561255276319  16.490818704527 4.00561255276319  C 16.6781626620598 4.02020755524822  16.8572136242102 3.93442249455054  16.9453838631146 3.78782747243422  C 17.0335490152974 3.64121743759476  17.0137103606888 3.46228290614242  16.8950020460677 3.33353788035802  Z M 0.850921532435375 2.57514310981924  C 0.850921532435375 2.57514310981924  8.95593758453034 2.57514310981924  8.95593758453034 2.57514310981924  C 9.42589208770001 2.57514310981924  9.80685900859348 2.23894971779395  9.80685900859348 1.82423557636209  C 9.80685900859348 1.40952143493023  9.42589208770001 1.07332813852739  8.95593758453034 1.07332813852739  C 8.95593758453034 1.07332813852739  0.850921532435375 1.07332813852739  0.850921532435375 1.07332813852739  C 0.380967029265704 1.07332813852739  0 1.40952143493023  0 1.82423557636209  C 0 2.23894971779395  0.380967029265704 2.57514310981924  0.850921532435375 2.57514310981924  Z M 0.850921532435375 8.20680206532232  C 0.850921532435375 8.20680206532232  8.95593758453034 8.20680206532232  8.95593758453034 8.20680206532232  C 9.42589208770001 8.20680206532232  9.80685900859348 7.87060848205215  9.80685900859348 7.45589434062029  C 9.80685900859348 7.04118019918843  9.42589208770001 6.70498738089779  8.95593758453034 6.70498738089779  C 8.95593758453034 6.70498738089779  0.850921532435375 6.70498738089779  0.850921532435375 6.70498738089779  C 0.380967029265704 6.70498738089779  0 7.04118019918843  0 7.45589434062029  C 0 7.87060848205215  0.380967029265704 8.20680206532232  0.850921532435375 8.20680206532232  Z M 8.95593758453034 12.3369800587178  C 8.95593758453034 12.3369800587178  0.850921532435375 12.3369800587178  0.850921532435375 12.3369800587178  C 0.380967029265704 12.3369800587178  0 12.673173641988  0 13.0878877834198  C 0 13.5026019248517  0.380967029265704 13.8387947431423  0.850921532435375 13.8387947431423  C 0.850921532435375 13.8387947431423  8.95593758453034 13.8387947431423  8.95593758453034 13.8387947431423  C 9.42589208770001 13.8387947431423  9.80685900859348 13.5026019248517  9.80685900859348 13.0878877834198  C 9.80685900859348 12.673173641988  9.42589208770001 12.3369800587178  8.95593758453034 12.3369800587178  Z " fill-rule="nonzero" fill="#666666" stroke="none" transform="matrix(1 0 0 1 1867 264 )" />
  </g>
</svg>