<?xml version="1.0" encoding="utf-8"?>
<svg version="1.1" xmlns:xlink="http://www.w3.org/1999/xlink" width="18px" height="19px" xmlns="http://www.w3.org/2000/svg">
  <g transform="matrix(1 0 0 1 -1551 -23 )">
    <path d="M 4.54453182220459 19  C 2.0388777256012 19  0 17.0107758045197  0 14.5653429031372  C 0 14.5653429031372  0 2.60681891441345  0 2.60681891441345  C 0 1.16946887969971  1.20605397224426 0  2.68792200088501 0  C 2.68792200088501 0  12.7135620117188 0  12.7135620117188 0  C 15.6287701129913 0  18 2.31731581687927  18 5.16556787490845  C 18 5.16556787490845  18 16.4452228546143  18 16.4452228546143  C 18 17.8539208173752  16.818083524704 19  15.3658075332642 19  C 15.3658075332642 19  4.54453182220459 19  4.54453182220459 19  Z M 1.5562744140625 2.60682082176209  C 1.5562744140625 2.60682082176209  1.5562744140625 14.5651302337646  1.5562744140625 14.5651302337646  C 1.5562744140625 16.2088605165482  2.89696502685547 17.5461101531982  4.54457187652588 17.5461101531982  C 4.54457187652588 17.5461101531982  15.3658351898193 17.5461101531982  15.3658351898193 17.5461101531982  C 15.960061609745 17.5461101531982  16.4435710906982 17.0520082712173  16.4435710906982 16.4452266693115  C 16.4435710906982 16.4452266693115  16.4435710906982 5.16556739807129  16.4435710906982 5.16556739807129  C 16.4435710906982 3.1187858581543  14.7700901031494 1.4538938999176  12.7135887145996 1.4538938999176  C 12.7135887145996 1.4538938999176  2.68794727325439 1.4538938999176  2.68794727325439 1.4538938999176  C 2.06393134593964 1.4538938999176  1.5562744140625 1.97070270776749  1.5562744140625 2.60682082176209  Z " fill-rule="nonzero" fill="#2590ff" stroke="none" transform="matrix(1 0 0 1 1551 23 )" />
  </g>
</svg>