<?xml version="1.0" encoding="utf-8"?>
<svg version="1.1" xmlns:xlink="http://www.w3.org/1999/xlink" width="30px" height="26px" xmlns="http://www.w3.org/2000/svg">
  <defs>
    <mask fill="white" id="clip119">
      <path d="M 27 0  C 28.6568400263786 0  30 1.16407197713852  30 2.6  C 30 2.6  30 23.4  30 23.4  C 30 24.8359540581703  28.6568700671196 26  27 26  C 27 26  3 26  3 26  C 1.34315997362137 26  0 24.8359280228615  0 23.4  C 0 23.4  0 2.6  0 2.6  C 0 1.16407197713852  1.34315997362137 0  3 0  C 3 0  27 0  27 0  Z " fill-rule="evenodd" />
    </mask>
  </defs>
  <g transform="matrix(1 0 0 1 -1821 -258 )">
    <path d="M 27 0  C 28.6568400263786 0  30 1.16407197713852  30 2.6  C 30 2.6  30 23.4  30 23.4  C 30 24.8359540581703  28.6568700671196 26  27 26  C 27 26  3 26  3 26  C 1.34315997362137 26  0 24.8359280228615  0 23.4  C 0 23.4  0 2.6  0 2.6  C 0 1.16407197713852  1.34315997362137 0  3 0  C 3 0  27 0  27 0  Z " fill-rule="nonzero" fill="#ffffff" stroke="none" transform="matrix(1 0 0 1 1821 258 )" />
    <path d="M 27 0  C 28.6568400263786 0  30 1.16407197713852  30 2.6  C 30 2.6  30 23.4  30 23.4  C 30 24.8359540581703  28.6568700671196 26  27 26  C 27 26  3 26  3 26  C 1.34315997362137 26  0 24.8359280228615  0 23.4  C 0 23.4  0 2.6  0 2.6  C 0 1.16407197713852  1.34315997362137 0  3 0  C 3 0  27 0  27 0  Z " stroke-width="2" stroke="#dadada" fill="none" transform="matrix(1 0 0 1 1821 258 )" mask="url(#clip119)" />
  </g>
</svg>