<?xml version="1.0" encoding="utf-8"?>
<svg version="1.1" xmlns:xlink="http://www.w3.org/1999/xlink" width="12px" height="7px" xmlns="http://www.w3.org/2000/svg">
  <g transform="matrix(1 0 0 1 -46 -9 )">
    <path d="M 1.46162402629852 0.256823003292084  C 1.12562403082848 -0.0856100022792816  0.588012009859085 -0.0856100022792816  0.252000004053116 0.256823003292084  C -0.0839999914169312 0.59926301240921  -0.0839999914169312 1.14716002345085  0.252000004053116 1.48959302902222  C 0.252000004053116 1.48959302902222  5.2737717628479 6.60744714736938  5.2737717628479 6.60744714736938  C 5.30431176349521 6.65725214779377  5.34097194671631 6.70083423703909  5.38373994827271 6.74441623687744  C 5.55478794872761 6.91875123977661  5.77472418546677 7.00591481057927  6.00076818466187 6.99968481063843  C 6.22069218754768 6.99968481063843  6.4467359483242 6.91875123977661  6.61779594421387 6.74441623687744  C 6.66055194288492 6.70083423703909  6.69721212983131 6.65725214779377  6.72776412963867 6.60744714736938  C 6.72776412963867 6.60744714736938  11.7495241165161 1.48959302902222  11.7495241165161 1.48959302902222  C 11.9144761115313 1.32148802280426  12 1.09734798967838  12 0.873207986354828  C 12 0.649067983031273  11.9144761115313 0.42492800951004  11.7495241165161 0.256823003292084  C 11.4135121107101 -0.0856100022792816  10.8759118318558 -0.0856100022792816  10.5398998260498 0.256823003292084  C 10.5398998260498 0.256823003292084  6.00076818466187 4.88281488418579  6.00076818466187 4.88281488418579  L 1.46162402629852 0.256823003292084  Z " fill-rule="nonzero" fill="#2590ff" stroke="none" transform="matrix(1 0 0 1 46 9 )" />
  </g>
</svg>