<?xml version="1.0" encoding="utf-8"?>
<svg version="1.1" xmlns:xlink="http://www.w3.org/1999/xlink" width="7px" height="10px" xmlns="http://www.w3.org/2000/svg">
  <g transform="matrix(1 0 0 1 -1453 -834 )">
    <path d="M 6.99998615237313 0.106939998651787  C 7.00074215238795 0.0662199989520289  6.97522020863501 0.0287600010203626  6.93448020990951 0.0107900003715638  C 6.89373321124068 -0.00718000027723494  6.84508292796054 -0.00242999911250309  6.80960692668554 0.0229900003169221  C 6.80960692668554 0.0229900003169221  0.180823994519417 4.66842977351401  0.180823994519417 4.66842977351401  C 0.0667239967119579 4.74814977312749  0 4.87064019299233  0 5.00039019954934  C 0 5.13013019804008  0.0667239967119579 5.25262004272869  0.180823994519417 5.33234004234217  C 0.180823994519417 5.33234004234217  6.80960692668554 9.97777979217273  6.80960692668554 9.97777979217273  C 6.84494292508716 10.0024897922757  6.89288614597502 10.0069701274608  6.9331431446041 9.98932012790079  C 6.97339314328986 9.9716701283408  6.99891508897773 9.93498968651515  6.99890808897767 9.89478968566389  C 6.99890808897767 9.89478968566389  6.99890808897767 8.87866036396231  6.99890808897767 8.87866036396231  C 6.99870508897775 8.81406036681519  6.96587505590338 8.75303027278998  6.90963705443246 8.71269027404616  C 6.90963705443246 8.71269027404616  1.61349304336256 5.00135005362943  1.61349304336256 5.00135005362943  C 1.61349304336256 5.00135005362943  6.90963705443246 1.29290998676174  6.90963705443246 1.29290998676174  C 6.96657505424295 1.25254998626479  6.99984615237966 1.19107003253657  6.99998615237313 1.12597003469923  C 6.99998615237313 1.12597003469923  6.99998615237313 0.106939998651787  6.99998615237313 0.106939998651787  Z " fill-rule="nonzero" fill="#3d5063" stroke="none" transform="matrix(1 0 0 1 1453 834 )" />
  </g>
</svg>