<?xml version="1.0" encoding="utf-8"?>
<svg version="1.1" xmlns:xlink="http://www.w3.org/1999/xlink" width="30px" height="30px" xmlns="http://www.w3.org/2000/svg">
  <g transform="matrix(1 0 0 1 -1481 -824 )">
    <path d="M 25.9996795654297 0  C 28.2089996337891 0  30 1.79099988937378  30 4.00031995773315  C 30 4.00031995773315  30 25.9996795654297  30 25.9996795654297  C 30 28.2089996337891  28.2089996337891 30  25.9996795654297 30  C 25.9996795654297 30  4.00031995773315 30  4.00031995773315 30  C 1.79099988937378 30  0 28.2089996337891  0 25.9996795654297  C 0 25.9996795654297  0 4.00031995773315  0 4.00031995773315  C 0 1.79099988937378  1.79099988937378 0  4.00031995773315 0  C 4.00031995773315 0  25.9996795654297 0  25.9996795654297 0  Z " fill-rule="nonzero" fill="#f6faff" stroke="none" transform="matrix(1 0 0 1 1481 824 )" />
  </g>
</svg>