<?xml version="1.0" encoding="utf-8"?>
<svg version="1.1" xmlns:xlink="http://www.w3.org/1999/xlink" width="30px" height="30px" xmlns="http://www.w3.org/2000/svg">
  <g transform="matrix(1 0 0 1 -1521 -824 )">
    <path d="M 26.0000095367432 0  C 28.2091495990753 0  30 1.79084992408752  30 3.99998998641968  C 30 3.99998998641968  30 26.0000095367432  30 26.0000095367432  C 30 28.2091495990753  28.2091495990753 30  26.0000095367432 30  C 26.0000095367432 30  3.99998998641968 30  3.99998998641968 30  C 1.79084992408752 30  0 28.2091495990753  0 26.0000095367432  C 0 26.0000095367432  0 3.99998998641968  0 3.99998998641968  C 0 1.79084992408752  1.79084992408752 0  3.99998998641968 0  C 3.99998998641968 0  26.0000095367432 0  26.0000095367432 0  Z " fill-rule="nonzero" fill="#f6faff" stroke="none" transform="matrix(1 0 0 1 1521 824 )" />
  </g>
</svg>