<?xml version="1.0" encoding="utf-8"?>
<svg version="1.1" xmlns:xlink="http://www.w3.org/1999/xlink" width="14px" height="11px" xmlns="http://www.w3.org/2000/svg">
  <g transform="matrix(1 0 0 1 -1829 -266 )">
    <path d="M 10.5618102487529 0.0883410028312207  C 10.5273562490248 0.0340340015925616  10.4611922437265 0.00016499999308784  10.389204245269 0  C 10.389204245269 0  3.61079608057115 0  3.61079608057115 0  C 3.53880808211367 0.00016499999308784  3.47264407681535 0.0340340015925616  3.43819007708726 0.0883410028312207  C 3.43819007708726 0.0883410028312207  0.0249759993994766 5.41646596744096  0.0249759993994766 5.41646596744096  C -0.00833000181167128 5.46853996726401  -0.00833000181167128 5.53163581172383  0.0249759993994766 5.58369880960041  C 0.0249759993994766 5.58369880960041  3.43819007708726 10.9118244643202  3.43819007708726 10.9118244643202  C 3.47270007804686 10.9660764646741  3.53885007985528 10.9998679999969  3.61079608057115 11  C 3.61079608057115 11  10.389204245269 11  10.389204245269 11  C 10.4611502459849 10.9998679999969  10.5273002477933 10.9660764646741  10.5618102487529 10.9118244643202  C 10.5618102487529 10.9118244643202  13.9750237002166 5.58369880960041  13.9750237002166 5.58369880960041  C 14.0083297014278 5.53163581172383  14.0083297014278 5.46853996726401  13.9750237002166 5.41646596744096  C 13.9750237002166 5.41646596744096  10.5618102487529 0.0883410028312207  10.5618102487529 0.0883410028312207  Z " fill-rule="nonzero" fill="#ffffff" stroke="none" transform="matrix(1 0 0 1 1829 266 )" />
  </g>
</svg>