<?xml version="1.0" encoding="utf-8"?>
<svg version="1.1" xmlns:xlink="http://www.w3.org/1999/xlink" width="45px" height="35px" xmlns="http://www.w3.org/2000/svg">
  <g transform="matrix(1 0 0 1 -20 -15 )">
    <path d="M 45 9  L 30.6429748535156 9  L 30.6429748535156 0  L 25.5367794036865 0  C 25.5367794036865 0  25.5367794036865 6.70484495162964  25.5367794036865 6.70484495162964  C 24.6806994080544 6.24970495700836  23.0515193939209 5.58697974681854  20.1533393859863 5.01773977279663  C 15.5608191490173 4.10381978750229  10.8920249938965 3.63706003222614  6.2111701965332 3.62379503250122  C 6.2111701965332 3.62379503250122  0 3.62379503250122  0 3.62379503250122  L 0 7.94454479217529  C 0 7.94454479217529  6.2111701965332 7.94454479217529  6.2111701965332 7.94454479217529  C 10.8919801712036 7.95875479187816  15.5606842041016 8.42551451921463  20.1533393859863 9.3384895324707  C 23.0515193939209 9.90968954563141  24.6787644028664 10.5724147260189  25.5367794036865 11.0255947113037  C 25.5367794036865 11.0255947113037  25.5367794036865 14.0227146148682  25.5367794036865 14.0227146148682  C 24.6806994080544 13.5695346295834  23.0515193939209 12.9048503637314  20.1533393859863 12.3356103897095  C 15.5606842041016 11.4226353764534  10.8919801712036 10.9558746954426  6.2111701965332 10.9416646957397  C 6.2111701965332 10.9416646957397  0 10.9416646957397  0 10.9416646957397  L 0 15.262414932251  C 0 15.262414932251  6.2111701965332 15.262414932251  6.2111701965332 15.262414932251  C 10.8920702934265 15.2763799326494  15.5608644485474 15.7437702417374  20.1533393859863 16.6581802368164  C 23.0515193939209 17.2293802499771  24.6787644028664 17.8901447355747  25.5367794036865 18.3453197479248  C 25.5367794036865 18.3453197479248  25.5367794036865 21.3425807952881  25.5367794036865 21.3425807952881  C 24.6806994080544 20.8875807821751  23.0515193939209 20.2228943705559  20.1533393859863 19.6554393768311  C 15.5605492591858 18.7442494034767  10.8917551040649 18.2800106527284  6.2111701965332 18.2690906524658  C 6.2111701965332 18.2690906524658  0 18.2690906524658  0 18.2690906524658  L 0 22.5918350219727  C 0 22.5918350219727  6.2111701965332 22.5918350219727  6.2111701965332 22.5918350219727  C 10.8918452262878 22.6046800222248  15.5605492591858 23.070179104805  20.1533393859863 23.9819641113281  C 23.0515193939209 24.5531641244888  24.6787644028664 25.2139305174351  25.5367794036865 25.6691055297852  C 25.5367794036865 25.6691055297852  25.5367794036865 35  25.5367794036865 35  L 45 35  L 45 30  L 30.6429748535156 30  L 30.6429748535156 27.7390747070313  L 45 27.7390747070313  L 45 23  L 30.6429748535156 23  L 30.6429748535156 20  L 45 20  L 45 16  L 30.6429748535156 16  L 30.6429748535156 13.1031951904297  L 45 13.1031951904297  L 45 8.78059005737305  L 45 9  Z " fill-rule="nonzero" fill="#003478" stroke="none" transform="matrix(1 0 0 1 20 15 )" />
  </g>
</svg>