<?xml version="1.0" encoding="utf-8"?>
<svg version="1.1" xmlns:xlink="http://www.w3.org/1999/xlink" width="18px" height="15px" xmlns="http://www.w3.org/2000/svg">
  <g transform="matrix(1 0 0 1 -1827 -264 )">
    <path d="M 12.7262163162231 15  C 12.7262163162231 15  5.27378404140472 15  5.27378404140472 15  C 4.72023005783558 14.999025000037  4.21113612502813 14.7273153337565  3.94507813453674 14.2908603494818  C 3.94507813453674 14.2908603494818  0.192311994731426 8.17243467677723  0.192311994731426 8.17243467677723  C -0.0640980005264282 7.75378468361768  -0.0640980005264282 7.24621531638232  0.192311994731426 6.82756532322277  C 0.192311994731426 6.82756532322277  3.94507813453674 0.709139975634488  3.94507813453674 0.709139975634488  C 4.21113612502813 0.272684991359711  4.72023005783558 0.000974999962967228  5.27378404140472 0  C 5.27378404140472 0  12.7262163162231 0  12.7262163162231 0  C 13.2797702997923 0.000974999962967228  13.7888645902276 0.272684991359711  14.054922580719 0.709139975634488  C 14.054922580719 0.709139975634488  17.8076877593994 6.82756532322277  17.8076877593994 6.82756532322277  C 18.0640977546573 7.24621531638232  18.0640977546573 7.75378468361768  17.8076877593994 8.17243467677723  C 17.8076877593994 8.17243467677723  14.054922580719 14.2908603494818  14.054922580719 14.2908603494818  C 13.7888645902276 14.7273153337565  13.2797702997923 14.999025000037  12.7262163162231 15  Z " fill-rule="nonzero" fill="#666666" stroke="none" transform="matrix(1 0 0 1 1827 264 )" />
  </g>
</svg>