<?xml version="1.0" encoding="utf-8"?>
<svg version="1.1" xmlns:xlink="http://www.w3.org/1999/xlink" width="46px" height="30px" xmlns="http://www.w3.org/2000/svg">
  <defs>
    <mask fill="white" id="clip116">
      <path d="M 4.00002193450928 0  C 4.00002193450928 0  41.9999771118164 0  41.9999771118164 0  C 44.2091271877289 0  46 1.79084992408752  46 3.99998998641968  C 46 3.99998998641968  46 26.0000095367432  46 26.0000095367432  C 46 28.2091495990753  44.2091271877289 30  41.9999771118164 30  C 41.9999771118164 30  4.00002193450928 30  4.00002193450928 30  C 1.7908718585968 30  0 28.2091495990753  0 26.0000095367432  C 0 26.0000095367432  0 3.99998998641968  0 3.99998998641968  C 0 1.79084992408752  1.7908718585968 0  4.00002193450928 0  Z " fill-rule="evenodd" />
    </mask>
  </defs>
  <g transform="matrix(1 0 0 1 -1844 -824 )">
    <path d="M 4.00002193450928 0  C 4.00002193450928 0  41.9999771118164 0  41.9999771118164 0  C 44.2091271877289 0  46 1.79084992408752  46 3.99998998641968  C 46 3.99998998641968  46 26.0000095367432  46 26.0000095367432  C 46 28.2091495990753  44.2091271877289 30  41.9999771118164 30  C 41.9999771118164 30  4.00002193450928 30  4.00002193450928 30  C 1.7908718585968 30  0 28.2091495990753  0 26.0000095367432  C 0 26.0000095367432  0 3.99998998641968  0 3.99998998641968  C 0 1.79084992408752  1.7908718585968 0  4.00002193450928 0  Z " fill-rule="nonzero" fill="#ffffff" stroke="none" transform="matrix(1 0 0 1 1844 824 )" />
    <path d="M 4.00002193450928 0  C 4.00002193450928 0  41.9999771118164 0  41.9999771118164 0  C 44.2091271877289 0  46 1.79084992408752  46 3.99998998641968  C 46 3.99998998641968  46 26.0000095367432  46 26.0000095367432  C 46 28.2091495990753  44.2091271877289 30  41.9999771118164 30  C 41.9999771118164 30  4.00002193450928 30  4.00002193450928 30  C 1.7908718585968 30  0 28.2091495990753  0 26.0000095367432  C 0 26.0000095367432  0 3.99998998641968  0 3.99998998641968  C 0 1.79084992408752  1.7908718585968 0  4.00002193450928 0  Z " stroke-width="2" stroke="#2590ff" fill="none" transform="matrix(1 0 0 1 1844 824 )" mask="url(#clip116)" />
  </g>
</svg>