<?xml version="1.0" encoding="utf-8"?>
<svg version="1.1" xmlns:xlink="http://www.w3.org/1999/xlink" width="14px" height="14px" viewBox="1307 1729  14 14" xmlns="http://www.w3.org/2000/svg">
  <path d="M 1307.5 1731  A 1.5 1.5 0 0 1 1309 1729.5 L 1319 1729.5  A 1.5 1.5 0 0 1 1320.5 1731 L 1320.5 1741  A 1.5 1.5 0 0 1 1319 1742.5 L 1309 1742.5  A 1.5 1.5 0 0 1 1307.5 1741 L 1307.5 1731  Z " fill-rule="nonzero" fill="#f0f0f0" stroke="none" />
  <path d="M 1307.5 1731  A 1.5 1.5 0 0 1 1309 1729.5 L 1319 1729.5  A 1.5 1.5 0 0 1 1320.5 1731 L 1320.5 1741  A 1.5 1.5 0 0 1 1319 1742.5 L 1309 1742.5  A 1.5 1.5 0 0 1 1307.5 1741 L 1307.5 1731  Z " stroke-width="1" stroke="#d5e1f7" fill="none" />
  <path d="M 1310.5 1736.5  L 1313.5 1739.5  " stroke-width="3" stroke="#d5e1f7" fill="none" />
  <path d="M 1313.5 1739.5  L 1318.5 1732.5  " stroke-width="3" stroke="#d5e1f7" fill="none" />
</svg>