<?xml version="1.0" encoding="utf-8"?>
<svg version="1.1" xmlns:xlink="http://www.w3.org/1999/xlink" width="14px" height="16px" xmlns="http://www.w3.org/2000/svg">
  <g transform="matrix(1 0 0 1 -1361 -1428 )">
    <path d="M 0.875510416666671 0.000660714285718963  C 0.875510416666671 0.000660714285718963  9.041484375 0.000660714285718963  9.041484375 0.000660714285718963  C 9.52452083333334 0.000660714285718963  10.1989270833333 0.277428571428572  10.5361666666667 0.60775000000001  C 10.5361666666667 0.60775000000001  13.3796614583333 3.39323214285715  13.3796614583333 3.39323214285715  C 13.7168828125 3.72357142857144  13.9994348958333 4.38423214285716  13.9994348958333 4.85741071428572  C 13.9994348958333 4.85741071428572  13.9994348958333 15.1422857142857  13.9994348958333 15.1422857142857  C 13.9994348958333 15.6154464285714  13.6075442708333 15.9993392857143  13.1244713541667 15.9993392857143  C 13.1244713541667 15.9993392857143  0.875510416666671 15.9993392857143  0.875510416666671 15.9993392857143  C 0.392473958333329 15.9993392857143  0.000583333333336119 15.6154464285714  0.000583333333336119 15.1422857142857  C 0.000583333333336119 15.1422857142857  0.000583333333336119 0.857732142857149  0.000583333333336119 0.857732142857149  C 0.000583333333336119 0.384553571428569  0.392492187499999 0.000660714285718963  0.875510416666671 0.000660714285718963  Z M 1.167140625 1.14342857142857  L 1.167140625 14.8565714285714  L 12.8328229166667 14.8565714285714  L 12.8328411458333 5.71448214285715  C 12.8328411458333 5.71448214285715  9.041484375 5.71448214285715  9.041484375 5.71448214285715  C 8.55844791666667 5.71448214285715  8.16655729166666 5.33057142857142  8.16655729166666 4.85741071428572  C 8.16655729166666 4.85741071428572  8.16655729166666 1.14342857142857  8.16655729166666 1.14342857142857  L 1.167140625 1.14342857142857  Z M 12.559421875 4.20566071428571  C 12.559421875 4.20566071428571  9.70681250000001 1.41125  9.70681250000001 1.41125  C 9.64301041666667 1.34875  9.48806250000001 1.26841071428571  9.33315104166666 1.21483928571428  C 9.33315104166666 1.21483928571428  9.33315104166666 4.57171428571428  9.33315104166666 4.57171428571428  C 9.33315104166666 4.57171428571428  12.7599427083333 4.57171428571428  12.7599427083333 4.57171428571428  C 12.7052552083333 4.41992857142856  12.6232239583333 4.26816071428571  12.559421875 4.20566071428571  Z M 8.24477864583331 9.70464285714286  L 10.5030260416667 13.1428571428571  L 8.04070312499999 13.1428571428571  L 7.00679947916666 11.5703214285714  L 5.97289583333333 13.1428571428571  L 3.49695572916666 13.1428571428571  L 5.78243749999999 9.70464285714286  L 3.49695572916666 6.27976785714286  L 5.959296875 6.27976785714286  L 7.00679947916666 7.85228571428572  L 8.04070312499999 6.27976785714286  L 10.5030260416667 6.27976785714286  L 8.24477864583331 9.70464285714286  Z " fill-rule="nonzero" fill="#45b058" stroke="none" transform="matrix(1 0 0 1 1361 1428 )" />
  </g>
</svg>