<?xml version="1.0" encoding="utf-8"?>
<svg version="1.1" xmlns:xlink="http://www.w3.org/1999/xlink" width="14px" height="14px" viewBox="1307 1479  14 14" xmlns="http://www.w3.org/2000/svg">
  <path d="M 1307.5 1481  A 1.5 1.5 0 0 1 1309 1479.5 L 1319 1479.5  A 1.5 1.5 0 0 1 1320.5 1481 L 1320.5 1491  A 1.5 1.5 0 0 1 1319 1492.5 L 1309 1492.5  A 1.5 1.5 0 0 1 1307.5 1491 L 1307.5 1481  Z " fill-rule="nonzero" fill="#ffffff" stroke="none" />
  <path d="M 1307.5 1481  A 1.5 1.5 0 0 1 1309 1479.5 L 1319 1479.5  A 1.5 1.5 0 0 1 1320.5 1481 L 1320.5 1491  A 1.5 1.5 0 0 1 1319 1492.5 L 1309 1492.5  A 1.5 1.5 0 0 1 1307.5 1491 L 1307.5 1481  Z " stroke-width="1" stroke="#d5e1f7" fill="none" />
</svg>