<?xml version="1.0" encoding="utf-8"?>
<svg version="1.1" xmlns:xlink="http://www.w3.org/1999/xlink" width="14px" height="16px" xmlns="http://www.w3.org/2000/svg">
  <g transform="matrix(1 0 0 1 -1361 -1528 )">
    <path d="M 0.583333333333333 16  C 0.583333333333333 16  13.4166666666667 16  13.4166666666667 16  C 13.7393229166667 16  14 15.7446428571428  14 15.4285714285714  C 14 15.4285714285714  14 4.41607142857143  14 4.41607142857143  C 14 4.26428571428571  13.9380208333333 4.11785714285715  13.8286458333333 4.01071428571429  C 13.8286458333333 4.01071428571429  9.90572916666667 0.167857142857136  9.90572916666667 0.167857142857136  C 9.79635416666667 0.0607142857142792  9.64869791666668 0  9.49375000000001 0  C 9.49375000000001 0  0.583333333333333 0  0.583333333333333 0  C 0.260677083333336 0  0 0.255357142857146  0 0.571428571428587  C 0 0.571428571428587  0 15.4285714285714  0 15.4285714285714  C 0 15.7446428571429  0.260677083333336 16  0.583333333333333 16  Z M 8.75000000000001 5.89285714285714  C 8.75000000000001 5.89285714285714  12.6875 5.89285714285714  12.6875 5.89285714285714  L 12.6875 14.7142857142857  L 1.31250000000001 14.7142857142857  L 1.31250000000001 1.28571428571428  L 7.98437500000001 1.28571428571428  C 7.98437500000001 1.28571428571428  7.98437500000001 5.14285714285714  7.98437500000001 5.14285714285714  C 7.98437500000001 5.55714285714285  8.32708333333334 5.89285714285714  8.75000000000001 5.89285714285714  Z M 12.6546875 4.67857142857142  L 9.22395833333334 4.67857142857142  L 9.22395833333334 1.31785714285714  L 12.6546875 4.67857142857142  Z M 10.0442708333333 10.4714285714286  C 10.21015625 10.6339285714286  10.259375 10.9375  10.1572916666666 11.1785714285714  C 10.0989583333333 11.3160714285714  9.94401041666664 11.5446428571428  9.55026041666665 11.5446428571428  C 9.15286458333331 11.5446428571428  8.56770833333331 11.3714285714286  8.05364583333331 11.1017857142857  C 7.58880208333331 11.1785714285714  7.07473958333332 11.35  6.57890624999999 11.5142857142857  C 6.47317708333332 11.55  6.36380208333332 11.5857142857143  6.25807291666665 11.6196428571429  C 5.56536458333331 12.7839285714286  5.04583333333331 13.0375  4.72499999999997 13.0375  C 4.64843749999998 13.0375  4.58281249999999 13.0214285714286  4.52812499999999 13.0017857142857  C 4.40234374999999 12.9553571428571  4.29479166666665 12.8589285714286  4.22734374999999 12.7339285714286  C 4.16718749999999 12.6214285714286  4.14166666666666 12.4964285714286  4.16354166666666 12.3982142857143  C 4.27109374999998 11.8660714285714  4.99479166666666 11.4446428571429  5.534375 11.1714285714286  C 5.82421874999999 10.6714285714286  6.21979166666664 9.83035714285713  6.46770833333331 9.25178571428571  C 6.27083333333331 8.50535714285714  6.16328124999997 7.91964285714285  6.28359374999997 7.49107142857142  C 6.34739583333331 7.25714285714286  6.60442708333333 7.09642857142857  6.89244791666667 7.10892857142857  C 7.13671874999999 7.11964285714286  7.42291666666666 7.26785714285715  7.49218749999999 7.6482142857143  C 7.59609374999999 8.13035714285715  7.45755208333332 8.68749999999999  7.35182291666665 9.1142857142857  C 7.56510416666664 9.65714285714283  7.85859374999996 10.0214285714286  8.30703124999997 10.2892857142857  C 9.2184895833333 10.1785714285714  9.80364583333333 10.2392857142857  10.0442708333333 10.4714285714286  Z M 5.35208333333335 11.8267857142857  C 5.16432291666668 11.9946428571428  4.92552083333334 12.2267857142857  4.80338541666668 12.4464285714286  C 4.90729166666667 12.3678571428571  5.09869791666667 12.1875  5.35208333333335 11.8267857142857  Z M 6.90885416666668 7.58571428571428  C 6.85598958333335 7.64464285714286  6.86875 8.14821428571428  6.95807291666666 8.50357142857142  C 7.03098958333332 8.26071428571427  7.04374999999999 7.78035714285715  6.94895833333332 7.62142857142857  C 6.93619791666666 7.59821428571429  6.92343750000001 7.5875  6.90885416666668 7.58571428571428  Z M 7.63255208333335 10.5982142857143  C 7.36093750000003 10.3875  7.11484375000001 10.1035714285714  6.91979166666668 9.77321428571428  C 6.77942708333335 10.1303571428571  6.57708333333335 10.6178571428571  6.33463541666668 11.0482142857143  C 6.40755208333334 11.0196428571429  6.48229166666667 10.9892857142857  6.55885416666666 10.9589285714286  C 6.8796875 10.8303571428571  7.23880208333335 10.6857142857143  7.63255208333335 10.5982142857143  Z M 9.75625000000002 10.9428571428572  C 9.75442708333335 10.9410714285715  9.67421875 10.7767857142858  8.93411458333335 10.8107142857143  C 9.57760416666668 11.0589285714286  9.74166666666668 10.9517857142858  9.75625000000002 10.9428571428572  Z " fill-rule="nonzero" fill="#f05542" stroke="none" transform="matrix(1 0 0 1 1361 1528 )" />
  </g>
</svg>