<?xml version="1.0" encoding="utf-8"?>
<svg version="1.1" xmlns:xlink="http://www.w3.org/1999/xlink" width="1648px" height="1015px" xmlns="http://www.w3.org/2000/svg">
  <defs>
    <filter x="266px" y="63px" width="1648px" height="1015px" filterUnits="userSpaceOnUse" id="filter162">
      <feOffset dx="0" dy="2" in="SourceAlpha" result="shadowOffsetInner" />
      <feGaussianBlur stdDeviation="7" in="shadowOffsetInner" result="shadowGaussian" />
      <feComposite in2="shadowGaussian" operator="atop" in="SourceAlpha" result="shadowComposite" />
      <feColorMatrix type="matrix" values="0 0 0 0 0  0 0 0 0 0  0 0 0 0 0  0 0 0 0.0274509803921569 0  " in="shadowComposite" />
    </filter>
    <g id="widget163">
      <path d="M 8.24418067932129 0  C 8.24418067932129 0  1611.755859375 0  1611.755859375 0  C 1616.30967950821 0  1620 3.720990358423  1620 8.31152731731333  C 1620 8.31152731731333  1620 978.688461330607  1620 978.688461330607  C 1620 983.278998289497  1616.30967950821 987  1611.755859375 987  C 1611.755859375 987  8.24418067932129 987  8.24418067932129 987  C 3.69036054611206 987  0 983.278998289497  0 978.688461330607  C 0 978.688461330607  0 8.31152731731333  0 8.31152731731333  C 0 3.720990358423  3.69036054611206 0  8.24418067932129 0  Z " fill-rule="nonzero" fill="#ffffff" stroke="none" transform="matrix(1 0 0 1 280 75 )" />
    </g>
  </defs>
  <g transform="matrix(1 0 0 1 -266 -63 )">
    <use xlink:href="#widget163" filter="url(#filter162)" />
    <use xlink:href="#widget163" />
  </g>
</svg>