<?xml version="1.0" encoding="utf-8"?>
<svg version="1.1" xmlns:xlink="http://www.w3.org/1999/xlink" width="14px" height="15px" xmlns="http://www.w3.org/2000/svg">
  <g transform="matrix(1 0 0 1 -50 -204 )">
    <path d="M 13.8534234301351 13.9198066175949  C 14.0191088550846 13.7541211926457  14.0191088550846 13.4854920425442  13.853423430136 13.319806617595  C 13.853423430136 13.319806617595  10.6514234301358 10.1318066175949  10.6514234301358 10.1318066175949  C 11.6386492136007 9.02640813872682  12.1837339066369 7.59587234733596  12.1824234301357 6.11380661759489  C 12.192854706067 3.2510029610026  10.2082205023971 0.767296023454946  7.41366139475758 0.145851752724013  C 4.61910228711804 -0.475592518006863  1.76891997403891 0.932964849021516  0.565124176471727 3.53039228120809  C -0.638671621095455 6.12781971339462  0.12884520498028 9.21302489225877  2.40934569343244 10.9436522669079  C 4.6898461818846 12.6742796415571  7.86778228893218 12.5832017983498  10.045423430136 10.7248066175949  C 10.045423430136 10.7248066175949  13.2534234301356 13.9198066175949  13.2534234301356 13.9198066175949  C 13.4191088550851 14.0854920425442  13.6877380051865 14.0854920425442  13.8534234301351 13.9198066175949  Z M 6.09442343013598 11.3388066175949  C 3.20372953853166 11.343232576962  0.855696518104196 9.00549205881617  0.847423430135677 6.11480661759492  C 0.839732392642873 3.99249898411546  2.11626049105962 2.07488739639422  4.07481393953549 1.25738067920753  C 6.03336738801136 0.43987396202084  8.2915844269337 0.883740797616497  9.79501405180417 2.38172217475216  C 11.2984436766747 3.87970355188787  11.75050592141 6.13629427452827  10.9401150135454 8.09780272968021  C 10.12972410568 10.0593111848322  8.21674499931123 11.3387926818527  6.09442343013598 11.3388066175949  Z " fill-rule="nonzero" fill="#6b83a6" stroke="none" transform="matrix(1 0 0 1 50 204 )" />
  </g>
</svg>