<?xml version="1.0" encoding="utf-8"?>
<svg version="1.1" xmlns:xlink="http://www.w3.org/1999/xlink" width="18px" height="18px" xmlns="http://www.w3.org/2000/svg">
  <defs>
    <mask fill="white" id="clip169">
      <path d="M 14.2900672706323 16.2811529493745  L 9 13.5  L 3.70993272936774 16.2811529493745  L 4.72024567667181 10.3905764746873  L 0.440491353343617 6.21884705062547  L 6.35496636468387 5.35942352531274  L 9 0  L 11.6450336353161 5.35942352531274  L 17.5595086466564 6.21884705062547  L 13.2797543233282 10.3905764746873  L 14.2900672706323 16.2811529493745  Z " fill-rule="evenodd" />
    </mask>
  </defs>
  <g transform="matrix(1 0 0 1 -323 -440 )">
    <path d="M 14.2900672706323 16.2811529493745  L 9 13.5  L 3.70993272936774 16.2811529493745  L 4.72024567667181 10.3905764746873  L 0.440491353343617 6.21884705062547  L 6.35496636468387 5.35942352531274  L 9 0  L 11.6450336353161 5.35942352531274  L 17.5595086466564 6.21884705062547  L 13.2797543233282 10.3905764746873  L 14.2900672706323 16.2811529493745  Z " fill-rule="nonzero" fill="#ffffff" stroke="none" fill-opacity="0" transform="matrix(1 0 0 1 323 440 )" />
    <path d="M 14.2900672706323 16.2811529493745  L 9 13.5  L 3.70993272936774 16.2811529493745  L 4.72024567667181 10.3905764746873  L 0.440491353343617 6.21884705062547  L 6.35496636468387 5.35942352531274  L 9 0  L 11.6450336353161 5.35942352531274  L 17.5595086466564 6.21884705062547  L 13.2797543233282 10.3905764746873  L 14.2900672706323 16.2811529493745  Z " stroke-width="2" stroke="#6c84aa" fill="none" transform="matrix(1 0 0 1 323 440 )" mask="url(#clip169)" />
  </g>
</svg>