<?xml version="1.0" encoding="utf-8"?>
<svg version="1.1" xmlns:xlink="http://www.w3.org/1999/xlink" width="450px" height="32px" viewBox="463 278  450 32" xmlns="http://www.w3.org/2000/svg">
  <path d="M 463.5 282  A 3.5 3.5 0 0 1 467 278.5 L 909 278.5  A 3.5 3.5 0 0 1 912.5 282 L 912.5 306  A 3.5 3.5 0 0 1 909 309.5 L 467 309.5  A 3.5 3.5 0 0 1 463.5 306 L 463.5 282  Z " fill-rule="nonzero" fill="#ffffff" stroke="none" fill-opacity="0" />
  <path d="M 463.5 282  A 3.5 3.5 0 0 1 467 278.5 L 909 278.5  A 3.5 3.5 0 0 1 912.5 282 L 912.5 306  A 3.5 3.5 0 0 1 909 309.5 L 467 309.5  A 3.5 3.5 0 0 1 463.5 306 L 463.5 282  Z " stroke-width="1" stroke="#2590ff" fill="none" />
</svg>