<?xml version="1.0" encoding="utf-8"?>
<svg version="1.1" xmlns:xlink="http://www.w3.org/1999/xlink" width="12px" height="12px" viewBox="453 395.5  12 12" xmlns="http://www.w3.org/2000/svg">
  <path d="M 459 395.5  C 462.36 395.5  465 398.14  465 401.5  C 465 404.86  462.36 407.5  459 407.5  C 455.64 407.5  453 404.86  453 401.5  C 453 398.14  455.64 395.5  459 395.5  Z " fill-rule="nonzero" fill="#ffffff" stroke="none" />
  <path d="M 459 396  C 462.08 396  464.5 398.42  464.5 401.5  C 464.5 404.58  462.08 407  459 407  C 455.92 407  453.5 404.58  453.5 401.5  C 453.5 398.42  455.92 396  459 396  Z " stroke-width="1" stroke="#2590ff" fill="none" />
  <path d="M 459 404.5  C 457.32 404.5  456 403.18  456 401.5  C 456 399.82  457.32 398.5  459 398.5  C 460.68 398.5  462 399.82  462 401.5  C 462 403.18  460.68 404.5  459 404.5  " fill-rule="nonzero" fill="#2590ff" stroke="none" />
</svg>