<?xml version="1.0" encoding="utf-8"?>
<svg version="1.1" xmlns:xlink="http://www.w3.org/1999/xlink" width="12px" height="12px" viewBox="563 395.5  12 12" xmlns="http://www.w3.org/2000/svg">
  <path d="M 569 395.5  C 572.36 395.5  575 398.14  575 401.5  C 575 404.86  572.36 407.5  569 407.5  C 565.64 407.5  563 404.86  563 401.5  C 563 398.14  565.64 395.5  569 395.5  Z " fill-rule="nonzero" fill="#ffffff" stroke="none" />
  <path d="M 569 396  C 572.08 396  574.5 398.42  574.5 401.5  C 574.5 404.58  572.08 407  569 407  C 565.92 407  563.5 404.58  563.5 401.5  C 563.5 398.42  565.92 396  569 396  Z " stroke-width="1" stroke="#2590ff" fill="none" />
  <path d="M 569 404.5  C 567.32 404.5  566 403.18  566 401.5  C 566 399.82  567.32 398.5  569 398.5  C 570.68 398.5  572 399.82  572 401.5  C 572 403.18  570.68 404.5  569 404.5  " fill-rule="nonzero" fill="#2590ff" stroke="none" />
</svg>