<?xml version="1.0" encoding="utf-8"?>
<svg version="1.1" xmlns:xlink="http://www.w3.org/1999/xlink" width="12px" height="12px" viewBox="681 395.5  12 12" xmlns="http://www.w3.org/2000/svg">
  <path d="M 687 395.5  C 690.36 395.5  693 398.14  693 401.5  C 693 404.86  690.36 407.5  687 407.5  C 683.64 407.5  681 404.86  681 401.5  C 681 398.14  683.64 395.5  687 395.5  Z " fill-rule="nonzero" fill="#f0f0f0" stroke="none" />
  <path d="M 687 396  C 690.08 396  692.5 398.42  692.5 401.5  C 692.5 404.58  690.08 407  687 407  C 683.92 407  681.5 404.58  681.5 401.5  C 681.5 398.42  683.92 396  687 396  Z " stroke-width="1" stroke="#c0c4cc" fill="none" />
  <path d="M 687 404.5  C 685.32 404.5  684 403.18  684 401.5  C 684 399.82  685.32 398.5  687 398.5  C 688.68 398.5  690 399.82  690 401.5  C 690 403.18  688.68 404.5  687 404.5  " fill-rule="nonzero" fill="#c0c4cc" stroke="none" />
</svg>