<?xml version="1.0" encoding="utf-8"?>
<svg version="1.1" xmlns:xlink="http://www.w3.org/1999/xlink" width="14px" height="14px" xmlns="http://www.w3.org/2000/svg">
  <g transform="matrix(1 0 0 1 -1 -3 )">
    <path d="M 10.0625 12.6875  C 10.0625 13.412109375  10.650390625 14  11.375 14  C 11.375 14  12.6875 14  12.6875 14  C 13.412109375 14  14 13.412109375  14 12.6875  C 14 12.6875  14 10.896484375  14 10.896484375  C 14 10.171875  13.412109375 9.583984375  12.6875 9.583984375  C 12.5671875 9.583984375  12.46875 9.485546875  12.46875 9.365234375  C 12.46875 9.365234375  12.46875 8.3125  12.46875 8.3125  C 12.46875 7.587890625  11.880859375 7  11.15625 7  C 11.15625 7  7.65625 7  7.65625 7  C 7.5359375 7  7.4375 6.9015625  7.4375 6.78125  C 7.4375 6.78125  7.4375 5.46875  7.4375 5.46875  C 7.4375 5.3484375  7.5359375 5.25  7.65625 5.25  C 7.65625 5.25  8.3125 5.25  8.3125 5.25  C 9.037109375 5.25  9.625 4.662109375  9.625 3.9375  C 9.625 3.9375  9.625 1.3125  9.625 1.3125  C 9.625 0.587890625  9.037109375 0  8.3125 0  C 8.3125 0  5.6875 0  5.6875 0  C 4.962890625 0  4.375 0.587890625  4.375 1.3125  C 4.375 1.3125  4.375 3.9375  4.375 3.9375  C 4.375 4.662109375  4.962890625 5.25  5.6875 5.25  C 5.6875 5.25  6.34375 5.25  6.34375 5.25  C 6.4640625 5.25  6.5625 5.3484375  6.5625 5.46875  C 6.5625 5.46875  6.5625 6.78125  6.5625 6.78125  C 6.5625 6.9015625  6.4640625 7  6.34375 7  C 6.34375 7  2.84375 7  2.84375 7  C 2.119140625 7  1.53125 7.587890625  1.53125 8.3125  C 1.53125 8.3125  1.53125 9.365234375  1.53125 9.365234375  C 1.53125 9.485546875  1.4328125 9.583984375  1.3125 9.583984375  C 0.587890625 9.583984375  0 10.171875  0 10.896484375  C 0 10.896484375  0 12.6875  0 12.6875  C 0 13.412109375  0.587890625 14  1.3125 14  C 1.3125 14  2.625 14  2.625 14  C 3.349609375 14  3.9375 13.412109375  3.9375 12.6875  C 3.9375 12.6875  3.9375 10.896484375  3.9375 10.896484375  C 3.9375 10.171875  3.349609375 9.583984375  2.625 9.583984375  C 2.5046875 9.583984375  2.40625 9.485546875  2.40625 9.365234375  C 2.40625 9.365234375  2.40625 8.3125  2.40625 8.3125  C 2.40625 8.0705078125  2.6017578125 7.875  2.84375 7.875  C 2.84375 7.875  6.34375 7.875  6.34375 7.875  C 6.4640625 7.875  6.5625 7.9734375  6.5625 8.09375  C 6.5625 8.09375  6.5625 9.37890625  6.5625 9.37890625  C 6.5625 9.4923828125  6.4708984375 9.583984375  6.357421875 9.583984375  C 6.357421875 9.583984375  6.34375 9.583984375  6.34375 9.583984375  C 5.619140625 9.583984375  5.03125 10.171875  5.03125 10.896484375  C 5.03125 10.896484375  5.03125 12.6875  5.03125 12.6875  C 5.03125 13.412109375  5.619140625 14  6.34375 14  C 6.34375 14  7.65625 14  7.65625 14  C 8.380859375 14  8.96875 13.412109375  8.96875 12.6875  C 8.96875 12.6875  8.96875 10.896484375  8.96875 10.896484375  C 8.96875 10.171875  8.380859375 9.583984375  7.65625 9.583984375  C 7.65625 9.583984375  7.642578125 9.583984375  7.642578125 9.583984375  C 7.5291015625 9.583984375  7.4375 9.4923828125  7.4375 9.37890625  C 7.4375 9.37890625  7.4375 8.09375  7.4375 8.09375  C 7.4375 7.9734375  7.5359375 7.875  7.65625 7.875  C 7.65625 7.875  11.15625 7.875  11.15625 7.875  C 11.3982421875 7.875  11.59375 8.0705078125  11.59375 8.3125  C 11.59375 8.3125  11.59375 9.365234375  11.59375 9.365234375  C 11.59375 9.485546875  11.4953125 9.583984375  11.375 9.583984375  C 10.650390625 9.583984375  10.0625 10.171875  10.0625 10.896484375  C 10.0625 10.896484375  10.0625 12.6875  10.0625 12.6875  Z M 2.625 13.125  C 2.625 13.125  1.3125 13.125  1.3125 13.125  C 1.071875 13.125  0.875 12.928125  0.875 12.6875  C 0.875 12.6875  0.875 10.896484375  0.875 10.896484375  C 0.875 10.655859375  1.071875 10.458984375  1.3125 10.458984375  C 1.3125 10.458984375  2.625 10.458984375  2.625 10.458984375  C 2.865625 10.458984375  3.0625 10.655859375  3.0625 10.896484375  C 3.0625 10.896484375  3.0625 12.6875  3.0625 12.6875  C 3.0625 12.928125  2.865625 13.125  2.625 13.125  Z M 6.34375 13.125  C 6.103125 13.125  5.90625 12.928125  5.90625 12.6875  C 5.90625 12.6875  5.90625 10.896484375  5.90625 10.896484375  C 5.90625 10.655859375  6.103125 10.458984375  6.34375 10.458984375  C 6.34375 10.458984375  7.65625 10.458984375  7.65625 10.458984375  C 7.896875 10.458984375  8.09375 10.655859375  8.09375 10.896484375  C 8.09375 10.896484375  8.09375 12.6875  8.09375 12.6875  C 8.09375 12.928125  7.896875 13.125  7.65625 13.125  C 7.65625 13.125  6.34375 13.125  6.34375 13.125  Z M 8.75 1.3125  C 8.75 1.3125  8.75 3.9375  8.75 3.9375  C 8.75 4.178125  8.553125 4.375  8.3125 4.375  C 8.3125 4.375  5.6875 4.375  5.6875 4.375  C 5.446875 4.375  5.25 4.178125  5.25 3.9375  C 5.25 3.9375  5.25 1.3125  5.25 1.3125  C 5.25 1.071875  5.446875 0.875  5.6875 0.875  C 5.6875 0.875  8.3125 0.875  8.3125 0.875  C 8.553125 0.875  8.75 1.071875  8.75 1.3125  Z M 12.6875 10.458984375  C 12.928125 10.458984375  13.125 10.655859375  13.125 10.896484375  C 13.125 10.896484375  13.125 12.6875  13.125 12.6875  C 13.125 12.928125  12.928125 13.125  12.6875 13.125  C 12.6875 13.125  11.375 13.125  11.375 13.125  C 11.134375 13.125  10.9375 12.928125  10.9375 12.6875  C 10.9375 12.6875  10.9375 10.896484375  10.9375 10.896484375  C 10.9375 10.655859375  11.134375 10.458984375  11.375 10.458984375  C 11.375 10.458984375  12.6875 10.458984375  12.6875 10.458984375  Z " fill-rule="nonzero" fill="#6b84a5" stroke="none" transform="matrix(1 0 0 1 1 3 )" />
  </g>
</svg>