<?xml version="1.0" encoding="utf-8"?>
<svg version="1.1" xmlns:xlink="http://www.w3.org/1999/xlink" width="14px" height="15px" xmlns="http://www.w3.org/2000/svg">
  <g transform="matrix(1 0 0 1 -50 -152 )">
    <path d="M 13.8534234301356 13.9198066175949  C 14.0191088550848 13.7541211926457  14.0191088550849 13.4854920425442  13.8534234301358 13.319806617595  C 13.8534234301358 13.319806617595  10.6514234301358 10.1318066175949  10.6514234301358 10.1318066175949  C 11.6386492136006 9.02640813872682  12.1837339066368 7.59587234733596  12.1824234301357 6.11380661759489  C 12.1928547060672 3.2510029610026  10.2082205023971 0.767296023454946  7.41366139475749 0.145851752724013  C 4.61910228711796 -0.475592518006863  1.76891997403861 0.932964849021516  0.565124176471434 3.53039228120807  C -0.638671621095744 6.12781971339462  0.128845204980329 9.21302489225877  2.40934569343248 10.9436522669079  C 4.68984618188464 12.6742796415571  7.8677822889322 12.5832017983498  10.0454234301358 10.7248066175949  C 10.0454234301358 10.7248066175949  13.2534234301357 13.9198066175949  13.2534234301357 13.9198066175949  C 13.4191088550849 14.0854920425441  13.6877380051864 14.0854920425441  13.8534234301356 13.9198066175949  Z M 6.09442343013589 11.3388066175948  C 3.20372953853193 11.343232576962  0.855696518104697 9.00549205881612  0.847423430135838 6.11480661759487  C 0.839732392642919 3.9924989841154  2.11626049105955 2.07488739639419  4.07481393953564 1.2573806792075  C 6.03336738801173 0.439873962020812  8.2915844269344 0.883740797616468  9.79501405180464 2.3817221747521  C 11.2984436766749 3.87970355188782  11.7505059214108 6.13629427452821  10.9401150135457 8.09780272968015  C 10.1297241056806 10.0593111848321  8.21674499931159 11.3387926818527  6.09442343013589 11.3388066175948  Z " fill-rule="nonzero" fill="#6b83a6" stroke="none" transform="matrix(1 0 0 1 50 152 )" />
  </g>
</svg>