<?xml version="1.0" encoding="utf-8"?>
<svg version="1.1" xmlns:xlink="http://www.w3.org/1999/xlink" width="16px" height="16px" xmlns="http://www.w3.org/2000/svg">
  <g transform="matrix(1 0 0 1 -87 -334 )">
    <path d="M 13.5683129707695 2.305708144135  C 12.0348042827147 0.805744958582636  9.96817081634197 -0.0234807001020272  7.82318525019605 0.000506280408444582  C 3.42897657100248 0.0976551070282312  -0.0638984351378345 3.72165571973846  0.000886823646368274 8.11646068495634  C 0.0656720824296616 12.5112656501742  3.66385131368806 16.0307347108619  8.05901420857564 15.9983165335948  C 12.4541771034641 15.9658983563274  16.0000493370053 12.393735656671  15.9999999994852 7.99845320731401  C 15.9765464756973 5.8534617418934  15.1018216588252 3.80567132968736  13.5683129707695 2.305708144135  Z M 11.9575872078049 13.404349858612  C 12.1875601226292 13.4850959042637  12.3909583895171 13.5658419499155  12.5708483140018 13.6476100974112  C 11.2358130022972 14.7531411489629  9.5565395422272 15.3576072900453  7.82318525019605 15.3565643800675  C 6.09573084058444 15.3597241636842  4.4209386395156 14.7620744763794  3.0857432048268 13.6660079305977  C 3.26972153668551 13.584239783102  3.47720821094935 13.5034937374503  3.69900431102373 13.4227476917983  C 5.15958784561506 12.8994315478271  5.78204786840475 12.4435741255395  6.0028218666354 11.713793409142  C 3.62030246906118 11.2313613389185  3.37602012842633 9.85561225730635  3.37602012842633 9.85561225730635  C 4.22530899244569 9.17997358887465  4.68747773910689 8.12948581727392  4.61174125741296 7.04687639083522  C 4.61174125741296 5.0272031476959  4.99809575431681 3.15573467189211  7.81909684282109 3.15573467189211  C 10.6400979313263 3.15573467189211  11.0448502614156 5.00471690713448  11.0448502614156 7.02950065949244  C 10.9677910196115 8.11211576151459  11.4297741154848 9.16305081739392  12.2795492885585 9.83823652596357  C 12.2795492885585 9.83823652596357  12.0362890497674 11.1904772651706  9.65274755034946 11.6953955759554  C 9.86943314120514 12.4261983941967  10.4918931639948 12.886144223859  11.9575872078049 13.404349858612  Z " fill-rule="nonzero" fill="#e8a2a2" stroke="none" transform="matrix(1 0 0 1 87 334 )" />
  </g>
</svg>