<?xml version="1.0" encoding="utf-8"?>
<svg version="1.1" xmlns:xlink="http://www.w3.org/1999/xlink" width="16px" height="16px" xmlns="http://www.w3.org/2000/svg">
  <g transform="matrix(1 0 0 1 -445 -231 )">
    <path d="M 13.5683129707695 2.30570814413505  C 12.0348042827147 0.805744958582693  9.96817081634197 -0.023480700102084  7.82318525019605 0.000506280408444582  C 3.42897657100248 0.0976551070285154  -0.0638984351378345 3.72165571973869  0.000886823646368274 8.11646068495656  C 0.0656720824296616 12.5112656501744  3.66385131368806 16.030734710862  8.05901420857564 15.9983165335947  C 12.4541771034641 15.9658983563274  16.0000493370053 12.3937356566709  15.9999999994852 7.99845320731396  C 15.9765464756973 5.85346174189351  15.1018216588252 3.80567132968736  13.5683129707695 2.30570814413505  Z M 12.5708483140018 13.6476100974107  C 11.2358130022972 14.7531411489622  9.5565395422272 15.3576072900447  7.82318525019605 15.356564380067  C 6.09573084058444 15.3597241636835  4.4209386395156 14.7620744763792  3.0857432048268 13.6660079305972  C 3.26972153668551 13.5842397831017  3.47720821094935 13.5034937374498  3.69900431102373 13.422747691798  C 5.15958784561506 12.8994315478267  5.78204786840475 12.4435741255391  6.0028218666354 11.7137934091416  C 3.62030246906118 11.2313613389181  3.37602012842633 9.85561225730595  3.37602012842633 9.85561225730595  C 4.22502022350049 9.17975106794444  4.68711858431579 8.12942328005295  4.61174125741296 7.04687639083483  C 4.61174125741296 5.0272031476955  4.99809575431681 3.15675677373548  7.81909684282109 3.15675677373548  C 10.6400979313263 3.15675677373548  11.0448502614156 5.0047169071342  11.0448502614156 7.02847855764838  C 10.9676257360407 8.11141291170952  11.4296081738682 9.16272890643654  12.2795492885585 9.83823652596317  C 12.2795492885585 9.83823652596317  12.0352669479237 11.1904772651703  9.65274755034946 11.6953955759552  C 9.86943314120514 12.4261983941964  10.4918931639948 12.8861442238587  11.9575872078049 13.4043498586116  C 12.1875601226292 13.4850959042634  12.3909583895171 13.5658419499152  12.5708483140018 13.6476100974107  Z " fill-rule="nonzero" fill="#e8a2a2" stroke="none" transform="matrix(1 0 0 1 445 231 )" />
  </g>
</svg>