<?xml version="1.0" encoding="utf-8"?>
<svg version="1.1" xmlns:xlink="http://www.w3.org/1999/xlink" width="12px" height="12px" xmlns="http://www.w3.org/2000/svg">
  <g transform="matrix(1 0 0 1 -1 -3 )">
    <path d="M 11.5714296954032 9.00000190734863  C 11.5714296954032 9.00000190734863  9.85713894026153 9.00000190734863  9.85713894026153 9.00000190734863  C 9.85713894026153 9.00000190734863  9.85713894026153 7.28571271896362  9.85713894026153 7.28571271896362  C 9.85713894026153 7.07143045961857  9.68571181382157 6.85714292526245  9.42856863566474 6.85714292526245  C 9.17142545750792 6.85714292526245  8.99999833106796 7.02856987714767  8.99999833106796 7.28571271896362  C 8.99999833106796 7.28571271896362  8.99999833106796 9.00000190734863  8.99999833106796 9.00000190734863  C 8.99999833106796 9.00000190734863  7.28570709908855 9.00000190734863  7.28570709908855 9.00000190734863  C 7.07142455449647 9.00000190734863  6.85713679449176 9.17142885923386  6.85713679449176 9.4285717010498  C 6.85713679449176 9.68571454286575  7.02856392093172 9.85714149475098  7.28570709908855 9.85714149475098  C 7.28570709908855 9.85714149475098  8.99999833106796 9.85714149475098  8.99999833106796 9.85714149475098  C 8.99999833106796 9.85714149475098  8.99999833106796 11.5714302062988  8.99999833106796 11.5714302062988  C 8.99999833106796 11.7857124656439  9.17142545750792 12  9.42856863566474 12  C 9.68571181382157 12  9.85713894026153 11.8285730481148  9.85713894026153 11.5714302062988  C 9.85713894026153 11.5714302062988  9.85713894026153 9.85714149475098  9.85713894026153 9.85714149475098  C 9.85713894026153 9.85714149475098  11.5714296954032 9.85714149475098  11.5714296954032 9.85714149475098  C 11.7857122399953 9.85714149475098  12 9.68571454286575  12 9.4285717010498  C 12 9.17142885923386  11.82857287356 9.00000190734863  11.5714296954032 9.00000190734863  Z M 9.42858294079654 3.42856788635254  C 9.42858294079654 1.54285180568695  7.88572715011495 0  6.00001049042999 0  C 4.11429383074502 0  2.57142921856549 1.54285180568695  2.57142921856549 3.42856788635254  C 2.57142921856549 4.62856793403625  3.17143585853083 5.70000016689301  4.11429418837331 6.30000019073486  C 1.71428622518328 7.07143223285675  0 9.34285187721252  0 12  C 0 12  0.857142993382208 12  0.857142993382208 12  C 0.857142993382208 9.17143177986145  3.17143579892611 6.85714817047119  6.00001049042999 6.85714817047119  C 7.88572715011495 6.85714817047119  9.42858294079654 5.31428396701813  9.42858294079654 3.42856788635254  Z M 6.00004863744812 5.99999952316284  C 4.58576141090561 5.99999952316284  3.42861727311286 4.84285664558411  3.42861727311286 3.42857098579407  C 3.42861727311286 2.01428532600403  4.58576141090561 0.857142448425293  6.00004863744812 0.857142448425293  C 7.41433586399062 0.857142448425293  8.5714804786211 2.01428532600403  8.5714804786211 3.42857098579407  C 8.5714804786211 4.84285664558411  7.41433586399062 5.99999952316284  6.00004863744812 5.99999952316284  Z " fill-rule="nonzero" fill="#6b84a5" stroke="none" transform="matrix(1 0 0 1 1 3 )" />
  </g>
</svg>