<?xml version="1.0" encoding="utf-8"?>
<svg version="1.1" xmlns:xlink="http://www.w3.org/1999/xlink" width="16px" height="16px" xmlns="http://www.w3.org/2000/svg">
  <g transform="matrix(1 0 0 1 -112 -369 )">
    <path d="M 15.9999999994852 7.99845164459879  C 15.95059790764 3.53191843213958  12.2897186648463 -0.0488790773332536  7.82318525019605 0.000504717693388553  C 3.42897657100248 0.0976535443132882  -0.0638984351378345 3.7216541570235  0.000886823646368274 8.11645912224122  C 0.0656720824296616 12.5112640874591  3.66385131368806 16.0307331481467  8.05901420857564 15.9983149708795  C 12.4541771034641 15.9658967936123  16.0000493370053 12.3937340939557  15.9999999994852 7.99845164459879  Z M 12.0812615308884 13.8786035513706  C 10.8316882168572 14.7482894457797  9.34561309571145 15.2141593709546  7.82318525019605 15.2134685592348  C 6.29564004044486 15.2116751487416  4.80570049282687 14.7385117243681  3.55591005291099 13.8602057181839  C 5.46315209318231 13.1702869736904  5.92412002467375 12.5744015988169  5.92412002467375 11.3172163310733  C 5.92412002467375 10.5506399483028  5.46315209318231 10.8061654092262  5.2147813451734 9.40588588336555  C 5.10439434605763 8.82430993430358  4.57392348919729 9.40588588336555  4.46762489745648 8.05262304231468  C 4.42852447157779 7.795482279478  4.54166356086202 7.5389274432053  4.75790182105692 7.39438945497574  C 4.75790182105692 7.39438945497574  4.68942099753086 7.01621177280897  4.62502858138067 6.58284059108275  C 4.4267408237105 5.4064013689909  4.40323248130629 3.98159139888148  6.06721428278649 3.32335781154254  C 7.73119608426669 2.6651242242036  8.86470702888656 3.1557331091768  9.08139261974315 3.48996041206474  C 9.60079755232834 3.47734213816748  10.1520369673971 3.68180506977146  10.5143794045553 4.05416062978392  C 11.229850695119 4.86570949367691  10.9753473360468 6.86698490362978  10.8782476608987 7.41278728816241  C 11.0944859210936 7.55732527639197  11.2076250103778 7.81388011266466  11.1685245844991 8.07102087550135  C 11.0663144001333 9.39975327230347  10.5327772377417 8.82430993430381  10.4223902386259 9.42326161470844  C 10.1597100648056 10.8204748350381  9.7130515591256 10.5731261888642  9.7130515591256 11.3356141642599  C 9.7130515591256 12.5887110246288  10.1729973887733 13.1835742976587  12.0812615308884 13.8786035513706  Z " fill-rule="nonzero" fill="#a2cbe9" stroke="none" transform="matrix(1 0 0 1 112 369 )" />
  </g>
</svg>