<?xml version="1.0" encoding="utf-8"?>
<svg version="1.1" xmlns:xlink="http://www.w3.org/1999/xlink" width="16px" height="16px" xmlns="http://www.w3.org/2000/svg">
  <g transform="matrix(1 0 0 1 -445 -267 )">
    <path d="M 15.9999999994852 7.99845164459884  C 15.95059790764 3.53191843213949  12.2897186648463 -0.0488790773333676  7.82318525019605 0.00050471769327487  C 3.42897657100248 0.0976535443132889  -0.0638984351378345 3.72165415702352  0.000886823646368274 8.11645912224139  C 0.0656720824296616 12.5112640874593  3.66385131368806 16.0307331481467  8.05901420857564 15.9983149708796  C 12.4541771034641 15.9658967936123  16.0000493370053 12.3937340939558  15.9999999994852 7.99845164459884  Z M 12.0812615308884 13.8775814495273  C 10.8320121875939 14.7480473456353  9.3457929062737 15.214319213314  7.82318525019605 15.2134685592353  C 6.29532499197858 15.2106596757583  4.80525981416487 14.7372126947264  3.55488795106725 13.8591836163407  C 5.46315209318231 13.1692648718472  5.92412002467375 12.5744015988173  5.92412002467375 11.3172163310735  C 5.92412002467375 10.5506399483031  5.46315209318231 10.8061654092267  5.21478134517249 9.40486378152218  C 5.10439434605763 8.82430993430398  4.57392348919729 9.40486378152218  4.46762489745648 8.05262304231496  C 4.42852447157779 7.79548227947839  4.54166356086202 7.53892744320547  4.75790182105692 7.39438945497614  C 4.75790182105692 7.39438945497614  4.68942099753086 7.01621177280936  4.62502858138067 6.58284059108314  C 4.4267408237105 5.40640136899128  4.40323248130629 3.98159139888185  6.06721428278649 3.32335781154279  C 7.73119608426669 2.66512422420396  8.86470702888656 3.15675521102071  9.08139261974315 3.48996041206487  C 9.60079755232834 3.47734213816761  10.1520369673971 3.6818050697716  10.5143794045562 4.05416062978406  C 11.229850695119 4.86570949367706  10.9753473360468 6.86698490363005  10.8782476608987 7.41278728816269  C 11.0944859210936 7.55732527639202  11.2076250103778 7.81388011266495  11.1685245844991 8.07102087550152  C 11.0663144001333 9.39975327230377  10.5327772377417 8.82430993430398  10.4223902386259 9.42326161470874  C 10.1597100648056 10.8214969368821  9.7130515591256 10.5731261888645  9.7130515591256 11.3345920624165  C 9.7130515591256 12.588711024629  10.1729973887733 13.1835742976589  12.0812615308884 13.8775814495273  Z " fill-rule="nonzero" fill="#a2cbeb" stroke="none" transform="matrix(1 0 0 1 445 267 )" />
  </g>
</svg>