<?xml version="1.0" encoding="utf-8"?>
<svg version="1.1" xmlns:xlink="http://www.w3.org/1999/xlink" width="16px" height="16px" xmlns="http://www.w3.org/2000/svg">
  <g transform="matrix(1 0 0 1 -445 -194 )">
    <path d="M 15.9999999994852 7.99845164459896  C 15.95059790764 3.53191843213961  12.2897186648463 -0.0488790773333108  7.82318525019605 0.0005047176934454  C 3.42897657100248 0.0976535443134594  -0.0638984351378345 3.72165415702369  0.000886823646368274 8.11645912224151  C 0.0656720824296616 12.5112640874594  3.66385131368806 16.030733148147  8.05901420857564 15.9983149708797  C 12.4541771034641 15.9658967936124  16.0000493370053 12.3937340939559  15.9999999994852 7.99845164459896  Z M 12.0812615308884 13.8775814495269  C 10.8320121875948 14.748047345635  9.3457929062737 15.2143192133135  7.82318525019605 15.2134685592349  C 6.29542468121535 15.2110251438123  4.80534987581542 14.7379319290356  3.55488795106725 13.860205718184  C 5.46315209318231 13.1702869736906  5.92412002467375 12.574401598817  5.92412002467375 11.3172163310733  C 5.92412002467375 10.5506399483028  5.46315209318231 10.8061654092263  5.21478134517249 9.4048637815219  C 5.10439434605763 8.82328783245998  4.57392348919729 9.4048637815219  4.46762489745648 8.05262304231474  C 4.42852447157779 7.79548227947811  4.54166356086202 7.5389274432053  4.75790182105692 7.39438945497579  C 4.75790182105692 7.39438945497579  4.68942099753086 7.01621177280902  4.62502858138067 6.5828405910828  C 4.4267408237105 5.406401368991  4.40323248130629 3.98159139888156  6.06721428278649 3.32335781154262  C 7.73119608426669 2.66512422420368  8.86470702888656 3.15675521102048  9.08139261974315 3.48996041206476  C 9.60088931598181 3.47684155379153  10.1523215656133 3.68138315847568  10.5143794045553 4.05416062978384  C 11.2298506951181 4.86570949367689  10.9753473360468 6.86698490362971  10.8782476608987 7.41278728816235  C 11.0948894535282 7.55698611188689  11.2081475779173 7.81381087283285  11.1685245844991 8.07102087550129  C 11.0663144001324 9.39975327230349  10.5327772377417 8.82328783246004  10.4223902386259 9.42326161470839  C 10.1597100648056 10.8214969368818  9.7130515591256 10.5731261888641  9.7130515591256 11.3345920624162  C 9.7130515591256 12.5887110246287  10.1729973887733 13.1835742976587  12.0812615308884 13.8775814495269  Z " fill-rule="nonzero" fill="#a2cbeb" stroke="none" transform="matrix(1 0 0 1 445 194 )" />
  </g>
</svg>