<?xml version="1.0" encoding="utf-8"?>
<svg version="1.1" xmlns:xlink="http://www.w3.org/1999/xlink" width="16px" height="16px" xmlns="http://www.w3.org/2000/svg">
  <g transform="matrix(1 0 0 1 -445 -267 )">
    <path d="M 15.9999999994852 7.99845164459887  C 15.95059790764 3.53191843213965  12.2897186648463 -0.0488790773332537  7.82318525019605 0.000504717693331711  C 3.42897657100248 0.0976535443133454  -0.0638984351378345 3.72165415702362  0.000886823646368274 8.11645912224142  C 0.0656720824296616 12.5112640874593  3.66385131368806 16.0307331481469  8.05901420857564 15.9983149708796  C 12.4541771034641 15.9658967936123  16.0000493370053 12.3937340939558  15.9999999994852 7.99845164459887  Z M 12.0812615308884 13.8775814495267  C 10.8320121875939 14.7480473456349  9.3457929062737 15.2143192133134  7.82318525019605 15.2134685592347  C 6.29532499197858 15.2106596757577  4.80525981416487 14.7372126947259  3.55488795106725 13.8591836163401  C 5.46315209318231 13.1692648718466  5.92412002467375 12.5744015988167  5.92412002467375 11.3172163310731  C 5.92412002467375 10.5506399483026  5.46315209318231 10.8061654092261  5.21478134517249 9.40486378152169  C 5.10439434605763 8.8243099343035  4.57392348919729 9.40486378152169  4.46762489745648 8.05262304231454  C 4.42852447157779 7.79548227947785  4.54166356086202 7.5389274432051  4.75790182105692 7.3943894549756  C 4.75790182105692 7.3943894549756  4.68942099753086 7.01621177280882  4.62502858138067 6.58284059108261  C 4.4267408237105 5.40640136899081  4.40323248130629 3.98159139888138  6.06721428278649 3.32335781154244  C 7.73119608426669 2.6651242242035  8.86470702888656 3.1567552110203  9.08139261974315 3.48996041206458  C 9.60079755232834 3.47734213816726  10.1520369673971 3.68180506977113  10.5143794045562 4.05416062978371  C 11.229850695119 4.86570949367676  10.9753473360468 6.86698490362958  10.8782476608987 7.41278728816221  C 11.0944859210936 7.55732527639165  11.2076250103778 7.81388011266441  11.1685245844991 8.07102087550115  C 11.0663144001333 9.39975327230334  10.5327772377417 8.82430993430361  10.4223902386259 9.42326161470825  C 10.1597100648056 10.8214969368816  9.7130515591256 10.573126188864  9.7130515591256 11.334592062416  C 9.7130515591256 12.5887110246285  10.1729973887733 13.1835742976585  12.0812615308884 13.8775814495267  Z " fill-rule="nonzero" fill="#a2cbeb" stroke="none" transform="matrix(1 0 0 1 445 267 )" />
  </g>
</svg>