<?xml version="1.0" encoding="utf-8"?>
<svg version="1.1" xmlns:xlink="http://www.w3.org/1999/xlink" width="16px" height="16px" xmlns="http://www.w3.org/2000/svg">
  <g transform="matrix(1 0 0 1 -112 -406 )">
    <path d="M 15.9999999994852 7.99845164459884  C 15.95059790764 3.53191843213961  12.2897186648463 -0.0488790773332539  7.82318525019605 0.000504717693388557  C 3.42897657100248 0.0976535443132889  -0.0638984351378345 3.72165415702352  0.000886823646368274 8.11645912224139  C 0.0656720824296616 12.5112640874593  3.66385131368806 16.030733148147  8.05901420857564 15.9983149708797  C 12.4541771034641 15.9658967936125  16.0000493370053 12.3937340939558  15.9999999994852 7.99845164459884  Z M 12.0812615308884 13.8775814495269  C 10.8320121875948 14.7480473456352  9.3457929062737 15.2143192133136  7.82318525019605 15.213468559235  C 6.29571199423598 15.2112119238046  4.80590846018276 14.7380916002566  3.55591005291099 13.8602057181841  C 5.46315209318231 13.1702869736907  5.92412002467375 12.574401598817  5.92412002467375 11.3172163310734  C 5.92412002467375 10.5506399483029  5.46315209318231 10.8061654092264  5.2147813451734 9.40588588336561  C 5.10439434605763 8.82430993430376  4.57392348919729 9.40588588336561  4.46762489745648 8.05262304231474  C 4.42852447157779 7.79548227947816  4.54166356086202 7.53892744320535  4.75790182105692 7.39438945497579  C 4.75790182105692 7.39438945497579  4.68942099753086 7.01621177280902  4.62502858138067 6.5828405910828  C 4.4267408237105 5.40640136899106  4.40323248130629 3.98159139888151  6.06721428278649 3.32335781154256  C 7.73119608426669 2.66512422420362  8.86470702888656 3.15675521102048  9.08139261974315 3.48996041206476  C 9.60088931598272 3.47684155379159  10.1523215656124 3.68138315847568  10.5143794045553 4.05416062978384  C 11.229850695119 4.86570949367683  10.9753473360468 6.86698490362971  10.8782476608987 7.41278728816235  C 11.0944859210936 7.55732527639179  11.2076250103778 7.81388011266461  11.1685245844991 8.0710208755014  C 11.0663144001324 9.39975327230354  10.5327772377417 8.82430993430387  10.4223902386259 9.42428371655217  C 10.1597100648056 10.8214969368819  9.7130515591256 10.5731261888643  9.7130515591256 11.3356141642601  C 9.7130515591256 12.5887110246289  10.1729973887733 13.1835742976588  12.0812615308884 13.8775814495269  Z " fill-rule="nonzero" fill="#a2cbe9" stroke="none" transform="matrix(1 0 0 1 112 406 )" />
  </g>
</svg>