<?xml version="1.0" encoding="utf-8"?>
<svg version="1.1" xmlns:xlink="http://www.w3.org/1999/xlink" width="16px" height="16px" xmlns="http://www.w3.org/2000/svg">
  <g transform="matrix(1 0 0 1 -445 -303 )">
    <path d="M 15.9999999994852 7.99845164459884  C 15.95059790764 3.53191843213949  12.2897186648463 -0.0488790773333676  7.82318525019605 0.00050471769327487  C 3.42897657100248 0.0976535443132889  -0.0638984351378345 3.72165415702352  0.000886823646368274 8.11645912224139  C 0.0656720824296616 12.5112640874593  3.66385131368806 16.030733148147  8.05901420857564 15.9983149708796  C 12.4541771034641 15.9658967936123  16.0000493370053 12.3937340939558  15.9999999994852 7.99845164459884  Z M 12.0812615308884 13.877581449527  C 10.8320121875948 14.7480473456353  9.3457929062737 15.214319213314  7.82318525019605 15.2134685592353  C 6.29542468121535 15.2110251438125  4.80534987581542 14.737931929036  3.55488795106725 13.8602057181843  C 5.46315209318231 13.170286973691  5.92412002467375 12.5754237006611  5.92412002467375 11.3172163310737  C 5.92412002467375 10.5506399483031  5.46315209318231 10.8061654092267  5.21478134517249 9.40486378152218  C 5.10439434605763 8.82430993430398  4.57392348919729 9.40486378152218  4.46762489745648 8.05262304231496  C 4.42852447157779 7.79548227947839  4.54166356086202 7.53892744320547  4.75790182105692 7.39438945497614  C 4.75790182105692 7.39438945497614  4.68942099753086 7.01621177280936  4.62502858138067 6.58284059108314  C 4.4267408237105 5.40640136899128  4.40323248130629 3.98159139888185  6.06721428278649 3.32335781154279  C 7.73119608426669 2.66512422420396  8.86470702888656 3.15675521102071  9.08139261974315 3.48996041206487  C 9.60088931598272 3.4768415537917  10.1523215656124 3.68138315847591  10.5143794045553 4.05416062978406  C 11.2298506951181 4.86570949367706  10.9753473360468 6.86698490362983  10.8782476608987 7.41278728816246  C 11.0944859210927 7.55732527639202  11.2076250103778 7.81388011266472  11.1685245844991 8.07102087550152  C 11.0663144001324 9.39975327230377  10.5327772377417 8.82430993430398  10.4223902386259 9.42326161470851  C 10.1597100648056 10.8214969368819  9.7130515591256 10.5731261888643  9.7130515591256 11.3345920624165  C 9.7130515591256 12.588711024629  10.1729973887733 13.1835742976589  12.0812615308884 13.877581449527  Z " fill-rule="nonzero" fill="#a2cbeb" stroke="none" transform="matrix(1 0 0 1 445 303 )" />
  </g>
</svg>