<?xml version="1.0" encoding="utf-8"?>
<svg version="1.1" xmlns:xlink="http://www.w3.org/1999/xlink" width="16px" height="16px" xmlns="http://www.w3.org/2000/svg">
  <g transform="matrix(1 0 0 1 -445 -338 )">
    <path d="M 13.5683129707695 2.305708144135  C 12.0348042827138 0.805744958582522  9.96817081634197 -0.0234807001021409  7.82318525019605 0.000506280408444582  C 3.42897657100248 0.0976551070284586  -0.0638984351378345 3.72165571973869  0.000886823646368274 8.11646068495656  C 0.0656720824296616 12.5112656501744  3.66385131368806 16.0307347108619  8.05901420857564 15.9983165335947  C 12.4541771034641 15.9658983563274  16.0000493370053 12.3937356566709  15.9999999994852 7.99845320731401  C 15.9765464756973 5.85346174189351  15.1018216588252 3.80567132968736  13.5683129707695 2.305708144135  Z M 12.0812615308884 13.8775830122419  C 10.8320121875948 14.74804890835  9.3457929062737 15.2143207760286  7.82318525019605 15.2134701219499  C 6.29542468121535 15.2110267065272  4.80534987581542 14.7379334917507  3.55488795106725 13.8602072808991  C 5.46315209318231 13.1702885364056  5.92412002467375 12.574403161532  5.92412002467375 11.3172178937884  C 5.92412002467375 10.5506415110179  5.46315209318231 10.8061669719414  5.21478134517249 9.40588744608067  C 5.10439434605763 8.82328939517504  4.57392348919729 9.40588744608067  4.46762489745648 8.05262460502979  C 4.42852447157779 7.79548384219299  4.54166356086202 7.53892900592018  4.75790182105692 7.39439101769074  C 4.75790182105692 7.39439101769074  4.68942099753086 7.01621333552396  4.62502858138067 6.58284215379774  C 4.4267408237105 5.40640293170588  4.40323248130629 3.98159296159645  6.06721428278649 3.32335937425751  C 7.73119608426669 2.66512578691857  8.86470702888656 3.15675677373542  9.08139261974315 3.4899619747797  C 9.60079755232834 3.47734370088244  10.1520369673971 3.68180663248643  10.5143794045562 4.05416219249889  C 11.229850695119 4.86571105639189  10.9753473360468 6.86698646634477  10.8782476608996 7.4127888508774  C 11.0944859210936 7.55732683910696  11.2076250103778 7.81388167537966  11.1685245844991 8.07102243821635  C 11.0663144001324 9.39975483501848  10.5327772377417 8.82328939517515  10.4223902386259 9.42326317742345  C 10.1597100648056 10.8204763977532  9.7130515591256 10.5731277515792  9.7130515591256 11.3345936251312  C 9.7130515591256 12.5887125873437  10.1729973887733 13.1835758603737  12.0812615308884 13.8775830122419  Z " fill-rule="nonzero" fill="#a2cbeb" stroke="none" transform="matrix(1 0 0 1 445 338 )" />
  </g>
</svg>