<?xml version="1.0" encoding="utf-8"?>
<svg version="1.1" xmlns:xlink="http://www.w3.org/1999/xlink" width="8px" height="6px" xmlns="http://www.w3.org/2000/svg">
  <g transform="matrix(1 0 0 1 -731 -347 )">
    <path d="M 7.85473621996656 0.118146000722144  C 8.03624821191608 0.286757993319882  8.0494558897226 0.573605968531802  7.88421589259043 0.758843975404759  C 7.88421589259043 0.758843975404759  3.34126390243734 5.85176420300029  3.34126390243734 5.85176420300029  C 3.16886390102838 6.04501220763872  2.87252002767737 6.05001017243621  2.69396801955997 5.86266617442868  C 2.69396801955997 5.86266617442868  0.125840004088936 3.16790392165596  0.125840004088936 3.16790392165596  C -0.0453119985834024 2.98832992797729  -0.0413840020893788 2.70118192073525  0.134584003234163 2.52655791462507  C 0.310552008557706 2.35190991095941  0.591927987614604 2.35591201296884  0.763063992655179 2.5354860066475  C 0.763063992655179 2.5354860066475  3.00188808746624 4.88469604956128  3.00188808746624 4.88469604956128  L 7.22687995472524 0.148242002030816  C 7.3921199518574 -0.0369960048421416  7.67321621085525 -0.0504600014276936  7.85473621996656 0.118146000722144  Z " fill-rule="nonzero" fill="#c0c4cc" stroke="none" transform="matrix(1 0 0 1 731 347 )" />
  </g>
</svg>