<?xml version="1.0" encoding="utf-8"?>
<svg version="1.1" xmlns:xlink="http://www.w3.org/1999/xlink" width="1648px" height="1816px" xmlns="http://www.w3.org/2000/svg">
  <defs>
    <filter x="266px" y="63px" width="1648px" height="1816px" filterUnits="userSpaceOnUse" id="filter164">
      <feOffset dx="0" dy="2" in="SourceAlpha" result="shadowOffsetInner" />
      <feGaussianBlur stdDeviation="7" in="shadowOffsetInner" result="shadowGaussian" />
      <feComposite in2="shadowGaussian" operator="atop" in="SourceAlpha" result="shadowComposite" />
      <feColorMatrix type="matrix" values="0 0 0 0 0  0 0 0 0 0  0 0 0 0 0  0 0 0 0.0274509803921569 0  " in="shadowComposite" />
    </filter>
    <g id="widget165">
      <path d="M 8.24418067932129 0  C 8.24418067932129 0  1611.755859375 0  1611.755859375 0  C 1616.30967950821 0  1620 6.74076064930123  1620 15.056748574829  C 1620 15.056748574829  1620 1772.94323086031  1620 1772.94323086031  C 1620 1781.25921878584  1616.30967950821 1788  1611.755859375 1788  C 1611.755859375 1788  8.24418067932129 1788  8.24418067932129 1788  C 3.69036054611206 1788  0 1781.25921878584  0 1772.94323086031  C 0 1772.94323086031  0 15.056748574829  0 15.056748574829  C 0 6.74076064930123  3.69036054611206 0  8.24418067932129 0  Z " fill-rule="nonzero" fill="#ffffff" stroke="none" transform="matrix(1 0 0 1 280 75 )" />
    </g>
  </defs>
  <g transform="matrix(1 0 0 1 -266 -63 )">
    <use xlink:href="#widget165" filter="url(#filter164)" />
    <use xlink:href="#widget165" />
  </g>
</svg>