<?xml version="1.0" encoding="utf-8"?>
<svg version="1.1" xmlns:xlink="http://www.w3.org/1999/xlink" width="9px" height="10px" xmlns="http://www.w3.org/2000/svg">
  <g transform="matrix(1 0 0 1 -7 -7 )">
    <path d="M 8.93442857142857 5.03125  C 8.93442857142857 7.2025  7.11771428571429 8.96875  4.88442857142857 8.96875  C 2.65114285714286 8.96875  0.834428571428572 7.2025  0.834428571428572 5.03125  C 0.834428571428572 2.86  2.65114285714286 1.09375  4.88442857142857 1.09375  C 7.11771428571429 1.09375  8.93442857142857 2.86  8.93442857142857 5.03125  Z M 4.88442857142857 2.21875  C 3.28733530714286 2.2201283625  1.99298917285714 3.4785204375  1.99157142857143 5.03125  C 1.99157142857143 6.584550875  3.28674768428571 7.84375  4.88442857142857 7.84375  C 6.48210947142857 7.84375  7.77728571428571 6.584550875  7.77728571428571 5.03125  C 7.77728571428571 3.4779491375  6.48210947142857 2.21875  4.88442857142857 2.21875  Z " fill-rule="nonzero" fill="#6b84a5" stroke="none" transform="matrix(1 0 0 1 7 7 )" />
  </g>
</svg>