<?xml version="1.0" encoding="utf-8"?>
<svg version="1.1" xmlns:xlink="http://www.w3.org/1999/xlink" width="5px" height="7px" xmlns="http://www.w3.org/2000/svg">
  <g transform="matrix(1 0 0 1 -1503 -19 )">
    <path d="M 4.28999999999999 6.44039086001012  C 4.16766128 6.44039086001012  4.04957089000001 6.39551753001096  3.958 6.31439086001243  L 0.478000000000009 3.22039086006851  L 3.958 0.127390860124557  C 4.05682829 0.0385490901261794  4.18711956000001 -0.00701375987300501  4.31977556000001 0.000877950126875934  C 4.45243155 0.00876967012670796  4.57640189 0.0694585701256104  4.66399999999999 0.169390860123826  C 4.75207710999999 0.268570300122028  4.79713576 0.398683010119662  4.78925874999999 0.531091810117269  C 4.78138172999999 0.663500610114877  4.72121465999999 0.7873534301126  4.62200000000001 0.87539086011099  L 1.982 3.22139086006847  L 4.62200000000001 5.56839086002597  C 4.77581827 5.70653004002346  4.82875537999999 5.9250913000195  4.75519285000001 6.11830374001597  C 4.68163031 6.31151618001249  4.49674078000001 6.43952876001013  4.28999999999999 6.44039086001012  Z " fill-rule="nonzero" fill="#2590ff" stroke="none" transform="matrix(1 0 0 1 1503 19 )" />
  </g>
</svg>