<?xml version="1.0" encoding="utf-8"?>
<svg version="1.1" xmlns:xlink="http://www.w3.org/1999/xlink" width="20px" height="15px" xmlns="http://www.w3.org/2000/svg">
  <g transform="matrix(1 0 0 1 -2 -5 )">
    <path d="M 10.3517647058824 14.5103571428571  C 6.46588235294118 14.5103571428571  3.18823529411765 11.0860714285714  1.57882352941176 9.04607142857143  C 0.863500670588235 8.13914817857143  0.863500670588235 6.91763755714286  1.57882352941176 6.01071428571429  C 3.18823529411765 3.96964285714286  6.46705882352941 0.546428571428571  10.3517647058824 0.546428571428571  C 14.2364705882353 0.546428571428571  17.5164705882353 3.96964285714286  19.1247058823529 6.01071428571429  C 19.8411188235294 6.91731771428572  19.8411188235294 8.139468  19.1247058823529 9.04607142857143  C 17.5164705882353 11.0860714285714  14.2364705882353 14.5103571428571  10.3517647058824 14.5103571428571  Z M 18.2658823529412 6.57214285714286  C 16.7752941176471 4.68214285714286  13.7647058823529 1.50964285714286  10.3517647058824 1.50964285714286  C 6.94 1.50964285714286  3.92941176470588 4.68214285714286  2.43882352941176 6.57214285714286  C 1.98805718823529 7.14237148928571  1.98805718823529 7.91119992857143  2.43882352941176 8.48142857142857  C 3.92823529411765 10.3725  6.93882352941176 13.5460714285714  10.3517647058824 13.5460714285714  C 13.7647058823529 13.5460714285714  16.7752941176471 10.3735714285714  18.2658823529412 8.4825  C 18.7166487058824 7.91227135714286  18.7166487058824 7.14344291785714  18.2658823529412 6.57321428571429  L 18.2658823529412 6.57214285714286  Z " fill-rule="nonzero" fill="#6b84a5" stroke="none" transform="matrix(1 0 0 1 2 5 )" />
  </g>
</svg>