<?xml version="1.0" encoding="utf-8"?>
<svg version="1.1" xmlns:xlink="http://www.w3.org/1999/xlink" width="14px" height="14px" xmlns="http://www.w3.org/2000/svg">
  <g transform="matrix(1 0 0 1 -2 2 )">
    <path d="M 9 -1  C 12.36 -1  15 1.64  15 5  C 15 8.36  12.36 11  9 11  C 5.64 11  3 8.36  3 5  C 3 1.64  5.64 -1  9 -1  Z " fill-rule="nonzero" fill="#c2cedf" stroke="none" />
    <path d="M 9 -1  C 12.36 -1  15 1.64  15 5  C 15 8.36  12.36 11  9 11  C 5.64 11  3 8.36  3 5  C 3 1.64  5.64 -1  9 -1  Z " stroke-width="2" stroke="#ffffff" fill="none" />
  </g>
</svg>