<?xml version="1.0" encoding="utf-8"?>
<svg version="1.1" xmlns:xlink="http://www.w3.org/1999/xlink" width="12px" height="12px" xmlns="http://www.w3.org/2000/svg">
  <g transform="matrix(1 0 0 1 -419 -254 )">
    <path d="M 8.2304 0.4988  C 8.95573333333334 0.784399999999998  9.60853333333334 1.21733333333333  10.1888 1.7976  C 10.7690666666667 2.37786666666667  11.202 3.03066666666667  11.4876 3.756  C 11.7732 4.48133333333333  11.916 5.2248  11.916 5.9864  C 11.916 6.748  11.7732 7.49146666666667  11.4876 8.2168  C 11.202 8.94213333333333  10.7690666666667 9.59493333333333  10.1888 10.1752  C 9.60853333333334 10.7554666666667  8.95573333333333 11.1906666666667  8.2304 11.4808  C 7.50506666666667 11.7709333333333  6.7616 11.916  6 11.916  C 5.2384 11.916  4.49266666666667 11.7709333333333  3.7628 11.4808  C 3.03293333333333 11.1906666666667  2.37786666666667 10.7554666666667  1.7976 10.1752  C 1.21733333333333 9.59493333333334  0.782133333333333 8.94213333333333  0.492 8.2168  C 0.201866666666668 7.49146666666667  0.0568000000000012 6.748  0.0568000000000003 5.9864  C 0.0567999999999996 5.2248  0.201866666666666 4.48133333333334  0.492 3.756  C 0.782133333333334 3.03066666666666  1.21733333333333 2.37786666666666  1.7976 1.7976  C 2.37786666666667 1.21733333333333  3.03293333333333 0.784400000000002  3.7628 0.4988  C 4.49266666666667 0.213199999999998  5.2384 0.0703999999999979  6 0.0703999999999997  C 6.7616 0.0704000000000015  7.50506666666667 0.213200000000001  8.2304 0.4988  Z M 8.0876 8.992  C 8.35506666666667 8.992  8.584 8.8968  8.7744 8.7064  C 8.9648 8.516  9.04866666666667 8.2984  9.026 8.0536  C 9.00333333333333 7.8088  8.8968 7.5912  8.7064 7.4008  L 7.2784 5.9728  L 8.7064 4.5448  C 8.8968 4.3544  9.00333333333333 4.1368  9.026 3.892  C 9.04866666666667 3.6472  8.9648 3.4296  8.7744 3.2392  C 8.584 3.0488  8.35506666666667 2.9536  8.0876 2.9536  C 7.82013333333333 2.9536  7.5912 3.0488  7.4008 3.2392  L 5.9728 4.6536  L 4.5856 3.2664  C 4.3952 3.08506666666667  4.1776 2.98306666666667  3.9328 2.9604  C 3.688 2.93773333333333  3.4704 3.01706666666667  3.28 3.1984  C 3.0896 3.3888  2.9944 3.62  2.9944 3.892  C 2.9944 4.164  3.0896 4.3952  3.28 4.5856  L 4.6672 5.9728  L 3.28 7.36  C 3.0896 7.5504  2.9944 7.77933333333333  2.9944 8.0468  C 2.9944 8.31426666666666  3.0896 8.5432  3.28 8.7336  C 3.4704 8.924  3.688 9.00786666666666  3.9328 8.9852  C 4.1776 8.96253333333333  4.3952 8.856  4.5856 8.6656  L 5.9728 7.2784  L 7.4008 8.7064  C 7.5912 8.8968  7.82013333333333 8.992  8.0876 8.992  Z " fill-rule="nonzero" fill="#aaaaaa" stroke="none" transform="matrix(1 0 0 1 419 254 )" />
  </g>
</svg>