<?xml version="1.0" encoding="utf-8"?>
<svg version="1.1" xmlns:xlink="http://www.w3.org/1999/xlink" width="37px" height="37px" xmlns="http://www.w3.org/2000/svg">
  <g transform="matrix(1 0 0 1 -275 -966 )">
    <path d="M 36.8596572875977 4.04876184463501  C 36.8390482868999 3.96621484309435  36.8184045813978 3.87952404469252  36.7936515808105 3.79697704315186  C 36.7688615806401 3.71443004161119  36.7441069614142 3.63191991299391  36.7152099609375 3.55347990989685  C 36.7028519613668 3.51222490891814  36.6863528247923 3.47093296051025  36.673957824707 3.43378496170044  C 36.6285588257015 3.31412696093321  36.5831566825509 3.19443207234144  36.5295066833496 3.07884407043457  C 36.4593546837568 2.92614507675171  36.3809173628688 2.77344603836536  36.2983703613281 2.62899804115295  C 36.2571153603494 2.55470204353333  36.2117159850895 2.48454995453358  36.166316986084 2.4143979549408  C 36.1415639854968 2.37724995613098  36.1209177039564 2.34424591064453  36.0961647033691 2.31120491027832  C 36.0259757041931 2.20804890990257  35.951715759933 2.10485592484474  35.8732757568359 2.0058069229126  C 35.8196257576346 1.93976192176342  35.765976049006 1.8737169764936  35.7123260498047 1.81181597709656  C 35.6008820533752 1.68386997282505  35.4853299185634 1.5642120167613  35.3656349182129 1.44862401485443  C 34.4246509075165 0.553039014339447  33.1576235294342 0  31.7626495361328 0  C 31.7626495361328 0  5.23734998703003 0  5.23734998703003 0  C 4.11476993560791 0  3.07059299945831 0.359048008918762  2.21630001068115 0.969880998134613  C 2.18325901031494 0.994633998721838  2.15025496482849 1.01942405477166  2.11310696601868 1.04417705535889  C 2.01405796408653 1.11847305297852  1.91500905156136 1.19687599688768  1.82006704807281 1.27942299842834  C 1.78706304728985 1.30831999890506  1.75816603004932 1.33307294733822  1.72516202926636 1.36196994781494  C 1.6797630302608 1.40322494879365  1.63436405733228 1.44862396642566  1.58896505832672 1.48991596698761  C 1.58896505832672 1.48991596698761  1.49816703796387 1.58071398735046  1.49816703796387 1.58071398735046  C 1.39497403800488 1.68386998772621  1.29592499881983 1.79531395435333  1.20512700080872 1.90675795078278  C 1.18037400022149 1.93976195156574  1.15147700533271 1.97276592254639  1.12672400474548 2.0058069229126  C 1.06482300534844 2.08420992642641  1.00288502499461 2.16675705462694  0.94512802362442 2.2493040561676  C 0.54889503121376 2.81473803520203  0.264142997562885 3.45857512950897  0.119695000350475 4.15606212615967  C 0.115551000460982 4.17256412655115  0.111443996429443 4.18906583823264  0.111443996429443 4.20146083831787  C 0.0949419960379601 4.28811483830214  0.0784030007198453 4.37480611354113  0.0660450011491776 4.46146011352539  C 0.024753000587225 4.73385411500931  0 5.01039206981659  0 5.29103708267212  C 0 5.29103708267212  0 31.7048568725586  0 31.7048568725586  C 0 32.0845508873463  0.041254997253418 32.4601353406906  0.119695000350475 32.8191833496094  C 0.326044000685215 33.8014593720436  0.804787039756775 34.6846503019333  1.48166501522064 35.382137298584  C 1.48166501522064 35.382137298584  1.59307205677032 35.4935836791992  1.59307205677032 35.4935836791992  C 1.66736805438995 35.5678796768188  1.74577099829912 35.6380312889814  1.82421100139618 35.7081832885742  C 1.98105400800705 35.8443802893162  2.15025505423546 35.9723231270909  2.32360005378723 36.0920181274414  C 2.3566040545702 36.1167711280286  2.3937519043684 36.137417409569  2.42675590515137 36.1621704101563  C 2.49694490432739 36.2075694091618  2.57120394706726 36.2529699318111  2.64139294624329 36.294261932373  C 2.64139294624329 36.294261932373  2.75279998779297 36.3561630249023  2.75279998779297 36.3561630249023  C 2.8270959854126 36.3974180258811  2.90139197558165 36.4345660209656  2.97979497909546 36.4717140197754  C 3.1696419864893 36.5625120177865  3.36777704954147 36.6450579613447  3.56998205184937 36.7152099609375  C 3.65252905339003 36.7441069614142  3.73096894472837 36.7688615806401  3.81347894668579 36.7936515808105  C 4.06111994385719 36.8638035804033  4.31701210141182 36.9174545258284  4.57701110839844 36.9504585266113  C 4.80815011262894 36.9834995269775  5.04339617490768 37  5.28274917602539 37  C 5.28274917602539 37  31.696605682373 37  31.696605682373 37  C 31.8451606780291 37  31.9896450936794 36.9917486198246  32.1340560913086 36.9834976196289  C 32.4559930860996 36.9628516193479  32.7696433067322 36.909202106297  33.0709342956543 36.8307991027832  C 33.1947732940316 36.797758102417  33.3185731843114 36.7606115378439  33.4423751831055 36.7193565368652  C 33.6446171849966 36.6492045372725  33.8427152484655 36.5707617774606  34.0325622558594 36.4758567810059  C 34.106858253479 36.438708782196  34.185263633728 36.4015607871115  34.2595596313477 36.3603057861328  C 34.2595596313477 36.3603057861328  34.3710021972656 36.2983703613281  34.3710021972656 36.2983703613281  C 34.7341941893101 36.0879143625498  35.072597682476 35.8361295759678  35.3780326843262 35.547233581543  C 35.4027856849134 35.526587581262  35.423430537805 35.5018319133669  35.4440765380859 35.4811859130859  C 35.4523275382817 35.4729349128902  35.4605765328743 35.4688299186528  35.4646835327148 35.460578918457  C 35.555481530726 35.3697809204459  35.6380302384496 35.2789820730686  35.7205772399902 35.1840400695801  C 35.7247212398797 35.1799330697395  35.7288286201656 35.1716816890985  35.7370796203613 35.167537689209  C 35.786622621119 35.1097436882555  35.8361279480159 35.0519880317152  35.8815269470215 34.9941940307617  C 35.9351769462228 34.9281490296125  35.9847206100822 34.8621392250061  36.0342636108398 34.7919502258301  C 36.0507656112313 34.7671972252429  36.0672687515616 34.7424439433962  36.0837707519531 34.7217979431152  C 36.0961657520384 34.7052959427238  36.1085232738405 34.684650041163  36.1209182739258 34.6681480407715  C 36.1415642742068 34.6392510402948  36.158066175878 34.6144988071173  36.1745681762695 34.5856018066406  C 36.191070176661 34.5567048061639  36.2075706496835 34.5319525729865  36.2241096496582 34.5030555725098  C 36.2282166494988 34.494804572314  36.2364680301398 34.4865530021489  36.2406120300293 34.4783020019531  C 36.2406120300293 34.4783020019531  36.3272666931152 34.3297080993652  36.3272666931152 34.3297080993652  C 36.3603076934814 34.2678070999682  36.3933113068342 34.2100512497127  36.4263153076172 34.1481132507324  C 36.4799653068185 34.0449572503567  36.5295063965023 33.937656596303  36.5749053955078 33.8303565979004  C 36.5955513957888 33.7808135971427  36.6161617264152 33.7354141250253  36.6326637268066 33.6858711242676  C 36.6698117256165 33.5950731262565  36.7028511017561 33.5001696646214  36.7358551025391 33.4052276611328  C 36.75650110282 33.3392196595669  36.7812541946769 33.2690312415361  36.7977561950684 33.1988792419434  C 36.8225461952388 33.1163322404027  36.8431578632444 33.0296791121364  36.8638038635254 32.9471321105957  C 36.8720548637211 32.9099841117859  36.8803064338863 32.8728361167014  36.888557434082 32.8315811157227  C 36.9050594344735 32.7531411126256  36.9215981466696 32.674736790359  36.9339561462402 32.5921897888184  C 36.9339561462402 32.5839387886226  36.9380989074707 32.5756884571165  36.9380989074707 32.5632934570313  C 36.9463499076664 32.4972854554653  36.9587454781868 32.4353469908237  36.9628524780273 32.3693389892578  C 36.9711034782231 32.3032939881086  36.9752466194332 32.2372497618198  36.9834976196289 32.1712417602539  C 36.9917486198246 32.0391517579556  37 31.9070977270603  37 31.7709007263184  C 37 31.7709007263184  37 5.22499179840088  37 5.22499179840088  C 36.9958560001105 4.82050779461861  36.9463482871652 4.42845585942268  36.8596572875977 4.04876184463501  Z M 28.4033279418945 16.6489868164063  C 27.3591786623001 15.6048060655594  25.6546635627747 15.6048060655594  24.6146030426025 16.6489868164063  C 24.6146030426025 16.6489868164063  14.626877784729 26.63671875  14.626877784729 26.63671875  C 14.626877784729 26.63671875  9.90953636169434 21.9235019683838  9.90953636169434 21.9235019683838  C 8.86535537242889 20.8793212175369  7.16083931922913 20.8793212175369  6.12081050872803 21.9235019683838  C 6.12081050872803 21.9235019683838  2.6416015625 25.4027042388916  2.6416015625 25.4027042388916  C 2.6416015625 25.4027042388916  2.6416015625 5.29104137420654  2.6416015625 5.29104137420654  C 2.6416015625 4.58941984176636  2.9181227684021 3.92908006906509  3.42162322998047 3.42969346046448  C 3.92103484272957 2.92618107795715  4.58137005567551 2.649658203125  5.28297424316406 2.649658203125  C 5.28297424316406 2.649658203125  31.6968269348145 2.649658203125  31.6968269348145 2.649658203125  C 32.398431122303 2.649658203125  33.0587663352489 2.92618107795715  33.558177947998 3.42969346046448  C 34.0616784095764 3.92908006906509  34.3381996154785 4.58941984176636  34.3381996154785 5.29104137420654  C 34.3381996154785 5.29104137420654  34.3381996154785 22.5838413238525  34.3381996154785 22.5838413238525  C 34.3381996154785 22.5838413238525  28.4033279418945 16.6489868164063  28.4033279418945 16.6489868164063  Z " fill-rule="nonzero" fill="#ffffff" stroke="none" transform="matrix(1 0 0 1 275 966 )" />
  </g>
</svg>