<?xml version="1.0" encoding="utf-8"?>
<svg version="1.1" xmlns:xlink="http://www.w3.org/1999/xlink" width="67px" height="67px" xmlns="http://www.w3.org/2000/svg">
  <g transform="matrix(1 0 0 1 -1332 -951 )">
    <path d="M 59.5563011169434 67  C 59.5563011169434 67  7.44369983673096 67  7.44369983673096 67  C 3.34999990463257 67  0 63.6500010490417  0 59.5563011169434  C 0 59.5563011169434  0 7.44369983673096  0 7.44369983673096  C 0 3.34999990463257  3.34999990463257 0  7.44369983673096 0  C 7.44369983673096 0  59.5563011169434 0  59.5563011169434 0  C 63.6500010490417 0  67 3.34999990463257  67 7.44369983673096  C 67 7.44369983673096  67 59.5563011169434  67 59.5563011169434  C 67 63.6500010490417  63.6500010490417 67  59.5563011169434 67  Z M 10.1553602218628 36.3425140380859  C 10.1553602218628 36.3425140380859  13.0782356262207 36.3425140380859  13.0782356262207 36.3425140380859  C 15.4332828521729 36.4212344586849  17.3980593681335 35.7730255126953  18.9658622741699 34.401195526123  C 20.537015080452 33.0293655395508  21.322582244873 31.2387959957123  21.322582244873 29.0277996063232  C 21.322582244873 26.8502960205078  20.6525831222534 25.1702744960785  19.3092346191406 23.9977569580078  C 17.9658861160278 22.8252619504929  16.0798335075378 22.239013671875  13.6460647583008 22.239013671875  C 13.6460647583008 22.239013671875  8 22.239013671875  8 22.239013671875  L 8 44.7627410888672  L 10.1553602218628 44.7627410888672  L 10.1553602218628 36.3425140380859  Z M 10.1552734375 24.79833984375  C 10.1552734375 24.79833984375  13.1216983795166 24.79833984375  13.1216983795166 24.79833984375  C 16.5554485321045 24.79833984375  18.2689743041992 26.2455403804779  18.2689743041992 29.1449661254883  C 18.2689743041992 30.637387752533  17.8083502054214 31.7847613096237  16.8870964050293 32.5854148864746  C 15.9658507108688 33.382717192173  14.6191468238831 33.7830390930176  12.8453216552734 33.7830390930176  C 12.8453216552734 33.7830390930176  10.1552734375 33.7830390930176  10.1552734375 33.7830390930176  L 10.1552734375 24.79833984375  Z M 26 44.7610321044922  C 26 44.7610321044922  31.6607398986816 44.7610321044922  31.6607398986816 44.7610321044922  C 35.2284822463989 44.7610321044922  38.1429884433746 43.7091267108917  40.4059066772461 41.6070098876953  C 42.6705117225647 39.503203868866  43.8011360168457 36.7059602737427  43.8011360168457 33.2152557373047  C 43.8011360168457 29.8719465732574  42.6705117225647 27.2053624391556  40.4059066772461 25.2188148498535  C 38.1446566581726 23.233934044838  35.305536031723 22.2373046875  31.8935680389404 22.2373046875  C 31.8935680389404 22.2373046875  26 22.2373046875  26 22.2373046875  L 26 44.7610321044922  Z M 29 24.826904296875  C 29 24.826904296875  31.7764320373535 24.826904296875  31.7764320373535 24.826904296875  C 34.4631416797638 24.826904296875  36.6289113759995 25.5337564945221  38.2754287719727 26.9508113861084  C 39.9253116846085 28.3644984960556  40.7477378845215 30.4766857624054  40.7477378845215 33.2890090942383  C 40.7477378845215 36.1029989719391  39.9470884799957 38.2838464975357  38.3407592773438 39.8466186523438  C 36.7361128330231 41.4077243804932  34.5050120353699 42.1866035461426  31.6457824707031 42.1866035461426  C 31.6457824707031 42.1866035461426  29 42.1866035461426  29 42.1866035461426  L 29 24.826904296875  Z M 59.752140045166 24.8285236358643  L 59.752140045166 23  L 48 23  L 48 44.7610321044922  L 51.0572204589844 44.7610321044922  L 51.0572204589844 34.9170608520508  L 59.1122817993164 34.9170608520508  L 59.1122817993164 32.3610000610352  L 51.0555381774902 32.3610000610352  L 51.0555381774902 24.8285236358643  L 59.752140045166 24.8285236358643  Z " fill-rule="nonzero" fill="#d93838" stroke="none" transform="matrix(1 0 0 1 1332 951 )" />
  </g>
</svg>