<?xml version="1.0" encoding="utf-8"?>
<svg version="1.1" xmlns:xlink="http://www.w3.org/1999/xlink" width="67px" height="67px" xmlns="http://www.w3.org/2000/svg">
  <g transform="matrix(1 0 0 1 -260 -951 )">
    <path d="M 59 0  C 63.4182481765747 0  67 3.58175277709961  67 8.00000095367432  C 67 8.00000095367432  67 59  67 59  C 67 63.4182481765747  63.4182481765747 67  59 67  C 59 67  8.00000095367432 67  8.00000095367432 67  C 3.58175277709961 67  0 63.4182481765747  0 59  C 0 59  0 8.00000095367432  0 8.00000095367432  C 0 3.58175277709961  3.58175277709961 0  8.00000095367432 0  C 8.00000095367432 0  59 0  59 0  Z " fill-rule="nonzero" fill="#63cbe7" stroke="none" transform="matrix(1 0 0 1 260 951 )" />
  </g>
</svg>